<svg xmlns="http://www.w3.org/2000/svg" viewBox="0 0 48 48"><defs><style>.cls-1{fill:none;}.cls-2{fill:#050505;}.cls-3{fill:#4f83cc;}.cls-4{fill:#a3b6c6;}.cls-5{fill:#01579b;}.cls-6{fill:#002f6c;}.cls-7{fill:#ffad42;}</style></defs><title>cel_3</title><g id="Capa_2" data-name="Capa 2"><g id="Capa_1-2" data-name="Capa 1"><rect class="cls-1" width="48" height="48"/><path class="cls-2" d="M12,32.64l-2.8,1.72A1.12,1.12,0,0,1,7.63,34L6.05,31.43a1.12,1.12,0,0,1,.36-1.55l2.8-1.73a.71.71,0,0,1,1,.23l2,3.29A.71.71,0,0,1,12,32.64Z"/><path class="cls-3" d="M21.27,39.65c-.64-1-1.92-3-2.55-4l-2.56-3.95c-.39-.61-1.09-1.86-1.52-2l-3.45,1.7,6,9.45a1.94,1.94,0,0,0,2.7.58L21,40.71a.76.76,0,0,0,.24-1.05Z"/><path class="cls-4" d="M13,24,7.53,27.41A1.54,1.54,0,0,0,7,29.52l2.71,4.39a1.53,1.53,0,0,0,2.11.5L17.34,31l17.37-3.78-10.52-17Z"/><path class="cls-5" d="M17.34,31l-5.49,3.38a1.53,1.53,0,0,1-2.11-.5L7,29.52a1.54,1.54,0,0,1,.5-2.11L13,24Z"/><path class="cls-6" d="M35.75,28.46l-.75.46a.83.83,0,0,1-1.14-.27L22.56,10.32a.83.83,0,0,1,.26-1.14l.75-.46A.83.83,0,0,1,24.71,9L36,27.32A.83.83,0,0,1,35.75,28.46Z"/><path class="cls-7" d="M32.75,16.79a.63.63,0,0,1-.54-.3.62.62,0,0,1,.21-.86l3.39-2.09a.62.62,0,0,1,.86.21.63.63,0,0,1-.2.86l-3.4,2.09A.62.62,0,0,1,32.75,16.79Z"/><path class="cls-7" d="M40.57,21.9h-.06l-5-.48a.64.64,0,0,1-.56-.69.63.63,0,0,1,.68-.56l5,.48a.63.63,0,0,1-.06,1.25Z"/><path class="cls-7" d="M29.9,12.16a.85.85,0,0,1-.23,0,.64.64,0,0,1-.36-.82l1.82-4.66a.62.62,0,1,1,1.16.46l-1.81,4.66A.62.62,0,0,1,29.9,12.16Z"/></g></g></svg>