<svg xmlns="http://www.w3.org/2000/svg" viewBox="0 0 48 48"><defs><style>.cls-1{fill:none;}.cls-2{fill:#002f6c;}.cls-3{fill:#4f83cc;}.cls-4{fill:#f57c00;}.cls-5{fill:#ffad42;}.cls-6{fill:#01579b;}</style></defs><title>cel_2</title><g id="Capa_2" data-name="Capa 2"><g id="Capa_1-2" data-name="Capa 1"><rect class="cls-1" width="48" height="48"/><rect class="cls-1" width="48" height="48"/><path class="cls-2" d="M35.45,12.89H12.55a1.35,1.35,0,0,0-1.35,1.34V42.52a1.35,1.35,0,0,0,1.35,1.35h22.9a1.35,1.35,0,0,0,1.35-1.35V14.23A1.35,1.35,0,0,0,35.45,12.89Z"/><path class="cls-3" d="M32.76,12.89V40.5a.67.67,0,0,1-.68.68H15.92a.67.67,0,0,1-.68-.68V12.89Z"/><path class="cls-4" d="M25.72,10.19H17.94v5.39H30.06V10.19Z"/><path class="cls-5" d="M28,6.42v.11a2,2,0,0,1-1.38,1.91l-.54.18,1.28,7H26L24.69,8.29a.67.67,0,0,1,.44-.76l1.11-.36a.67.67,0,0,0,.45-.64V6.42a.66.66,0,0,0-.5-.65,8.34,8.34,0,0,0-4.38,0,.66.66,0,0,0-.5.65v.11a.67.67,0,0,0,.45.64l1.11.36a.67.67,0,0,1,.44.76L22,15.58H20.63l1.25-7-.54-.18A2,2,0,0,1,20,6.53V6.42a2,2,0,0,1,1.49-1.95,9.6,9.6,0,0,1,5.1,0A2,2,0,0,1,28,6.42Z"/><path class="cls-6" d="M19.19,22.08c.45.18.67.28.67.66s-.18.48-.54.48a.68.68,0,0,1-.58-.26.4.4,0,0,0-.3-.17.41.41,0,0,0-.37.41c0,.32.38.63.88.74v.13a.4.4,0,1,0,.8,0v-.14a1.15,1.15,0,0,0,.89-1.23,1.34,1.34,0,0,0-1.07-1.33l0,0c-.4-.15-.58-.22-.58-.48a.3.3,0,0,1,.16-.3.8.8,0,0,1,.36-.07,1,1,0,0,1,.49.12.45.45,0,0,0,.22.08.42.42,0,0,0,.38-.42c0-.35-.51-.47-.79-.51v-.14a.4.4,0,0,0-.4-.4.42.42,0,0,0-.41.4v.18a1,1,0,0,0-.79,1.08C18.16,21.7,18.73,21.91,19.19,22.08Z"/><path class="cls-6" d="M25.43,26.56a.41.41,0,0,0-.41-.41l-7.45,0a.43.43,0,0,0-.42.41.43.43,0,0,0,.29.4h.12L25,27A.41.41,0,0,0,25.43,26.56Z"/><path class="cls-6" d="M25.43,28.91A.41.41,0,0,0,25,28.5l-7.45,0a.41.41,0,0,0-.42.4.42.42,0,0,0,.29.4l.12,0,7.46,0A.41.41,0,0,0,25.43,28.91Z"/><path class="cls-6" d="M29.87,20.26a.4.4,0,0,0-.4-.41L24,19.8a.41.41,0,0,0-.12.8l.12,0,5.47,0A.4.4,0,0,0,29.87,20.26Z"/><path class="cls-6" d="M29.87,22.61a.4.4,0,0,0-.4-.41L24,22.15a.41.41,0,0,0-.12.8L24,23l5.47.05A.41.41,0,0,0,29.87,22.61Z"/><path class="cls-6" d="M25.43,31.26a.41.41,0,0,0-.41-.41l-7.45,0a.41.41,0,0,0-.42.4.42.42,0,0,0,.29.4l.12,0,7.46,0A.41.41,0,0,0,25.43,31.26Z"/><path class="cls-6" d="M25.43,33.61A.41.41,0,0,0,25,33.2l-7.45,0a.42.42,0,0,0-.42.4.42.42,0,0,0,.29.4l.12,0L25,34A.41.41,0,0,0,25.43,33.61Z"/><path class="cls-6" d="M29.83,36.65a.41.41,0,0,0-.41-.41l-11.85,0a.41.41,0,0,0-.42.4.42.42,0,0,0,.29.4l.12,0,11.86,0A.41.41,0,0,0,29.83,36.65Z"/><path class="cls-6" d="M29.64,26.56a.41.41,0,0,0-.41-.41l-1.69,0a.42.42,0,0,0-.13.81h.12l1.69,0A.42.42,0,0,0,29.64,26.56Z"/><path class="cls-6" d="M29.64,28.91a.41.41,0,0,0-.41-.41l-1.69,0a.4.4,0,0,0-.41.4.4.4,0,0,0,.28.4l.12,0,1.69,0A.42.42,0,0,0,29.64,28.91Z"/><path class="cls-6" d="M29.64,31.26a.42.42,0,0,0-.41-.41l-1.69,0a.4.4,0,0,0-.41.4.4.4,0,0,0,.28.4l.12,0,1.69,0A.42.42,0,0,0,29.64,31.26Z"/><path class="cls-6" d="M29.64,33.61a.42.42,0,0,0-.41-.41l-1.69,0a.41.41,0,0,0-.13.8l.12,0,1.69,0A.42.42,0,0,0,29.64,33.61Z"/></g></g></svg>