<svg xmlns="http://www.w3.org/2000/svg" viewBox="0 0 48 48"><defs><style>.cls-1{fill:none;}.cls-2{fill:#f57c00;}.cls-3{fill:#bb4d00;}.cls-4{fill:#4f83cc;}</style></defs><title>cel_6</title><g id="Capa_2" data-name="Capa 2"><g id="Capa_1-2" data-name="Capa 1"><rect class="cls-1" width="48" height="48"/><path class="cls-2" d="M24,36.48A12.48,12.48,0,1,1,36.48,24,12.5,12.5,0,0,1,24,36.48"/><path class="cls-3" d="M24,15.09a.59.59,0,0,1-.6-.59V13.31a.6.6,0,0,1,1.19,0V14.5a.59.59,0,0,1-.59.59"/><path class="cls-3" d="M24,35.29a.6.6,0,0,1-.6-.59V33.51a.6.6,0,1,1,1.19,0V34.7a.6.6,0,0,1-.59.59"/><path class="cls-3" d="M34.7,24.6H33.51a.59.59,0,0,1-.59-.6.58.58,0,0,1,.59-.59H34.7a.58.58,0,0,1,.59.59.59.59,0,0,1-.59.6"/><path class="cls-3" d="M14.5,24.6H13.31a.6.6,0,0,1-.59-.6.59.59,0,0,1,.59-.59H14.5a.59.59,0,0,1,.6.59.6.6,0,0,1-.6.6"/><path class="cls-3" d="M24,25.79a2.38,2.38,0,1,1,2.37-2.38A2.39,2.39,0,0,1,24,25.79m0-3.57a1.19,1.19,0,1,0,1.18,1.19A1.19,1.19,0,0,0,24,22.22"/><path class="cls-3" d="M24,22.22a.59.59,0,0,1-.6-.59V18.06a.6.6,0,0,1,1.19,0v3.57a.59.59,0,0,1-.59.59"/><path class="cls-3" d="M17.47,30.54a.6.6,0,0,1-.42-1l5.28-5.27a.59.59,0,0,1,.84.84l-5.28,5.27a.58.58,0,0,1-.42.18"/><path class="cls-4" d="M6.78,24.6a.59.59,0,0,1-.59-.6A17.81,17.81,0,0,1,36.3,11.11a.61.61,0,0,1,0,.84.59.59,0,0,1-.84,0A16.63,16.63,0,0,0,7.37,24a.59.59,0,0,1-.59.6"/><path class="cls-4" d="M36.48,12.12H31.13a.59.59,0,0,1-.59-.59.6.6,0,0,1,.59-.6h4.16V6.78a.6.6,0,1,1,1.19,0Z"/><path class="cls-4" d="M23.66,41.82a.6.6,0,0,1,0-1.19.61.61,0,0,1,.59.61.6.6,0,0,1-.6.58Zm1.2-.6a.59.59,0,1,1,.64.54h0a.59.59,0,0,1-.6-.54m-3,.47h0a.59.59,0,1,1,.66-.52.6.6,0,0,1-.59.52Zm4.8-.65a.61.61,0,0,1,.48-.7.6.6,0,0,1,.69.48.59.59,0,0,1-.47.69h-.11a.6.6,0,0,1-.59-.48M20,41.37a.6.6,0,0,1-.45-.71.61.61,0,0,1,.72-.45.6.6,0,0,1,.44.72.59.59,0,0,1-.58.45H20m8.37-.69a.58.58,0,0,1,.4-.74.59.59,0,1,1,.34,1.14l-.17,0a.59.59,0,0,1-.57-.42m-10.14.19A.6.6,0,1,1,19,40.5a.59.59,0,0,1-.56.4l-.19,0m11.84-.73a.58.58,0,0,1,.32-.78.59.59,0,1,1,.45,1.1.61.61,0,0,1-.77-.32m-13.55,0a.6.6,0,0,1-.29-.79A.59.59,0,0,1,17,39.1a.6.6,0,0,1,.29.79.59.59,0,0,1-.54.34.7.7,0,0,1-.25,0m15.18-.76a.59.59,0,0,1,1-.57.6.6,0,0,1-.24.81.55.55,0,0,1-.28.07.59.59,0,0,1-.52-.31m-16.81-.1a.6.6,0,0,1-.2-.82.59.59,0,0,1,.81-.2.58.58,0,0,1,.2.81.59.59,0,0,1-.51.29.54.54,0,0,1-.3-.08m18.36-.78a.6.6,0,0,1,.15-.83.58.58,0,0,1,.82.16.59.59,0,0,1-.14.82.61.61,0,0,1-.34.1.6.6,0,0,1-.49-.25M13.37,38.3h0a.6.6,0,0,1-.12-.84.59.59,0,0,1,.83-.12.6.6,0,0,1,.12.83.57.57,0,0,1-.48.24.63.63,0,0,1-.35-.11m21.34-.8a.59.59,0,0,1,.07-.83.58.58,0,0,1,.83.06.59.59,0,0,1-.45,1,.6.6,0,0,1-.45-.21M12,37.12h0a.59.59,0,0,1,0-.84.6.6,0,0,1,.84,0h0a.59.59,0,0,1,0,.83.59.59,0,0,1-.44.19.62.62,0,0,1-.4-.15m24.1-.8a.58.58,0,0,1,0-.83.59.59,0,0,1,.84,0,.6.6,0,0,1,0,.84.58.58,0,0,1-.42.18.54.54,0,0,1-.41-.17M10.66,35.8a.59.59,0,1,1,.89-.78.59.59,0,0,1-.89.78M37.25,35a.61.61,0,0,1-.1-.84.6.6,0,0,1,.94.73.61.61,0,0,1-.47.23.65.65,0,0,1-.37-.12M9.51,34.36a.6.6,0,0,1,.14-.83.6.6,0,0,1,.83.14.59.59,0,0,1-.14.83.53.53,0,0,1-.34.11.61.61,0,0,1-.49-.25m28.81-.77a.6.6,0,0,1-.19-.82.61.61,0,0,1,.82-.19.6.6,0,0,1-.31,1.1.62.62,0,0,1-.32-.09m-29.8-.78A.58.58,0,0,1,8.74,32a.6.6,0,0,1,.81.22h0a.6.6,0,0,1-.22.81.53.53,0,0,1-.29.08.6.6,0,0,1-.52-.3m30.72-.75a.59.59,0,1,1,.79-.27.58.58,0,0,1-.53.33.48.48,0,0,1-.26-.06M7.69,31.17a.6.6,0,0,1,.3-.79.61.61,0,0,1,.79.31.59.59,0,0,1-.31.78.52.52,0,0,1-.24.05.59.59,0,0,1-.54-.35M40,30.45a.6.6,0,1,1,.76-.36.57.57,0,0,1-.56.39l-.2,0m-33-1a.59.59,0,0,1,.39-.74.58.58,0,0,1,.74.38.6.6,0,0,1-.38.75.55.55,0,0,1-.18,0A.61.61,0,0,1,7,29.44m33.54-.67a.61.61,0,0,1-.43-.73.6.6,0,0,1,.72-.43.6.6,0,0,1-.14,1.18l-.15,0m-34-1.11A.58.58,0,0,1,7,27a.59.59,0,0,1,.25,1.16H7.14a.58.58,0,0,1-.57-.47M41,27a.64.64,0,1,1,.08,0H41M6.28,25.84a.59.59,0,1,1,.65.53H6.87a.59.59,0,0,1-.59-.53m34.92-.58a.59.59,0,0,1-.57-.62.59.59,0,1,1,1.18.05.59.59,0,0,1-.59.57ZM6.19,24a.59.59,0,1,1,.59.6.59.59,0,0,1-.59-.6"/></g></g></svg>