<svg xmlns="http://www.w3.org/2000/svg" viewBox="0 0 48 48"><defs><style>.cls-1{fill:none;}.cls-2{fill:#4f83cc;}.cls-3{fill:#01579b;}.cls-4{fill:#002f6c;}.cls-5{fill:#ffad42;}.cls-6{fill:#f57c00;}.cls-7{fill:#bb4d00;}</style></defs><title>cel_4</title><g id="Capa_2" data-name="Capa 2"><g id="Capa_1-2" data-name="Capa 1"><rect class="cls-1" width="48" height="48"/><path class="cls-2" d="M30.81,32.11h4.81a.64.64,0,0,0,.64-.64V9.14a.64.64,0,0,0-.64-.64H5a.64.64,0,0,0-.64.64V31.47a.64.64,0,0,0,.64.64Z"/><path class="cls-3" d="M9.14,14.88a2.24,2.24,0,1,0-2.23-2.23A2.23,2.23,0,0,0,9.14,14.88Zm0-3.19a1,1,0,1,1-1,1A1,1,0,0,1,9.14,11.69Z"/><path class="cls-3" d="M14.88,16.8A2.23,2.23,0,1,0,17.11,19,2.23,2.23,0,0,0,14.88,16.8Zm0,3.19a1,1,0,1,1,1-1A1,1,0,0,1,14.88,20Z"/><path class="cls-3" d="M16.91,10.59a.62.62,0,0,0-.9,0L7.08,20.19a.64.64,0,1,0,.93.87l8.93-9.57A.63.63,0,0,0,16.91,10.59Z"/><path class="cls-3" d="M7.58,23.81H33a.68.68,0,0,1,.67.68v4.39a.68.68,0,0,1-.67.68H7.58a.68.68,0,0,1-.67-.68V24.49A.68.68,0,0,1,7.58,23.81Z"/><path class="cls-4" d="M11.37,27.64H10.1a.64.64,0,1,1,0-1.27h1.27a.64.64,0,1,1,0,1.27Z"/><path class="cls-4" d="M15.2,27.64H13.92a.64.64,0,0,1,0-1.27H15.2a.64.64,0,1,1,0,1.27Z"/><path class="cls-4" d="M19,27.64H17.75a.64.64,0,1,1,0-1.27H19a.64.64,0,1,1,0,1.27Z"/><path class="cls-4" d="M20.94,11.69h1.28a.64.64,0,0,0,.64-.64.64.64,0,0,0-.64-.64H20.94a.64.64,0,0,0-.64.64A.64.64,0,0,0,20.94,11.69Z"/><path class="cls-4" d="M24.77,11.69H33.7a.64.64,0,0,0,0-1.28H24.77a.64.64,0,0,0-.64.64A.64.64,0,0,0,24.77,11.69Z"/><path class="cls-4" d="M22.22,15.52H20.94a.64.64,0,0,0-.64.64.64.64,0,0,0,.64.64h1.28a.64.64,0,0,0,.64-.64A.64.64,0,0,0,22.22,15.52Z"/><path class="cls-4" d="M33.7,15.52H24.77a.64.64,0,0,0-.64.64.64.64,0,0,0,.64.64H33.7a.64.64,0,0,0,0-1.28Z"/><path class="cls-4" d="M20.94,14.24h6.38a.64.64,0,1,0,0-1.27H20.94a.64.64,0,1,0,0,1.27Z"/><path class="cls-4" d="M33.7,13H29.88a.64.64,0,1,0,0,1.27H33.7a.64.64,0,1,0,0-1.27Z"/><path class="cls-5" d="M38.2,39.5H43a.64.64,0,0,0,.64-.64V16.53a.64.64,0,0,0-.64-.64H12.38a.64.64,0,0,0-.64.64V38.86a.64.64,0,0,0,.64.64Z"/><path class="cls-6" d="M16.53,22.27A2.23,2.23,0,1,0,14.3,20,2.23,2.23,0,0,0,16.53,22.27Zm0-3.19a1,1,0,1,1-1,1A1,1,0,0,1,16.53,19.08Z"/><path class="cls-6" d="M22.27,24.19a2.23,2.23,0,1,0,2.24,2.23A2.23,2.23,0,0,0,22.27,24.19Zm0,3.19a1,1,0,1,1,1-1A1,1,0,0,1,22.27,27.38Z"/><path class="cls-6" d="M24.3,18a.59.59,0,0,0-.45-.17.65.65,0,0,0-.45.2l-8.93,9.57a.67.67,0,0,0-.16.63.65.65,0,0,0,.48.44.64.64,0,0,0,.61-.2l8.93-9.57A.63.63,0,0,0,24.3,18Z"/><path class="cls-6" d="M15,31.21H40.42a.67.67,0,0,1,.67.67v4.39a.68.68,0,0,1-.67.68H15a.68.68,0,0,1-.67-.68V31.88A.67.67,0,0,1,15,31.21Z"/><path class="cls-7" d="M18.76,35H17.49a.64.64,0,1,1,0-1.27h1.27a.64.64,0,1,1,0,1.27Z"/><path class="cls-7" d="M22.59,35H21.32a.64.64,0,1,1,0-1.27h1.27a.64.64,0,1,1,0,1.27Z"/><path class="cls-7" d="M26.42,35H25.14a.64.64,0,0,1,0-1.27h1.28a.64.64,0,1,1,0,1.27Z"/><path class="cls-7" d="M28.33,19.08h1.28a.64.64,0,1,0,0-1.27H28.33a.64.64,0,0,0,0,1.27Z"/><path class="cls-7" d="M32.16,19.08h8.93a.64.64,0,1,0,0-1.27H32.16a.64.64,0,1,0,0,1.27Z"/><path class="cls-7" d="M29.61,22.91H28.33a.64.64,0,0,0,0,1.28h1.28a.64.64,0,0,0,0-1.28Z"/><path class="cls-7" d="M41.09,22.91H32.16a.64.64,0,0,0,0,1.28h8.93a.64.64,0,1,0,0-1.28Z"/><path class="cls-7" d="M28.33,21.63h6.38a.64.64,0,1,0,0-1.27H28.33a.64.64,0,0,0,0,1.27Z"/><path class="cls-7" d="M41.09,20.36H37.27a.64.64,0,1,0,0,1.27h3.82a.64.64,0,1,0,0-1.27Z"/></g></g></svg>