<svg xmlns="http://www.w3.org/2000/svg" viewBox="0 0 48 48"><defs><style>.cls-1,.cls-5{fill:none;}.cls-2{fill:#ffad42;}.cls-3{fill:#4f83cc;}.cls-4{fill:#01579b;}.cls-5{stroke:#ffad42;stroke-miterlimit:10;}.cls-6{fill:#002f6c;}.cls-7{fill:#050505;}</style></defs><title>cel_5</title><g id="Capa_2" data-name="Capa 2"><g id="Capa_1-2" data-name="Capa 1"><rect class="cls-1" width="48" height="48"/><path class="cls-2" d="M10,36.27H37.37V39.5H10Z"/><path class="cls-3" d="M10.08,9.52H37.19a1.29,1.29,0,0,1,1.29,1.29V37.92H8.79V10.81A1.29,1.29,0,0,1,10.08,9.52Z"/><path class="cls-4" d="M10.08,9.52H37.19a1.29,1.29,0,0,1,1.29,1.29v3.87H8.79V10.81A1.29,1.29,0,0,1,10.08,9.52Z"/><path class="cls-5" d="M21.7,25a1.29,1.29,0,1,1-1.29-1.29A1.29,1.29,0,0,1,21.7,25Z"/><path class="cls-6" d="M15.24,19.84A1.29,1.29,0,1,1,14,18.55,1.29,1.29,0,0,1,15.24,19.84Z"/><path class="cls-6" d="M21.7,19.84a1.29,1.29,0,1,1-1.29-1.29A1.3,1.3,0,0,1,21.7,19.84Z"/><path class="cls-6" d="M28.15,19.84a1.29,1.29,0,1,1-1.29-1.29A1.29,1.29,0,0,1,28.15,19.84Z"/><path class="cls-6" d="M15.24,25A1.29,1.29,0,1,1,14,23.72,1.29,1.29,0,0,1,15.24,25Z"/><path class="cls-6" d="M15.24,30.17A1.29,1.29,0,1,1,14,28.88,1.28,1.28,0,0,1,15.24,30.17Z"/><path class="cls-6" d="M28.24,25A1.29,1.29,0,1,1,27,23.72,1.29,1.29,0,0,1,28.24,25Z"/><path class="cls-6" d="M28.24,30.17A1.29,1.29,0,1,1,27,28.88,1.28,1.28,0,0,1,28.24,30.17Z"/><path class="cls-6" d="M34.15,19.84a1.29,1.29,0,1,1-1.29-1.29A1.29,1.29,0,0,1,34.15,19.84Z"/><path class="cls-6" d="M34.24,25A1.29,1.29,0,1,1,33,23.72,1.29,1.29,0,0,1,34.24,25Z"/><path class="cls-6" d="M34.24,30.17A1.29,1.29,0,1,1,33,28.88,1.28,1.28,0,0,1,34.24,30.17Z"/><path class="cls-6" d="M21.7,30.17a1.29,1.29,0,1,1-1.29-1.29A1.29,1.29,0,0,1,21.7,30.17Z"/><path class="cls-7" d="M14,7.58a1.29,1.29,0,0,1,1.29,1.29v2.58H12.66V8.87A1.29,1.29,0,0,1,14,7.58Z"/><path class="cls-7" d="M20.41,7.58A1.29,1.29,0,0,1,21.7,8.87v2.58H19.12V8.87A1.29,1.29,0,0,1,20.41,7.58Z"/><path class="cls-7" d="M26.86,7.58a1.29,1.29,0,0,1,1.29,1.29v2.58H25.57V8.87A1.29,1.29,0,0,1,26.86,7.58Z"/><path class="cls-7" d="M33.32,7.58a1.29,1.29,0,0,1,1.29,1.29v2.58H32V8.87A1.29,1.29,0,0,1,33.32,7.58Z"/></g></g></svg>