<?xml version="1.0" encoding="utf-8"?>
<!-- Generator: Adobe Illustrator 23.0.2, SVG Export Plug-In . SVG Version: 6.00 Build 0)  -->
<svg version="1.1" id="Capa_1" xmlns="http://www.w3.org/2000/svg" xmlns:xlink="http://www.w3.org/1999/xlink" x="0px" y="0px"
	 viewBox="0 0 49 51" style="enable-background:new 0 0 49 51;" xml:space="preserve">
<style type="text/css">
	.st0{fill:#FFAD42;}
	.st1{fill:#F57C00;}
	.st2{fill:#BB4D00;}
	.st3{fill:#4F83CC;}
	.st4{fill:#01579B;}
	.st5{fill:#002F6C;}
	.st6{fill:none;}
</style>
<title>const_1</title>
<g>
	<g id="Capa_1-2">
		<path class="st0" d="M18,15.6h-5.3C10.7,15.7,9,14,9,12l0,0V6.6c0-2,1.7-3.7,3.7-3.6l0,0H18c2,0,3.7,1.6,3.7,3.7V12
			C21.6,14,20,15.6,18,15.6z"/>
		<path class="st1" d="M18.6,6.9c-0.4-0.4-0.9-0.4-1.3,0l-2.9,2.7l-0.9-0.9c-0.4-0.3-1-0.2-1.3,0.2c-0.2,0.3-0.2,0.7,0,1l1.6,1.6
			c0.2,0.2,0.4,0.3,0.6,0.3c0.2,0,0.5-0.1,0.6-0.2l3.6-3.4C18.9,7.9,18.9,7.3,18.6,6.9z"/>
		<path class="st2" d="M36,15.6h-5.3c-2,0-3.7-1.6-3.7-3.6l0,0V6.6c0-2,1.6-3.6,3.7-3.6l0,0H36c2,0,3.7,1.6,3.7,3.7V12
			C39.6,14,38,15.6,36,15.6z"/>
		<path class="st1" d="M36.6,6.9c-0.4-0.4-0.9-0.4-1.3,0l-2.9,2.7l-0.9-0.9c-0.4-0.3-1-0.2-1.3,0.2c-0.2,0.3-0.2,0.7,0,1l1.6,1.6
			c0.2,0.2,0.4,0.3,0.7,0.3c0.2,0,0.5-0.1,0.6-0.2l3.5-3.4C36.9,7.9,36.9,7.3,36.6,6.9z"/>
		<path class="st3" d="M28.5,22.2c-1.4,0-2.5,1.1-2.5,2.5c0.1-1.4-0.9-2.5-2.3-2.6s-2.5,0.9-2.6,2.3c0,0.1,0,0.2,0,0.3
			c0.1-1.4-0.9-2.5-2.3-2.6s-2.5,0.9-2.6,2.3c0,0.1,0,0.2,0,0.3V16c0-1.4-1.1-2.5-2.5-2.5s-2.5,1.1-2.5,2.5v21.8
			c0,3.7,3,6.7,6.6,6.7l0,0h6.4c3.7,0,6.7-3,6.7-6.7l0,0V24.7C30.9,23.3,29.8,22.2,28.5,22.2z"/>
		<path class="st4" d="M26.7,50.2l-11.9-0.1c-1.9,0-3.4-1.5-3.4-3.4l0,0v-1.4c0-1.9,1.5-3.4,3.4-3.4l0,0L26.7,42
			c1.9,0,3.4,1.5,3.4,3.4v1.4C30.1,48.7,28.6,50.2,26.7,50.2L26.7,50.2z"/>
		<path class="st5" d="M26.8,45c0.6,0.6,0.6,1.5,0,2.1s-1.5,0.6-2.1,0s-0.6-1.5,0-2.1l0,0C25.3,44.4,26.2,44.4,26.8,45z"/>
		<rect class="st6" width="49" height="51"/>
	</g>
</g>
</svg>
