<?xml version="1.0" encoding="utf-8"?>
<!-- Generator: Adobe Illustrator 23.0.2, SVG Export Plug-In . SVG Version: 6.00 Build 0)  -->
<svg version="1.1" id="Capa_1" xmlns="http://www.w3.org/2000/svg" xmlns:xlink="http://www.w3.org/1999/xlink" x="0px" y="0px"
	 viewBox="0 0 49 51" style="enable-background:new 0 0 49 51;" xml:space="preserve">
<style type="text/css">
	.st0{fill:#FFAD42;}
	.st1{fill:#F57C00;}
	.st2{font-family:'MyriadPro-Bold';}
	.st3{font-size:15.22px;}
	.st4{fill:#4F83CC;}
	.st5{fill:#01579B;}
	.st6{fill:#002F6C;}
	.st7{fill:none;}
</style>
<title>const_4</title>
<g>
	<g id="Capa_1-2">
		<path class="st0" d="M13.8,1.6h29.4c2.5,0,4.6,2.1,4.6,4.6v9.8c0,2.5-2.1,4.6-4.6,4.6H13.8c-2.5,0-4.6-2.1-4.6-4.6V6.2
			C9.2,3.7,11.2,1.6,13.8,1.6z"/>
		<text transform="matrix(1 0 0 1 24.59 15.61)" class="st1 st2 st3">$</text>
		<path class="st4" d="M32.4,29c-1-1-2.5-1-3.5,0c0,0,0,0,0,0c1-1,1-2.5,0-3.5c-1-1-2.5-1-3.5,0c1-1,1-2.5,0-3.5c-1-1-2.5-1-3.5,0
			l6.1-6.1c1-1,1-2.5,0-3.5s-2.5-1-3.5,0L9.1,27.9c-2.6,2.6-2.6,6.8,0,9.4c0,0,0,0,0,0l4.5,4.5c2.6,2.6,6.8,2.6,9.4,0l9.3-9.3
			C33.4,31.6,33.4,30,32.4,29C32.4,29,32.4,29,32.4,29z"/>
		<path class="st5" d="M10.7,49.4L2.2,41c-1.3-1.3-1.3-3.5,0-4.8l1-1c1.3-1.3,3.5-1.3,4.8,0c0,0,0,0,0,0l8.4,8.4
			c1.3,1.3,1.3,3.5,0,4.8l-1,1C14.1,50.8,12,50.8,10.7,49.4z"/>
		<path class="st6" d="M14.3,45.8c0,0.8-0.7,1.5-1.5,1.5c-0.8,0-1.5-0.7-1.5-1.5c0-0.8,0.7-1.5,1.5-1.5c0,0,0,0,0,0
			C13.7,44.3,14.3,45,14.3,45.8C14.3,45.8,14.3,45.8,14.3,45.8z"/>
		<rect class="st7" width="49" height="51"/>
	</g>
</g>
</svg>
