<?xml version="1.0" encoding="utf-8"?>
<!-- Generator: Adobe Illustrator 23.0.2, SVG Export Plug-In . SVG Version: 6.00 Build 0)  -->
<svg version="1.1" id="Capa_1" xmlns="http://www.w3.org/2000/svg" xmlns:xlink="http://www.w3.org/1999/xlink" x="0px" y="0px"
	 viewBox="0 0 49 51" style="enable-background:new 0 0 49 51;" xml:space="preserve">
<style type="text/css">
	.st0{fill:#FFAD42;}
	.st1{fill:#002F6C;}
	.st2{fill:#4F83CC;}
	.st3{fill:none;}
</style>
<title>const_2</title>
<g>
	<g id="Capa_1-2">
		<polygon class="st0" points="18.6,8.7 16.4,10.6 16.4,4.5 13.5,4.5 13.5,10.6 11.3,8.7 9.4,10.9 15,15.9 20.6,10.9 		"/>
		<circle class="st1" cx="30.7" cy="32.2" r="5.9"/>
		<path class="st1" d="M39.9,49.3c0,0.3,0,0.6,0,0.9H21.7c0-0.3,0-0.6,0-0.9c0.2-5,4.4-9,9.4-8.8C35.9,40.7,39.8,44.6,39.9,49.3
			L39.9,49.3z"/>
		<path class="st2" d="M27.2,49c0,0.4,0,0.9-0.1,1.3H2.7c0-0.4-0.1-0.9-0.1-1.3c0.2-6.8,5.8-12.1,12.6-11.9
			C21.8,37.3,27,42.5,27.2,49z"/>
		<path class="st2" d="M11.2,20.1h7.3c1.9,0,3.4,1.5,3.4,3.4v7.4c0,1.9-1.5,3.4-3.4,3.4h-7.3c-1.9,0-3.4-1.5-3.4-3.4v-7.4
			C7.8,21.6,9.3,20.1,11.2,20.1z"/>
		<rect class="st3" width="49" height="51"/>
	</g>
</g>
</svg>
