<?xml version="1.0" encoding="utf-8"?>
<!-- Generator: Adobe Illustrator 23.0.2, SVG Export Plug-In . SVG Version: 6.00 Build 0)  -->
<svg version="1.1" id="Capa_1" xmlns="http://www.w3.org/2000/svg" xmlns:xlink="http://www.w3.org/1999/xlink" x="0px" y="0px"
	 viewBox="0 0 49.2 48.9" style="enable-background:new 0 0 49.2 48.9;" xml:space="preserve">
<style type="text/css">
	.st0{fill:none;}
	.st1{fill:#4F83CC;}
	.st2{clip-path:url(#SVGID_2_);}
	.st3{fill:#79A8E0;}
	.st4{fill:#063F7C;}
	.st5{fill:#01579B;}
</style>
<title>Para-edu</title>
<g>
	<g id="Capa_1-2">
		<rect x="1.2" y="0.9" class="st0" width="48" height="48"/>
		<circle class="st1" cx="25.2" cy="24.9" r="23.8"/>
		<g>
			<defs>
				<circle id="SVGID_1_" cx="25.2" cy="24.9" r="23.8"/>
			</defs>
			<clipPath id="SVGID_2_">
				<use xlink:href="#SVGID_1_"  style="overflow:visible;"/>
			</clipPath>
			<g class="st2">
				<path class="st3" d="M10,18.4L35.1,9L48,43.3l-25.1,9.4c-1.1,0.4-2.3-0.1-2.7-1.2c0,0,0,0,0,0L8.7,21.1
					C8.3,20.1,8.9,18.8,10,18.4C10,18.4,10,18.4,10,18.4z"/>
				<rect x="18.3" y="15.9" transform="matrix(0.936 -0.352 0.352 0.936 -10.7694 9.2568)" class="st4" width="3.5" height="36.7"/>
				<rect x="21" y="23.5" transform="matrix(0.936 -0.352 0.352 0.936 -8.4946 13.0488)" class="st5" width="21.2" height="12.7"/>
				<rect x="14.3" y="29.3" transform="matrix(0.936 -0.352 0.352 0.936 -11.4821 8.0658)" class="st5" width="4.2" height="12.7"/>
				<polygon class="st4" points="27.2,8.2 29.7,8.7 31.2,6.7 32.4,10 28.5,11.5 				"/>
			</g>
		</g>
	</g>
</g>
</svg>
