<?xml version="1.0" encoding="utf-8"?>
<!-- Generator: Adobe Illustrator 23.0.2, SVG Export Plug-In . SVG Version: 6.00 Build 0)  -->
<svg version="1.1" id="Capa_1" xmlns="http://www.w3.org/2000/svg" xmlns:xlink="http://www.w3.org/1999/xlink" x="0px" y="0px"
	 viewBox="0 0 48 48" style="enable-background:new 0 0 48 48;" xml:space="preserve">
<style type="text/css">
	.st0{fill:none;}
	.st1{fill:#4F83CC;}
	.st2{clip-path:url(#SVGID_2_);}
	.st3{fill:#01579B;}
	.st4{fill:#79A8E0;}
	.st5{fill:#063F7C;}
</style>
<title>Para-entre</title>
<g>
	<g id="Capa_1-2">
		<rect class="st0" width="48" height="48"/>
		<circle class="st1" cx="24" cy="24" r="23.8"/>
		<g>
			<defs>
				<circle id="SVGID_1_" cx="24" cy="24" r="23.8"/>
			</defs>
			<clipPath id="SVGID_2_">
				<use xlink:href="#SVGID_1_"  style="overflow:visible;"/>
			</clipPath>
			<g class="st2">
				<polygon class="st3" points="16.9,13.9 7.7,22 7.7,43.4 41.2,43.4 41.2,22 31.9,13.9 				"/>
				<polygon class="st3" points="41.2,22 31.9,13.9 24.5,13.9 24.5,43.4 41.2,43.4 				"/>
				<rect x="12.9" y="9.8" class="st4" width="23.1" height="27.2"/>
				<polygon class="st5" points="24.5,36.1 7.7,22 7.7,43.4 41.2,43.4 41.2,22 				"/>
				<polygon class="st5" points="24.5,36.1 24.5,43.4 41.2,43.4 41.2,22 				"/>
				<polygon class="st3" points="24.5,36.1 19.1,31.6 7.7,43.4 41.2,43.4 29.8,31.6 				"/>
				<polygon class="st3" points="24.5,36.1 24.5,43.4 41.2,43.4 29.8,31.6 				"/>
				<polygon class="st3" points="24.5,15.6 26.3,19.3 30.4,19.9 27.4,22.8 28.1,26.9 24.5,25 20.8,26.9 21.5,22.8 18.5,19.9 
					22.6,19.3 				"/>
			</g>
		</g>
	</g>
</g>
</svg>
