<?xml version="1.0" encoding="utf-8"?>
<!-- Generator: Adobe Illustrator 23.0.2, SVG Export Plug-In . SVG Version: 6.00 Build 0)  -->
<svg version="1.1" id="Capa_1" xmlns="http://www.w3.org/2000/svg" xmlns:xlink="http://www.w3.org/1999/xlink" x="0px" y="0px"
	 viewBox="0 0 52.8 48" style="enable-background:new 0 0 52.8 48;" xml:space="preserve">
<style type="text/css">
	.st0{fill:none;}
	.st1{fill:#4F83CC;}
	.st2{clip-path:url(#SVGID_2_);}
	.st3{fill:#063F7C;}
	.st4{fill:#01579B;}
	.st5{fill:#004A87;}
	.st6{fill:#79A8E0;}
	.st7{fill:#E86E4D;}
</style>
<title>Para-bancos</title>
<g>
	<g id="Capa_1-2">
		<rect class="st0" width="48" height="48"/>
		<circle class="st1" cx="24" cy="24" r="23.8"/>
		<g>
			<defs>
				<circle id="SVGID_1_" cx="24" cy="24" r="23.8"/>
			</defs>
			<clipPath id="SVGID_2_">
				<use xlink:href="#SVGID_1_"  style="overflow:visible;"/>
			</clipPath>
			<g class="st2">
				<path class="st3" d="M30.9,18.5H3.2v2.7H2.7c-1.4,0-2.5-1.1-2.5-2.4c0-1.4,1.1-2.5,2.5-2.5c0,0,0,0,0,0h25.7
					C29.6,16.3,30.7,17.2,30.9,18.5"/>
				<path class="st4" d="M36.3,16.8H4.8v2.7h25.4c1.4,0,2.6,1.2,2.6,2.6v16.1h11.8V16.8H36.3"/>
				<path class="st5" d="M34.7,18.5H3.2v2.7h25.4c1.4,0,2.6,1.2,2.6,2.6c0,0,0,0,0,0v16.1H43V18.5H34.7"/>
				<path class="st1" d="M40.3,24.7v8.9c-1.6,0.7-2.9,2-3.6,3.6h-5.5V23.8c0-1.4-1.2-2.6-2.6-2.6c0,0,0,0,0,0h8.2
					C37.5,22.8,38.7,24,40.3,24.7"/>
				<path class="st6" d="M52.8,11.8v15.8c0,1-0.8,1.8-1.8,1.8H22.8c-1,0-1.8-0.8-1.8-1.8V11.8c0-1,0.8-1.8,1.8-1.8H51
					C52,10,52.8,10.8,52.8,11.8L52.8,11.8L52.8,11.8z"/>
				<polyline class="st3" points="52.8,14.1 52.8,18.8 21,18.8 21,14.1 52.8,14.1 				"/>
				<path class="st7" d="M2.8,21.2v21.2c-1.4,0-2.6-1.2-2.6-2.6v-21c0,1.4,1.1,2.5,2.5,2.5L2.8,21.2z"/>
				<path class="st6" d="M52.8,18.8H39l3.2,10.6H51c1,0,1.8-0.8,1.8-1.8l0,0L52.8,18.8L52.8,18.8z M51,10H36.3l1.3,4.1h15.2v-2.3
					C52.8,10.8,52,10,51,10z"/>
				<path class="st4" d="M31.2,23.8v16c0,0,0,0.1,0,0.1c-0.1,1.4-1.2,2.5-2.6,2.5H2.8c-1.4,0-2.6-1.2-2.6-2.6c0,0,0,0,0,0v-21
					c0,1.4,1.1,2.5,2.5,2.5h25.9C30,21.2,31.2,22.3,31.2,23.8z"/>
				<circle class="st1" cx="26.2" cy="31.8" r="2.1"/>
				<path class="st4" d="M2.8,21.2v21.2c-1.4,0-2.6-1.2-2.6-2.6v-21c0,1.4,1.1,2.5,2.5,2.5L2.8,21.2z"/>
			</g>
		</g>
	</g>
</g>
</svg>
