<?xml version="1.0" encoding="utf-8"?>
<!-- Generator: Adobe Illustrator 23.0.2, SVG Export Plug-In . SVG Version: 6.00 Build 0)  -->
<svg version="1.1" id="Capa_1" xmlns="http://www.w3.org/2000/svg" xmlns:xlink="http://www.w3.org/1999/xlink" x="0px" y="0px"
	 viewBox="0 0 50.5 52.6" style="enable-background:new 0 0 50.5 52.6;" xml:space="preserve">
<style type="text/css">
	.st0{fill:#D75A4A;}
	.st1{fill:none;}
	.st2{fill:#4F83CC;}
	.st3{clip-path:url(#SVGID_2_);}
	.st4{fill:#126FAD;}
	.st5{fill:#063F7C;}
	.st6{fill:#01579B;}
	.st7{fill:#006CB5;}
</style>
<title>Para-salud</title>
<g>
	<g id="Capa_1-2">
		<path class="st0" d="M25.1,52.6L25.1,52.6c0.1,0,0.2,0,0.3,0C25.3,52.6,25.2,52.6,25.1,52.6z"/>
		<rect x="0" y="2.2" class="st1" width="50.5" height="50.5"/>
		<circle class="st2" cx="25.2" cy="27.6" r="25"/>
		<g>
			<defs>
				<circle id="SVGID_1_" cx="25.2" cy="27.6" r="25"/>
			</defs>
			<clipPath id="SVGID_2_">
				<use xlink:href="#SVGID_1_"  style="overflow:visible;"/>
			</clipPath>
			<g class="st3">
				<path class="st4" d="M19.4,18.3l-7.6,6.8L21.5,36l7.6-6.8c3-2.7,3.2-7.3,0.6-10.3c0,0,0,0,0,0l0,0C27,15.9,22.4,15.7,19.4,18.3z
					"/>
				<path class="st5" d="M4.3,31.9l7.6-6.8L21.5,36l-7.6,6.8c-3,2.7-7.6,2.4-10.2-0.6c0,0,0,0,0,0l0,0C1,39.2,1.3,34.6,4.3,31.9
					C4.2,31.9,4.3,31.9,4.3,31.9z"/>
				<path class="st6" d="M26.6,20.1l5.4,8.6l12.3-7.7l-5.4-8.6c-2.1-3.4-6.6-4.4-10-2.3l0,0C25.5,12.3,24.5,16.7,26.6,20.1z"/>
				<path class="st7" d="M37.4,37.4L32,28.8l12.3-7.7l5.4,8.6c2.1,3.4,1.1,7.8-2.3,10c0,0,0,0,0,0l0,0C44,41.9,39.6,40.9,37.4,37.4
					C37.4,37.4,37.4,37.4,37.4,37.4z"/>
			</g>
		</g>
	</g>
</g>
</svg>
