<?xml version="1.0" encoding="utf-8"?>
<!-- Generator: Adobe Illustrator 23.0.2, SVG Export Plug-In . SVG Version: 6.00 Build 0)  -->
<svg version="1.1" id="Capa_1" xmlns="http://www.w3.org/2000/svg" xmlns:xlink="http://www.w3.org/1999/xlink" x="0px" y="0px"
	 viewBox="0 0 48 48" style="enable-background:new 0 0 48 48;" xml:space="preserve">
<style type="text/css">
	.st0{fill:none;}
	.st1{fill:#4F83CC;}
	.st2{clip-path:url(#SVGID_2_);}
	.st3{fill:#063F7C;}
	.st4{fill:#01579B;}
	.st5{fill:#FFCE54;}
	.st6{fill:#79A8E0;}
</style>
<title>Para-polic</title>
<g>
	<g id="Capa_1-2">
		<rect class="st0" width="48" height="48"/>
		<circle class="st1" cx="24" cy="24" r="23.8"/>
		<g>
			<defs>
				<circle id="SVGID_1_" cx="24" cy="24" r="23.8"/>
			</defs>
			<clipPath id="SVGID_2_">
				<use xlink:href="#SVGID_1_"  style="overflow:visible;"/>
			</clipPath>
			<g class="st2">
				<path class="st3" d="M34.8,24.9v-2.4h4.2l3.6,4.8H5.3l3.6-4.8h4.2v2.4H34.8z"/>
				<path class="st4" d="M42.7,27.3v15H5.3v-15h7.8v10.8h21.7V27.3H42.7z"/>
				<path class="st4" d="M16.8,29.7h2.4v2.4h-2.4V29.7z"/>
				<path class="st4" d="M34.8,27.3v10.8H13.1V27.3H34.8z M19.2,32.1v-2.4h-2.4v2.4H19.2z"/>
				<path class="st1" d="M35.4,24.3H12.6c-0.3,0-0.6,0.3-0.6,0.6s0.3,0.6,0.6,0.6l0,0h22.9c0.3,0,0.6-0.3,0.6-0.6
					S35.8,24.3,35.4,24.3z"/>
				<path class="st3" d="M34.8,12.2h-3.6V8.6L34.8,12.2z"/>
				<path class="st5" d="M16.8,15.2h2.4v2.4h-2.4V15.2z"/>
				<path class="st6" d="M34.8,22.5v3H13.2V8.6h18.1v3.6h3.6V22.5z M19.2,17.6v-2.4h-2.4v2.4L19.2,17.6z"/>
				<path class="st1" d="M16.8,18.2h2.4c0.3,0,0.6-0.3,0.6-0.6l0,0v-2.4c0-0.3-0.3-0.6-0.6-0.6l0,0h-2.4c-0.3,0-0.6,0.3-0.6,0.6v0
					v2.4C16.2,18,16.4,18.2,16.8,18.2z"/>
				<path class="st1" d="M16.8,23.7h2.4c0.3,0,0.6-0.3,0.6-0.6l0,0v-2.4c0-0.3-0.3-0.6-0.6-0.6c0,0,0,0,0,0h-2.4
					c-0.3,0-0.6,0.3-0.6,0.6c0,0,0,0,0,0v2.4C16.2,23.4,16.4,23.7,16.8,23.7L16.8,23.7z"/>
				<path class="st1" d="M22.8,17h8.4c0.3,0,0.6-0.3,0.5-0.7c0-0.3-0.3-0.5-0.5-0.5h-8.4c-0.3,0-0.6,0.3-0.5,0.7
					C22.3,16.7,22.5,17,22.8,17z"/>
				<path class="st1" d="M22.8,22.5h8.4c0.3,0,0.6-0.3,0.6-0.6s-0.3-0.6-0.6-0.6h-8.4c-0.3,0-0.6,0.3-0.6,0.6S22.5,22.5,22.8,22.5
					L22.8,22.5z"/>
				<path class="st4" d="M17.5,22.9L17.5,22.9c0.1,0.1,0.3,0.2,0.4,0.2c0.2,0,0.3-0.1,0.4-0.2l0,0l1.8-1.8c0.2-0.2,0.2-0.6,0-0.9
					c-0.2-0.2-0.6-0.2-0.8,0c0,0,0,0,0,0L18,21.6l-0.2-0.2c-0.2-0.2-0.6-0.2-0.9,0s-0.2,0.6,0,0.9L17.5,22.9z"/>
			</g>
		</g>
	</g>
</g>
</svg>
