<?xml version="1.0" encoding="utf-8"?>
<!-- Generator: Adobe Illustrator 23.0.2, SVG Export Plug-In . SVG Version: 6.00 Build 0)  -->
<svg version="1.1" id="Capa_1" xmlns="http://www.w3.org/2000/svg" xmlns:xlink="http://www.w3.org/1999/xlink" x="0px" y="0px"
	 viewBox="0 0 138.3 146.9" style="enable-background:new 0 0 138.3 146.9;" xml:space="preserve">
<style type="text/css">
	.st0{fill:#1E3853;}
</style>
<title>Recurso 17svg</title>
<g>
	<g id="Layer_1">
		<path class="st0" d="M138.3,86.4v-8.6c-0.1-14.3-11.6-25.8-25.9-25.9H77.9V32.3c8.3-4.8,11.1-15.4,6.2-23.7
			C79.3,0.3,68.7-2.5,60.4,2.3c-8.2,4.9-11,15.4-6.2,23.7c1.5,2.6,3.6,4.7,6.2,6.2v19.7H25.9C11.6,52,0.1,63.5,0,77.8V121
			c0.1,14.3,11.6,25.8,25.9,25.9h86.3c14.3-0.1,25.8-11.6,25.9-25.9v-8.6L138.3,86.4L138.3,86.4z M52,99.5c0,7.2-5.8,13-13,13
			s-13-5.8-13-13s5.8-13,13-13l0,0C46.2,86.5,52,92.3,52,99.5z M112.4,99.5c0,7.2-5.8,13-13,13s-13-5.8-13-13s5.8-13,13-13l0,0
			C106.6,86.5,112.4,92.3,112.4,99.5L112.4,99.5z"/>
	</g>
</g>
</svg>
