<?xml version="1.0" encoding="utf-8"?>
<!-- Generator: Adobe Illustrator 23.0.2, SVG Export Plug-In . SVG Version: 6.00 Build 0)  -->
<svg version="1.1" id="Capa_1" xmlns="http://www.w3.org/2000/svg" xmlns:xlink="http://www.w3.org/1999/xlink" x="0px" y="0px"
	 viewBox="0 0 161.9 161.4" style="enable-background:new 0 0 161.9 161.4;" xml:space="preserve">
<style type="text/css">
	.st0{fill:#1E3853;}
</style>
<title>Recurso 13svg</title>
<g>
	<g id="Layer_1">
		<path class="st0" d="M59,137.9c-1,0-1.9-0.3-2.7-1L25,105.5c-1-1.1-1.4-2.6-1-4c10.6-27.4,26.8-52.3,47.6-73.1l1-1
			C94.7,5.3,126.4-4.3,157,1.9c1.5,0.3,2.7,1.5,3,3c6.3,30.6-3.3,62.4-25.5,84.4l-1,1c-20.8,20.8-45.7,37.1-73.2,47.7L59,137.9z
			 M31.9,101.9L59.7,130c25.5-10.2,48.7-25.6,68.2-45l1-1c19.8-19.6,28.8-47.7,24.2-75.2C125.6,4.2,97.5,13.2,77.9,33l-1,1
			C57.4,52.9,42.2,76.4,31.9,101.9L31.9,101.9z"/>
		<path class="st0" d="M112.3,34.3c4,0,7.8,1.6,10.6,4.3c5.9,5.9,5.9,15.3,0,21.2s-15.3,5.9-21.2,0s-5.9-15.3,0-21.2c0,0,0,0,0,0
			C104.6,35.9,108.4,34.4,112.3,34.3 M112.3,26.7c-12.4,0-22.5,10.1-22.5,22.5s10.1,22.5,22.5,22.5s22.5-10.1,22.5-22.5v0
			C134.8,36.8,124.8,26.8,112.3,26.7z"/>
		<path class="st0" d="M24.6,140.9c-1,0-1.9-0.3-2.6-1c-1.3-1.5-1.3-3.8,0-5.3l37.7-37.7c1.4-1.6,3.8-1.7,5.3-0.3
			c1.6,1.4,1.7,3.8,0.3,5.3l0,0l-0.3,0.3l-37.7,37.7C26.5,140.5,25.6,140.9,24.6,140.9z"/>
		<path class="st0" d="M97.8,147.9c-0.7-0.1-1.4-0.3-2-0.7l-25.5-15.6c-1.8-1.2-2.3-3.6-1.1-5.4c1.1-1.7,3.3-2.2,5.1-1.3l21.8,13.3
			l17.6-40.1c0.8-1.9,3.1-2.8,5-2s2.8,3.1,2,5l0,0l-19.5,44c-0.4,1-1.3,1.7-2.3,2C98.8,147.5,98.4,147.9,97.8,147.9z"/>
		<path class="st0" d="M33.2,93.3c-1.3,0-2.5-0.6-3.3-1.7L14.7,66.1c-0.9-1.8-0.4-4.1,1.3-5.3c0.2,0,0.3-0.1,0.3-0.3c0,0,0,0,0,0
			l44-19.5c1.7-0.9,3.9-0.2,4.8,1.5c0.1,0.2,0.2,0.3,0.2,0.5c1,2,0,4-2,5l0,0l-40,17.5l12.8,21.8c1.1,1.7,0.6,3.9-1,5
			C34.9,93.3,33.9,93.3,33.2,93.3z"/>
		<path class="st0" d="M3.8,140.3c-1,0-1.9-0.3-2.7-1c-1.5-1.4-1.5-3.8-0.1-5.2c0,0,0,0,0.1-0.1l0,0l17.5-17.5
			c1.5-1.4,3.8-1.3,5.2,0.2c0,0,0.1,0.1,0.1,0.1c1.4,1.4,1.4,3.6,0,5L6.4,139.3C5.7,139.9,4.7,140.3,3.8,140.3z"/>
		<path class="st0" d="M25.3,161.4c-1,0-1.9-0.3-2.6-1c-1.3-1.5-1.3-3.8,0-5.3l17.5-17.6c1.8-1,4-0.4,5,1.3c0.7,1.2,0.7,2.8,0,4
			l-17.9,17.5C26.9,161.2,26.1,161.5,25.3,161.4z"/>
	</g>
</g>
</svg>
