<?xml version="1.0" encoding="utf-8"?>
<!-- Generator: Adobe Illustrator 23.0.2, SVG Export Plug-In . SVG Version: 6.00 Build 0)  -->
<svg version="1.1" id="Capa_1" xmlns="http://www.w3.org/2000/svg" xmlns:xlink="http://www.w3.org/1999/xlink" x="0px" y="0px"
	 viewBox="0 0 186.4 137" style="enable-background:new 0 0 186.4 137;" xml:space="preserve">
<style type="text/css">
	.st0{fill:#1E3853;}
</style>
<title>Recurso 12svg</title>
<g>
	<g id="Layer_1">
		<circle class="st0" cx="182.1" cy="132.4" r="4.3"/>
		<circle class="st0" cx="5.6" cy="132.4" r="4.3"/>
		<circle class="st0" cx="4.3" cy="102.9" r="4.3"/>
		<rect x="5.6" y="128.1" class="st0" width="176.4" height="8.9"/>
		<circle class="st0" cx="167.5" cy="57.6" r="4.3"/>
		<rect x="163.2" y="57.6" class="st0" width="8.9" height="74.5"/>
		<circle class="st0" cx="120.8" cy="74.8" r="4.3"/>
		<rect x="116.5" y="75.1" class="st0" width="8.9" height="56.9"/>
		<circle class="st0" cx="74.2" cy="111.2" r="4.3"/>
		<rect x="69.8" y="111.6" class="st0" width="8.9" height="20.5"/>
		<circle class="st0" cx="27.5" cy="124.8" r="4.3"/>
		<rect x="23.2" y="125.1" class="st0" width="8.9" height="7"/>
		<path class="st0" d="M7.3,107.2H4l0.7-8.9c0.7,0,78.8,4.3,149.6-92.7l7.3,5.3C95.3,102,23.8,107.2,7.3,107.2z"/>
		<circle class="st0" cx="161.5" cy="36.9" r="4.3"/>
		<circle class="st0" cx="127.4" cy="11.4" r="4.3"/>
		<polygon class="st0" points="165.8,37.1 156.9,37.1 157.2,10.6 128.1,15.9 126.4,7.3 166.2,0 		"/>
	</g>
</g>
</svg>
