<?xml version="1.0" encoding="utf-8"?>
<!-- Generator: Adobe Illustrator 23.0.2, SVG Export Plug-In . SVG Version: 6.00 Build 0)  -->
<svg version="1.1" id="Capa_1" xmlns="http://www.w3.org/2000/svg" xmlns:xlink="http://www.w3.org/1999/xlink" x="0px" y="0px"
	 viewBox="0 0 2947.2 889.8" style="enable-background:new 0 0 2947.2 889.8;" xml:space="preserve">
<style type="text/css">
	.st0{fill:#C2D0DE;}
	.st1{fill:#E6ECF1;}
	.st2{opacity:0.29;fill:#E6ECF1;enable-background:new    ;}
	.st3{opacity:0.29;fill:#C2D0DE;enable-background:new    ;}
	.st4{fill:#BB4D00;}
	.st5{fill:#FFFFFF;}
	.st6{fill:#4E587F;}
	.st7{fill:#4F83CC;}
	.st8{fill:#FFAD42;}
	.st9{fill:none;stroke:#002F6C;stroke-linecap:round;stroke-linejoin:round;stroke-miterlimit:10;}
	.st10{fill:#F57C00;}
	.st11{fill:#454F78;}
	.st12{fill:#393762;}
	.st13{fill:#01579B;}
	.st14{fill:#002F6C;}
	.st15{fill:#AFAFAF;}
	.st16{fill:#061D35;}
	.st17{fill:#E48868;}
	.st18{fill:none;stroke:#49478A;stroke-width:0.5;stroke-linecap:round;stroke-miterlimit:10;}
	.st19{fill:#77370C;}
	.st20{fill:none;stroke:#000000;stroke-miterlimit:10;}
</style>
<title>Recurso 1svg</title>
<g>
	<g>
		<path class="st0" d="M2032.8,368.1c1.5,0,2.8-1.5,2.8-3.4s-1.3-3.4-2.8-3.4s-2.8,1.5-2.8,3.4S2031.2,368.1,2032.8,368.1z"/>
		<polygon class="st0" points="2111.2,671.3 2063.6,671.3 2063.6,451.9 2067.8,451.9 2067.8,441.2 2058.3,441.2 2058.3,427.3 
			2047.3,427.3 2047.3,422.1 2047.4,422.1 2047.4,392.5 2034.2,392.5 2034.2,368.3 2031.1,368.3 2031.1,392.5 2024,392.5 
			2019.7,406.2 1990.8,406.2 1990.8,427.3 1915.4,427.3 1915.4,441.2 1905.8,441.2 1905.8,451.9 1910.3,451.9 1910.3,594.5 
			1847.1,594.5 1847.1,828.5 1910.3,828.5 1910.3,828.6 2063.6,828.6 2063.6,828.5 2111.2,828.5 		"/>
	</g>
	<path class="st0" d="M442.8,289.9v-18.4H322.1v-28h-45.8l-6.8-18.5h-11.6v-32.8h-1.2c2-0.5,3.5-2.3,3.5-4.4c0-2.5-2-4.6-4.6-4.6
		c-2.5,0-4.6,2-4.6,4.6c0,2.2,1.5,4,3.5,4.4h-1.6V225h-21.1v18.5v21.1v6.8h-17.3v18.4h-15.4v14.3h7.2v505.1h244.6v-505h6.7v-14.3
		L442.8,289.9L442.8,289.9z"/>
	<polygon class="st0" points="755.8,310.7 732.5,310.7 732.5,279.6 735.5,279.6 735.5,274.8 714.3,274.8 714.3,255.1 706.8,255.1 
		706.8,236.1 698.3,236.1 696.8,236.1 696.8,175.9 695.9,175.9 694.7,175.9 693.5,175.9 693.5,236.1 689.3,236.1 689.3,202.5 
		688.4,202.5 687.2,202.5 686,202.5 686,236.1 676,236.1 676,255.1 668.7,255.1 668.7,274.8 647.3,274.8 647.3,279.6 650.3,279.6 
		650.3,310.7 627,310.7 627,315.8 630.3,315.8 630.3,797.9 752.4,797.9 752.4,315.8 755.8,315.8 	"/>
	<polygon class="st0" points="2737.2,174.9 2697.9,174.9 2697.9,122.3 2702.9,122.3 2702.9,114.2 2667.1,114.2 2667.1,80.9 
		2590,80.9 2590,114.2 2553.9,114.2 2553.9,122.3 2558.9,122.3 2558.9,174.9 2519.5,174.9 2519.5,183.5 2525.1,183.5 2525.1,889.8 
		2731.5,889.8 2731.5,183.5 2737.2,183.5 	"/>
	<polygon class="st0" points="1289.5,265.1 1254.8,265.1 1254.8,219.1 1259.2,219.1 1259.2,212.1 1227.6,212.1 1227.6,183 
		1159.6,183 1159.6,212.1 1127.6,212.1 1127.6,219.1 1132.1,219.1 1132.1,265.1 1097.4,265.1 1097.4,272.6 1102.3,272.6 
		1102.3,889.6 1284.4,889.6 1284.4,272.6 1289.5,272.6 	"/>
	<polygon class="st1" points="616.1,426 616.1,236 584.2,236 584.2,185.3 572.8,185.3 572.8,110.5 510.3,110.5 510.3,55.8 
		504.6,55.8 504.6,110.5 492.4,110.5 492.4,41.8 486.9,41.8 486.9,110.5 447.2,110.5 447.2,236 426.8,236 426.8,426 409.3,426 
		409.3,772 628.4,772 628.4,426 	"/>
	<polygon class="st1" points="908.1,548.2 908.1,884.3 1120.9,884.3 1120.9,548.2 1103.9,548.2 1103.9,363.7 1084,363.7 1084,241.7 
		1045.5,241.7 1045.5,175 1040.2,175 1040.2,241.7 1028.3,241.7 1028.3,188.6 1022.8,188.6 1022.8,241.7 962.1,241.7 962.1,314.4 
		951,314.4 951,363.7 920,363.7 920,548.2 	"/>
	<polygon class="st1" points="1734.6,748.8 1734.6,889 1947.4,889 1947.4,748.8 1930.4,748.8 1930.4,564.9 1910.5,564.9 
		1910.5,443.4 1849.3,390.5 1788.6,443.4 1788.6,515.8 1777.5,515.8 1777.5,564.9 1746.5,564.9 1746.5,748.8 	"/>
	<rect x="2412.2" y="337.1" class="st1" width="120.3" height="478.7"/>
	<rect x="2431.9" y="302.9" class="st1" width="81" height="201.3"/>
	<rect x="2450" y="281.2" class="st1" width="45" height="111.6"/>
	<polygon class="st1" points="2487.6,338.6 2457.2,338.6 2457.2,262.4 2468.2,262.4 2479.2,262.4 2487.6,262.4 	"/>
	<polygon class="st1" points="2470.3,305.3 2467,305.3 2467,229.4 2468.2,229.4 2469.4,229.4 2470.3,229.4 	"/>
	<polygon class="st1" points="2477.7,279.1 2474.5,279.1 2474.5,203.2 2475.6,203.2 2476.8,203.2 2477.7,203.2 	"/>
	<rect x="2408.9" y="335.9" class="st1" width="126.8" height="5.1"/>
	<rect x="2428.9" y="300.5" class="st1" width="86.9" height="4.8"/>
	<rect x="2446.8" y="279.1" class="st1" width="50" height="3.9"/>
	<rect x="2439.3" y="310.9" class="st2" width="3.9" height="21.1"/>
	<rect x="2449.7" y="310.9" class="st2" width="3.9" height="21.1"/>
	<rect x="2460.2" y="310.9" class="st2" width="3.9" height="21.1"/>
	<rect x="2470.6" y="310.9" class="st2" width="3.9" height="21.1"/>
	<rect x="2481" y="310.9" class="st2" width="3.9" height="21.1"/>
	<rect x="2491.4" y="310.9" class="st2" width="3.9" height="21.1"/>
	<rect x="2501.8" y="310.9" class="st2" width="3.9" height="21.1"/>
	<rect x="2422.9" y="356.2" class="st1" width="9.2" height="25"/>
	<rect x="2440.8" y="356.2" class="st2" width="9.2" height="25"/>
	<rect x="2459" y="356.2" class="st1" width="9.2" height="25"/>
	<rect x="2476.8" y="356.2" class="st1" width="9.2" height="25"/>
	<rect x="2495" y="356.2" class="st1" width="9.2" height="25"/>
	<rect x="2512.9" y="356.2" class="st1" width="9.2" height="25"/>
	<rect x="2422.9" y="395.2" class="st1" width="9.2" height="25"/>
	<rect x="2440.8" y="395.2" class="st1" width="9.2" height="25"/>
	<rect x="2459" y="395.2" class="st1" width="9.2" height="25"/>
	<rect x="2476.8" y="395.2" class="st2" width="9.2" height="25"/>
	<rect x="2495" y="395.2" class="st1" width="9.2" height="25"/>
	<rect x="2512.9" y="395.2" class="st1" width="9.2" height="25"/>
	<rect x="2422.9" y="434.2" class="st1" width="9.2" height="25"/>
	<rect x="2440.8" y="434.2" class="st1" width="9.2" height="25"/>
	<rect x="2459" y="434.2" class="st1" width="9.2" height="25"/>
	<rect x="2476.8" y="434.2" class="st1" width="9.2" height="25"/>
	<rect x="2495" y="434.2" class="st2" width="9.2" height="25"/>
	<rect x="2512.9" y="434.2" class="st2" width="9.2" height="25"/>
	<rect x="2422.9" y="473.2" class="st2" width="9.2" height="25"/>
	<rect x="2440.8" y="473.2" class="st1" width="9.2" height="25"/>
	<rect x="2459" y="473.2" class="st1" width="9.2" height="25"/>
	<rect x="2476.8" y="473.2" class="st1" width="9.2" height="25"/>
	<rect x="2495" y="473.2" class="st1" width="9.2" height="25"/>
	<rect x="2512.9" y="473.2" class="st1" width="9.2" height="25"/>
	<rect x="2422.9" y="512.2" class="st1" width="9.2" height="25"/>
	<rect x="2440.8" y="512.2" class="st2" width="9.2" height="25"/>
	<rect x="2459" y="512.2" class="st1" width="9.2" height="25"/>
	<rect x="2476.8" y="512.2" class="st2" width="9.2" height="25"/>
	<rect x="2495" y="512.2" class="st1" width="9.2" height="25"/>
	<rect x="2512.9" y="512.2" class="st1" width="9.2" height="25"/>
	<rect x="2422.9" y="551.2" class="st1" width="9.2" height="25"/>
	<rect x="2440.8" y="551.2" class="st1" width="9.2" height="25"/>
	<rect x="2459" y="551.2" class="st1" width="9.2" height="25"/>
	<rect x="2476.8" y="551.2" class="st1" width="9.2" height="25"/>
	<rect x="2495" y="551.2" class="st1" width="9.2" height="25"/>
	<rect x="2512.9" y="551.2" class="st2" width="9.2" height="25"/>
	<rect x="2422.9" y="590.2" class="st1" width="9.2" height="25"/>
	<rect x="2440.8" y="590.2" class="st2" width="9.2" height="25"/>
	<rect x="2459" y="590.2" class="st2" width="9.2" height="25"/>
	<rect x="2476.8" y="590.2" class="st1" width="9.2" height="25"/>
	<rect x="2495" y="590.2" class="st1" width="9.2" height="25"/>
	<rect x="2512.9" y="590.2" class="st1" width="9.2" height="25"/>
	<rect x="2422.9" y="629.2" class="st1" width="9.2" height="25"/>
	<rect x="2440.8" y="629.2" class="st1" width="9.2" height="25"/>
	<rect x="2459" y="629.2" class="st1" width="9.2" height="25"/>
	<rect x="2476.8" y="629.2" class="st1" width="9.2" height="25"/>
	<rect x="2495" y="629.2" class="st2" width="9.2" height="25"/>
	<rect x="2512.9" y="629.2" class="st1" width="9.2" height="25"/>
	<rect x="2422.9" y="668.2" class="st1" width="9.2" height="25"/>
	<rect x="2440.8" y="668.2" class="st2" width="9.2" height="25"/>
	<rect x="2459" y="668.2" class="st1" width="9.2" height="25"/>
	<rect x="2476.8" y="668.2" class="st1" width="9.2" height="25"/>
	<rect x="2495" y="668.2" class="st1" width="9.2" height="25"/>
	<rect x="2512.9" y="668.2" class="st1" width="9.2" height="25"/>
	<rect x="2422.9" y="707.2" class="st1" width="9.2" height="25"/>
	<rect x="2440.8" y="707.2" class="st1" width="9.2" height="25"/>
	<rect x="2459" y="707.2" class="st1" width="9.2" height="25"/>
	<rect x="2476.8" y="707.2" class="st2" width="9.2" height="25"/>
	<rect x="2495" y="707.2" class="st1" width="9.2" height="25"/>
	<rect x="2512.9" y="707.2" class="st2" width="9.2" height="25"/>
	<rect x="2422.9" y="746.2" class="st2" width="9.2" height="25"/>
	<rect x="2440.8" y="746.2" class="st1" width="9.2" height="25"/>
	<rect x="2459" y="746.2" class="st2" width="9.2" height="25"/>
	<rect x="2476.8" y="746.2" class="st1" width="9.2" height="25"/>
	<rect x="2495" y="746.2" class="st1" width="9.2" height="25"/>
	<rect x="2512.9" y="746.2" class="st1" width="9.2" height="25"/>
	<g>
		<rect x="2228.5" y="355.3" class="st1" width="193.2" height="403.4"/>
		<rect x="2222.8" y="348.4" class="st1" width="204.2" height="11.3"/>
		<rect x="2235" y="333.9" class="st1" width="180.4" height="54.2"/>
		<rect x="2248.7" y="311.8" class="st1" width="71.4" height="59.2"/>
		<polygon class="st1" points="2290.1,328.5 2248.7,328.5 2248.7,297.2 2278.5,297.2 		"/>
		<rect x="2265.4" y="271.3" class="st1" width="3.9" height="69.4"/>
		<circle class="st1" cx="2267.5" cy="267.8" r="3.6"/>
	</g>
	<rect x="275.3" y="401.5" class="st0" width="134.9" height="427.3"/>
	<rect x="265.3" y="404.1" class="st0" width="152.5" height="4.2"/>
	<rect x="269.3" y="464" class="st0" width="146.7" height="4.2"/>
	<rect x="269.3" y="521.9" class="st0" width="146.7" height="4.2"/>
	<rect x="269.3" y="580.1" class="st0" width="146.7" height="4.2"/>
	<rect x="269.3" y="638.4" class="st0" width="146.7" height="4.2"/>
	<rect x="269.3" y="696.3" class="st0" width="144" height="4.2"/>
	<rect x="269.3" y="754.6" class="st0" width="144" height="4.2"/>
	<rect x="260.2" y="392.2" class="st0" width="162.3" height="11.8"/>
	<rect x="287" y="422.3" class="st3" width="13.8" height="34"/>
	<rect x="317.9" y="422.3" class="st0" width="13.8" height="34"/>
	<rect x="348.6" y="422.3" class="st0" width="13.8" height="34"/>
	<rect x="379.5" y="422.3" class="st0" width="13.8" height="34"/>
	<rect x="287" y="478" class="st0" width="13.8" height="34"/>
	<rect x="317.9" y="478" class="st3" width="13.8" height="34"/>
	<rect x="348.6" y="478" class="st0" width="13.8" height="34"/>
	<rect x="379.5" y="478" class="st0" width="13.8" height="34"/>
	<rect x="287" y="536.3" class="st0" width="13.8" height="34"/>
	<rect x="317.9" y="536.3" class="st0" width="13.8" height="34"/>
	<rect x="348.6" y="536.3" class="st0" width="13.8" height="34"/>
	<rect x="379.5" y="536.3" class="st3" width="13.8" height="34"/>
	<rect x="287" y="594.2" class="st0" width="13.8" height="34"/>
	<rect x="317.9" y="594.2" class="st3" width="13.8" height="34"/>
	<rect x="348.6" y="594.2" class="st3" width="13.8" height="34"/>
	<rect x="379.5" y="594.2" class="st0" width="13.8" height="34"/>
	<rect x="287" y="652.4" class="st3" width="13.8" height="34"/>
	<rect x="317.9" y="652.4" class="st0" width="13.8" height="34"/>
	<rect x="348.6" y="652.4" class="st0" width="13.8" height="34"/>
	<rect x="379.5" y="652.4" class="st0" width="13.8" height="34"/>
	<rect x="287" y="710.7" class="st0" width="13.8" height="34"/>
	<rect x="317.9" y="710.7" class="st0" width="13.8" height="34"/>
	<rect x="348.6" y="710.7" class="st3" width="13.8" height="34"/>
	<rect x="379.5" y="710.7" class="st0" width="13.8" height="34"/>
	<rect x="287" y="768.6" class="st0" width="13.8" height="34"/>
	<rect x="317.9" y="768.6" class="st3" width="13.8" height="34"/>
	<rect x="348.6" y="768.6" class="st0" width="13.8" height="34"/>
	<rect x="379.5" y="768.6" class="st3" width="13.8" height="34"/>
	<rect x="283.6" y="375.9" class="st0" width="45" height="22.2"/>
	<rect x="280.5" y="375.1" class="st0" width="51.2" height="3.7"/>
	<rect x="114" y="633" class="st0" width="129.1" height="195.8"/>
	<rect x="73.5" y="756.5" class="st0" width="147.1" height="72"/>
	<rect x="235.8" y="802.9" class="st0" width="95.6" height="25.9"/>
	<rect x="383.5" y="756.5" class="st0" width="155.6" height="72"/>
	<rect x="445.4" y="567.5" class="st0" width="198.4" height="261"/>
	<rect x="440.4" y="557.6" class="st0" width="210.1" height="10.1"/>
	<rect x="545.2" y="530.5" class="st0" width="85.2" height="52.9"/>
	<rect x="503.3" y="530.5" class="st0" width="14.3" height="32.1"/>
	<rect x="473.3" y="530.5" class="st0" width="15.8" height="32.1"/>
	<rect x="772.4" y="447.4" class="st1" width="153.3" height="381.2"/>
	<rect x="767.9" y="441.2" class="st1" width="162" height="10.7"/>
	<rect x="777.5" y="427.3" class="st1" width="142.9" height="51.2"/>
	<rect x="852.9" y="406.2" class="st1" width="56.5" height="56"/>
	<polygon class="st1" points="876.9,422.1 909.5,422.1 909.5,392.5 886.1,392.5 	"/>
	<rect x="893.2" y="368.3" class="st1" width="3.1" height="65.5"/>
	<ellipse class="st1" cx="894.9" cy="364.7" rx="2.8" ry="3.4"/>
	<rect x="904.7" y="671.3" class="st0" width="73.2" height="157.2"/>
	<rect x="698" y="594.5" class="st0" width="89.4" height="234"/>
	<polygon class="st0" points="748.3,828.5 638,828.5 638,703.4 731.2,744.7 	"/>
	<rect x="950.8" y="760.7" class="st0" width="168.5" height="68.1"/>
	<rect x="1056.9" y="557.4" class="st0" width="97.9" height="271.5"/>
	<rect x="1131.7" y="777.9" class="st0" width="162" height="50.6"/>
	<rect x="1051.8" y="548" class="st0" width="107.2" height="13.3"/>
	<rect x="1139.6" y="514.1" class="st0" width="2.2" height="54.6"/>
	<rect x="1125.3" y="521.1" class="st0" width="2.2" height="43.9"/>
	<polygon class="st0" points="1190.8,659.5 1147.2,659.5 1147.2,783.8 1209.6,783.8 	"/>
	<polygon class="st0" points="2349.7,433.4 2349.7,437.6 2345.5,437.6 2345.5,449.7 2419.4,449.7 2419.4,819.9 2298.2,819.9 
		2298.2,469.1 2298.2,449.7 2298.2,437.6 2293.7,437.6 2293.7,433.4 	"/>
	<rect x="2556" y="601.3" class="st0" width="103.8" height="218.3"/>
	<rect x="2103.8" y="551.5" class="st0" width="84.4" height="268.4"/>
	<rect x="2171.3" y="607.5" class="st0" width="92" height="212.4"/>
	<rect x="2134.2" y="540.9" class="st0" width="37.4" height="32.1"/>
	<rect x="1190.4" y="588.2" class="st0" width="84.4" height="268.4"/>
	<rect x="1257.9" y="644.2" class="st0" width="92" height="212.4"/>
	<rect x="1220.8" y="577.6" class="st0" width="37.4" height="32.1"/>
	<rect x="2653.4" y="424.5" class="st1" width="132.4" height="393.8"/>
	<rect x="2692.2" y="408.9" class="st1" width="54.9" height="47.1"/>
	<rect x="2177.8" y="604.1" class="st0" width="98.2" height="7.9"/>
	<rect x="2253.5" y="698.7" class="st0" width="103.2" height="121.2"/>
	<rect x="1920.1" y="599.9" class="st0" width="83.8" height="220"/>
	<rect x="1847.3" y="709.6" class="st0" width="110.3" height="110.3"/>
	<rect x="974.2" y="599.9" class="st0" width="83.8" height="220"/>
	<polygon class="st1" points="1732.8,548.2 1732.8,363.7 1701.8,363.7 1701.8,314.4 1690.7,314.4 1690.7,241.7 1568.8,241.7 
		1568.8,363.7 1548.9,363.7 1548.9,548.2 1531.9,548.2 1531.9,884.3 1744.7,884.3 1744.7,548.2 	"/>
	<polygon class="st1" points="1298.9,620.4 1298.9,761.2 1509.6,761.2 1509.6,620.4 1492.7,620.4 1492.7,435.9 1472.8,435.9 
		1472.8,314 1411.5,260.8 1350.8,314 1350.8,386.6 1339.7,386.6 1339.7,435.9 1308.8,435.9 1308.8,620.4 	"/>
	<rect x="1396.2" y="447.4" class="st0" width="153.3" height="381.2"/>
	<rect x="1391.7" y="441.2" class="st0" width="162" height="10.7"/>
	<rect x="1401.3" y="427.3" class="st0" width="142.9" height="51.2"/>
	<rect x="1476.7" y="406.2" class="st0" width="56.5" height="56"/>
	<polygon class="st0" points="1500.7,422.1 1533.3,422.1 1533.3,392.5 1509.9,392.5 	"/>
	<rect x="1517" y="368.3" class="st0" width="3.1" height="65.5"/>
	<ellipse class="st0" cx="1518.7" cy="364.7" rx="2.8" ry="3.4"/>
	<rect x="1320.4" y="594.5" class="st0" width="90.8" height="234"/>
	<rect x="1680.7" y="557.4" class="st0" width="97.9" height="271.5"/>
	<rect x="1675.6" y="552.3" class="st0" width="107.2" height="9"/>
	<rect x="1763.4" y="514.1" class="st0" width="2.2" height="54.6"/>
	<rect x="1749.1" y="521.1" class="st0" width="2.2" height="43.9"/>
	<rect x="1598" y="599.9" class="st0" width="83.8" height="220"/>
	<rect x="901.4" y="709.6" class="st0" width="110.3" height="110.3"/>
	<rect x="1725.8" y="691.6" class="st0" width="68.9" height="128.3"/>
	<rect x="1781.5" y="779.7" class="st0" width="163.2" height="40.2"/>
	<rect x="1663.3" y="766.7" class="st0" width="83.6" height="53.2"/>
	<rect x="2003.9" y="738.9" class="st0" width="130" height="81.3"/>
	<rect x="2385.4" y="785" class="st0" width="202.5" height="34.9"/>
	<rect x="2744.3" y="785" class="st0" width="202.5" height="34.9"/>
	<polygon class="st0" points="2580.1,682.3 2503,682.3 2470.6,802.5 2580.1,802.5 	"/>
	<rect x="2615.5" y="507.4" class="st0" width="2.2" height="133.3"/>
	<rect x="2626.5" y="552.7" class="st0" width="2.8" height="78.8"/>
	<rect x="2628.9" y="707.4" class="st0" width="138.2" height="112.5"/>
	<rect x="2742.9" y="583.3" class="st0" width="138.5" height="217.2"/>
	<rect x="-0.3" y="814.9" class="st0" width="2947.9" height="75"/>
</g>
<g>
	<path class="st4" d="M512.5,606.5c-7.6,12.8-10.6,28.4-7.3,42.9c3.3,14.5,13.1,27.6,26.5,33.9c7.9,3.7,16.9,5,25.4,3.1
		c8.5-2,16.2-7.4,20.2-15.1c4.1-7.7,4.1-17.5-0.4-24.9c-3.4-5.5-9.1-9.6-11.8-15.5c-4.6-10.2,0.9-22.8-3.7-32.9
		c-4.2-9.3-16.2-13.4-26.1-10.8C525.5,589.9,517.7,597.7,512.5,606.5z"/>
	<g>
		<g>
			<path class="st5" d="M540.3,642.5c0,0,1.4-14.2,4.4-15.9c2-1.1,7,2.4,9,0.4c0.6-0.6,0.9-6,1.3-9.6c0.1-0.9,2.6,0.8,2.7-0.2
				c0.1-1.2-3.5-6.7-3.1-7.9c6.3-18.2-24.6-25.4-28.6-11c-2.5,9-0.1,19.3,7.4,26.2l-7.2,8.7L540.3,642.5z"/>
		</g>
	</g>
	<g>
		<g>
			<path class="st6" d="M472.9,856.5l-4.7,3.7c0,0,2.8,7.1,3.2,11c0.1,0.9-1.5,1.8-1.7,1.9L459,857.8l10-6.8L472.9,856.5z"/>
		</g>
	</g>
	<g>
		<g>
			<path class="st6" d="M564.7,877.7l0.3,6c0,0,7.4,1.8,10.9,3.6c0.8,0.4,0.6,2.3,0.6,2.5h-19.6L559,878L564.7,877.7z"/>
		</g>
	</g>
	<g>
		<g>
			<path class="st7" d="M531.8,776.7c0,0-1,40.5-1.8,41.6s-56.4,39-56.4,39l-5.9-6.5l42.4-47.5c0,0-5.8-49.3-6-65.9
				c0-1.3,0.3-5.1,0.3-5.1L531.8,776.7z"/>
		</g>
	</g>
	<g>
		<g>
			<path class="st7" d="M557.1,713.4l-3.4,17.8c0,0,7.1,51.5,7.4,55.7c0.3,4.1,6.4,92.3,6.4,92.3h-10.3L531.6,783
				c0,0-31-35.3-27.1-52c3.8-16.7,15.5-24.6,15.5-24.6L557.1,713.4z"/>
		</g>
	</g>
	<g>
		<g>
			<path class="st8" d="M504.7,719.4l53.5,4.8l-11.3-23.6c0,0,5.8-19.8,7.5-25.7c2.3-7.9,6.1-10.3-3-22.9c-7.2-10-9.5-12.7-9.5-12.7
				l2.1-5.9l-16.6-9.6l-2.1,8.2c0,0-9.3,12.6-11.7,17.1c-2.4,4.5-3.4,49.4-3,53.2L504.7,719.4z"/>
		</g>
	</g>
	<g>
		<g>
			<path class="st5" d="M520.3,642.9c-6.6,2-9.8,9.4-6.8,15.6c2.6,5.4,6.3,12.9,10,20.2c6.2-2.2,12.5-4.1,18.9-6l-8-22.7
				C532.3,644.2,526.1,641.1,520.3,642.9z"/>
		</g>
	</g>
	<g>
		<g>
			<polygon class="st8" points="576.1,693.5 581.4,702 579.3,702 574.7,693.7 			"/>
		</g>
	</g>
	<g>
		<g>
			<polygon class="st6" points="596.8,700.8 547,699.2 543.1,762.8 599.1,765.7 			"/>
		</g>
	</g>
	<g>
		<path d="M604.4,666.2l-5.4,10.2l0,0l-2.2,4.1l0,0l-0.4,0.7l-2.2,4.1l-1.4,2.7l-3.3-1l3.3-6.8l0,0l2.9-5.9l5.1-10.2L604.4,666.2z"
			/>
	</g>
	<g>
		<g>
			<path class="st5" d="M598.2,682.3l-4,3l0.8-3.1c0,0,0.3-0.7,0.5-1.3c0.1-0.3,0.2-0.5,0.2-0.6c0.1-0.3,1,0.2,1,0.2l0,0l0.5-1.2
				c0,0,1-2.5,1.7-2.9l0,0C599.6,676,599.1,680.9,598.2,682.3z"/>
		</g>
		<g>
			<path class="st5" d="M598.2,682.3c-0.4,0.7-4.9,7.6-6,8.1s-6.6,3.4-6.6,3.4c-0.9,0.2-47.5,10.1-49.4,8.6c-1-0.8-6.9-12-12.8-23.7
				c-3.7-7.3,18.9-6,18.9-6l5.1,14.3c2.5,0.1,36.2-0.4,36.2-0.4s2.2-5.4,3.4-6.5l2.2-1.5l2.4-5.3c1-1.8,1.7,1.3,1.8,1.9
				c0.1,1.2-0.4,4.5-0.4,4.8l0,0l-3.3,6.8l3.3,1l1.4-2.7L598.2,682.3z"/>
			<path class="st5" d="M598.2,682.3l-4,3l-1.4,2.7l-3.3-1l3.3-6.8c0,0,1.3,0.3,2.7,0.8c0.3,0.1,0.6,0.2,0.9,0.3
				C597.4,681.6,598.3,682,598.2,682.3z"/>
		</g>
	</g>
	<g>
		<g>
			<path class="st8" d="M573,686.7c-3.6-0.4-10.5,13-10.5,13h-2c0,0,6.9-12.4,10.5-13.8C572.3,685.3,573,686.7,573,686.7z"/>
		</g>
	</g>
	<path class="st4" d="M533.5,624.5c16.8-5.7,26.6-18.8,26.6-18.8l-4.8-11.8c0,0-23.3-12.7-33.4,3.6
		C511.7,613.8,533.5,624.5,533.5,624.5z"/>
	<g>
		<g>
			<path class="st5" d="M472.9,856.5l-4.7,3.7c0,0,1,2.4,1.4,3.9c0.1,0.5-0.7,1.1-1,1l-5.7-9.7l5.5-3.8L472.9,856.5z"/>
		</g>
	</g>
	<g>
		<g>
			<path class="st5" d="M565.9,879.2l-0.5,4.7c0,0,2.4,0.8,3.8,1.3c0.5,0.2,0.7,0.8,0.4,1l-11.8-0.5l1.1-6.5H565.9z"/>
		</g>
	</g>
	<g>
		<g>
			<path class="st9" d="M539.8,813.7l-8-30.1c0,0-31-35.3-27.1-52"/>
		</g>
	</g>
</g>
<g>
	<g>
		<g>
			<path class="st5" d="M1680.2,642l3-11.6c0,0,4.4,1.2,6.3-0.7c0.8-0.8,1.5-4.2,1.9-9.5c0-0.6,2.2,0.6,2.2,0c0-1.1-3.8-6.4-3.5-8.5
				c1.2-7.8,0.6-9.8-1.7-12c-5-4.9-22.5-5.6-24.9,2.9s-1.6,12.6,2.7,24.7l-2.6,12L1680.2,642z"/>
		</g>
	</g>
	<g>
		<path class="st10" d="M1663.3,629.6c0,0,10.6,3.3,15.9,9.4c5.3,6.1,13.9,23.7,14,25.7c0.2,2-2.7,23.7-2.7,23.7l9.5,57.7
			c0,0-40.7,6.3-61,0l10.6-47.7c0,0-1.5-16.8-3.2-18.7c-1.7-2,1.3-18.6,2.7-26.4c1.3-7.7,7.4-16.6,9.5-18.4
			C1660.7,633.2,1663.3,629.6,1663.3,629.6z"/>
	</g>
	<g>
		<path class="st11" d="M1671.7,762.6c-0.1,0-0.2,0-0.3-0.1c-0.2-0.2-0.3-0.5-0.2-0.7l5.7-8.9c0.2-0.2,0.5-0.3,0.7-0.2
			c0.2,0.2,0.3,0.5,0.2,0.7l-5.7,8.9C1672,762.6,1671.9,762.6,1671.7,762.6z"/>
	</g>
	<g>
		<path d="M1691.9,589c0.1,1-0.4,2.1-1.1,2.8c0.6-1.8-1.3-3.7-3.2-3.7c-1.9,0-3.2,1.1-4.3,2.7c0.5-0.8,1.9-0.6,2.3,0.3
			c0.4,0.9-0.1,1.9-0.9,2.5c-0.8,0.5-1.8,0.6-2.7,0.6c-2.2,0-4.4-0.6-6.6-1.2c-2.2-0.6-4.3-1.2-6.6-1.2c-2.2,0-4.5,0.6-6.1,2.2
			c-1.6,1.6-2.2,4.6-1.1,6.5c-5.6,2.3-1.7,12.1,0,16.4c1.7,4.3,4.7,10.4,4.7,10.4l5.7-5.6c0,0-4.4-5.1-2.5-7.4
			c1.9-2.3,3.9,1.3,3.9,1.3s0.6,10.8,2.1,11.4c1.5,0.6,10.3,7,14.1,5.6c3.8-1.4,1.7-12.4,1.7-12.4l-5.5-0.6c-5.1-0.6-8.8-5-8.7-10.1
			l0,0c0,0,6,2,7.1-3c4.2-0.6,9.2-2.3,10.8-6.2C1696.7,596.3,1695.4,591.3,1691.9,589z"/>
	</g>
	<g id="XMLID_101_">
		<g>
			<path class="st5" d="M1616.5,724.4c-0.9-1.5,13.7-21.2,15.2-23.1c-1.2-1.9-5.5-3.7-6.5-5.8c-6.3,11-18.9,29.3-19.5,30.8
				c-1.1,3.3-1.6,5.1,1.1,5.3s1.2,3.9,3.4,3.6c2.3-0.2,1.1,4.1,3.4,2.9c2.2-1.2,2-6.5,2-6.5S1620,729.9,1616.5,724.4z"/>
		</g>
	</g>
	<g>
		<path class="st10" d="M1655.7,639.1c-6.9,3.6-37.4,63.7-37.4,63.7l12.2,6.3c0,0,32.4-40.3,35.9-48.1
			C1669.9,653.1,1660.4,636.6,1655.7,639.1z"/>
	</g>
	<g>
		<path class="st10" d="M1699.4,681l-8.2-0.3c0,0-14.5-33.6-19.5-37.8c-5-4.1-6.3,35.2,1.9,47c8.3,11.8,13,9.3,28.9,3
			C1718.5,686.7,1699.4,681,1699.4,681z"/>
	</g>
	<g>
		<path class="st5" d="M1744.5,667.3c0.7-1.5,0.3-6.2-0.3-5.7c-0.6,0.4-1.1,3-1.1,3l-0.2,1.3c0,0-1-0.3-1,0s-0.4,1.9-0.4,1.9
			l-0.2,3.1L1744.5,667.3z"/>
	</g>
	<g>
		<polygon points="1737.1,673.2 1740.7,660 1743.6,649.5 1747.4,650.9 1740.4,673.6 		"/>
	</g>
	<g>
		<path class="st5" d="M1699.5,681l3,11.9c0,0,30.5-11.9,32.1-12.5c0,0,4.7-3.7,5.6-4.4s3.9-8,4.1-8.7s-5.4-1.1-5.4-1.1
			s-0.2-3.5-0.5-4.6c-0.2-0.6-1.5-3.4-2-1.5l-1.3,5.4l-1.8,1.8c-0.9,1.3-2,6.7-2,6.7L1699.5,681z"/>
	</g>
	<g>
		<path class="st4" d="M1686.7,699c-2.1,0-4.3-0.8-6.3-2.2c-2.4-1.7-4.1-4.1-5.7-6.4c-4.7-6.8-8.8-14-12.3-21.5
			c-2.3-4.9-4.4-10.2-4.6-15.8c-0.2-5.2,1.3-9.7,4-12c1.9-1.7,4.4-2.4,7.4-2c0.3,0,0.5,0.3,0.4,0.6c0,0.3-0.3,0.5-0.6,0.4
			c-2.7-0.4-4.9,0.2-6.6,1.7c-2.4,2.2-3.8,6.4-3.6,11.2c0.2,5.5,2.3,10.6,4.5,15.4c3.5,7.4,7.6,14.6,12.2,21.3
			c1.5,2.2,3.2,4.5,5.5,6.2c2.4,1.7,5.2,2.4,7.5,1.8c0.3-0.1,0.5,0.1,0.6,0.4c0.1,0.3-0.1,0.5-0.4,0.6
			C1688.1,698.9,1687.4,699,1686.7,699z"/>
	</g>
	<g>
		<g>
			<path class="st6" d="M1721.2,868.1l4.4,13.4c0,0,13.7,0.8,14.1,1.8l-19.7,5.4l-5.1-18.8L1721.2,868.1z"/>
		</g>
	</g>
	<g>
		<g>
			<polygon class="st6" points="1617.4,889.8 1606.1,889.8 1597.9,883.5 1608,866.8 1613.6,870.2 1607,882.6 1609,887.6 			"/>
		</g>
	</g>
	<g>
		<g>
			<polygon class="st7" points="1692.3,744.7 1726.5,877.5 1715,880.4 1687.7,809.9 1668.4,772.6 1646.9,828 1611,879.8 
				1602.6,873.8 1631.8,806.2 1641.3,744.7 			"/>
		</g>
	</g>
	<g>
		<g>
			<path class="st6" d="M1669.9,767.6c0.2,0,0.3-0.1,0.4-0.2l5.6-8.8c0.2-0.2,0.1-0.5-0.2-0.7c-0.2-0.2-0.5-0.1-0.7,0.1l-5.6,8.8
				c-0.2,0.2-0.1,0.5,0.2,0.7C1669.8,767.6,1669.8,767.6,1669.9,767.6z"/>
		</g>
	</g>
</g>
<path class="st12" d="M290,721"/>
<g>
	<g>
		<g>
			<path class="st5" d="M2007.4,751.4c-4.4,10.4-6.5,40.2-6,43.3s35.5,77.1,35.5,77.1l5.6-3.7l-19.3-65.6l6.5-51.2h-22.3V751.4z"/>
		</g>
	</g>
	<g>
		<g>
			<path class="st5" d="M2029.5,739.3c-1.5,1.6-11.2,65.4-12.9,70.6c-1.7,5.2,1,42.7-4.8,66.1h8.8c0,0,13.9-42.7,11.2-59.6
				l16.8-56.9L2029.5,739.3z"/>
		</g>
	</g>
	<g>
		<g>
			<polygon class="st5" points="1997,742.8 2010.3,713.4 2020.9,724.6 1999.1,750.2 			"/>
		</g>
	</g>
	<g>
		<g>
			<path class="st13" d="M2010.3,713.4l2.2-5.5c0,0-2.7-7.2-2.2-9.2s7.8-6.1,7.8-6.1l4.5,13.4l-6.8,13.3L2010.3,713.4z"/>
		</g>
	</g>
	<g>
		<g>
			<path class="st13" d="M2006.2,753.7l42.5,5.7c0,0,3.5-11.2,6.7-17.4c5.1-9.9-0.4-32.6-0.4-32.6l-36.2-5.1
				C2018.8,704.3,2014.1,718.5,2006.2,753.7z"/>
		</g>
	</g>
	<g>
		<g>
			<path d="M2003.2,607.3c0,0,9.5-19.5,23.8-13.6c15.2,6.3,13,16.8,13.4,22.6c0.2,2.5,1.8,7.1,1.8,7.1l-7.9-6.4L2003.2,607.3z"/>
		</g>
	</g>
	<g>
		<g>
			<path d="M2002.1,613.7c0,2.5,0.6,5.1,1.3,7.5c0.7,2.6,1.7,4.8,0.9,7.6c-0.6,2-1.8,3.7-2.1,5.7c-0.3,1.8,0.2,3.8,1.4,5.3
				c-0.1-1.9,1.6-3.5,3.4-4.1s3.8-0.4,5.7-0.1c1.9,0.3,3.8,0.6,5.7,0.1c3.9-0.9,6.6-5.4,5.5-9.3c-0.7-2.5-2.7-4.4-4.6-6.2
				c-2.4-2.3-5-4.5-7.9-5.9C2008.4,612.8,2005.2,612.7,2002.1,613.7z"/>
		</g>
	</g>
	<g>
		<g>
			<path class="st5" d="M2038,616.6c-11.6-2.3-23.2-4.5-34.8-6.8c0.5,1.8,2.9,4.2,5.6,7.9c0.8,1.1-0.1,6.8,0.3,8
				c0.4,1,1.5-2.5,1.9-1.6c1.5,3.5,1.6,5.1,2.9,6.8c1.9,2.4,6.8,0.4,9.2,0.9c3.6,0.9-1.4,17.1-1.4,17.1s12.4,0.8,15.1-1.8
				c2.8-2.7,2.7-15.4,2.7-15.4l-5.4-6.8C2036.2,621.5,2037.5,620.3,2038,616.6z"/>
		</g>
	</g>
	<g>
		<g>
			<path d="M2038,614.1l-34.8-6.8c0,0-1.5,2.9-1.1,6.4l17.1,1.1c-1.2,2.5-0.9,5.6,0.9,7.7c0.9,1.1,2.1,1.9,2.7,3.1
				c1,2.1-0.3,4.6-1.5,6.6c-1.2,2.1-2.5,6.3-1.2,8.3c0.6-1.4,2.4-3.6,3.9-3.4c1.5,0.2,3,0.7,4.5,0.4c1.9-0.3,3.4-1.8,4.6-3.3
				s2.3-3.2,4-4.2c1.6-1,4.1-1.1,5.3,0.4C2043.8,625.7,2041,618.1,2038,614.1z"/>
		</g>
	</g>
	<g>
		<g>
			<path class="st13" d="M2055,709.4c0,0,6-27.3,6.4-28.8c1.3-5.7-0.8-21.3-1.2-25.1s-9.7-17.8-12.1-18.6s-8.5-5.1-8.5-5.1
				s-4.6,13.6-8.6,15.4c-7.1,3.2-9.1,1.7-9.1,1.7s-0.9,1.6-6.2,8.7c-5.3,7.1-10.9,13.4-1.8,22.9l4.5,25L2055,709.4z"/>
		</g>
	</g>
	<g>
		<g>
			<path class="st5" d="M2022.7,678.3l-1.6,13.4c0,0-22.9-11.4-24.6-12.1c-6.1-2.6-11.2-6.1-12.2-6.9c-1-0.9-3.8-9.3-4-10.1
				s6.2-0.8,6.2-0.8l-1.4-7c0,0,2.6-0.4,2.9,0.2c0.4,0.6,3.4,7.1,4.7,8.4c1.3,1.3,1.8,7.7,1.8,7.7L2022.7,678.3z"/>
		</g>
	</g>
	<g>
		<g>
			<polygon points="1986.3,661.6 1984.9,654.6 1982.3,642.6 1978,643.9 1982.6,661.8 			"/>
		</g>
	</g>
	<g>
		<g>
			<path class="st14" d="M2028.1,679.9l-3.6-0.8c-0.3-0.1-0.4-0.3-0.4-0.6c0.1-0.3,0.3-0.4,0.6-0.4l2.7,0.6c0-1.1,0.9-2.2,1.9-2.7
				c1-0.4,2.2-0.5,3.7-0.1c0.9,0.2,3.4,0.6,4.8,0.7c-0.5-6.1-0.5-17.8,0.3-23.6c0.3-2.4,0.8-4.9,1.9-7.3c1.2-2.6,3.1-4.5,5.3-5.4
				c0.3-0.1,0.6,0,0.7,0.3s0,0.6-0.3,0.7c-2,0.8-3.7,2.6-4.8,4.9c-1,2.2-1.5,4.7-1.8,7c-0.8,6-0.8,18.1-0.2,24l0.1,0.6h-0.6
				c-1.1-0.1-4.4-0.5-5.5-0.8c-1.3-0.3-2.3-0.3-3.1,0c-0.8,0.4-1.5,1.4-1.2,2.2v0.1l-1,0.3c0.1,0.1,0.2,0.2,0.3,0.2
				c0.1,0,0.3,0,0.4-0.2L2028.1,679.9z"/>
		</g>
	</g>
	<g>
		<g>
			<path class="st14" d="M2038.9,699.2c-4.6,0-9.2-0.8-13.5-2.5l-0.1-0.1l-0.1-0.1c-0.4-0.6-1-1.6-1.2-2.7l-2.1-0.7
				c-0.3-0.1-0.4-0.4-0.3-0.6c0.1-0.3,0.4-0.4,0.6-0.3l2.8,0.9v0.3c0.1,0.9,0.7,1.9,1,2.4c7.1,2.7,15.2,3.1,22.2,1.1
				c0.3-0.1,0.5,0.1,0.6,0.3c0.1,0.3-0.1,0.5-0.3,0.6C2045.4,698.7,2042.2,699.2,2038.9,699.2z"/>
		</g>
	</g>
	<g>
		<g>
			<path class="st15" d="M2015.9,827.2c-0.3,0-0.5-0.2-0.5-0.5c-0.2-9.1,0.3-28.8,0.8-32.9c0.6-5.3,6.4-34.6,6.7-35.9
				c0.1-0.3,0.3-0.4,0.6-0.4c0.3,0.1,0.4,0.3,0.4,0.6c-0.1,0.3-6.1,30.5-6.7,35.8c-0.4,4.1-1,23.8-0.8,32.8
				C2016.4,826.9,2016.2,827.1,2015.9,827.2L2015.9,827.2z"/>
		</g>
	</g>
	<g>
		<g>
			<path class="st15" d="M2027.9,850.4C2027.9,850.4,2027.8,850.4,2027.9,850.4c-0.4-0.1-0.5-0.3-0.5-0.6c0.4-2.4,1-5.3,1.6-8.2
				c0.6-2.8,1.2-5.8,1.6-8.1c0-0.3,0.3-0.5,0.6-0.4c0.3,0,0.5,0.3,0.4,0.6c-0.4,2.4-1,5.3-1.6,8.2c-0.6,2.8-1.2,5.8-1.6,8.1
				C2028.3,850.3,2028.1,850.4,2027.9,850.4z"/>
		</g>
	</g>
	<g>
		<g>
			<polygon class="st13" points="2036.9,871.8 2038.5,877.2 2035.9,886.3 2032.6,889.8 2038.5,889.8 2043.8,882.5 2045.5,885.1 
				2048,883.1 2042.6,868.2 			"/>
		</g>
	</g>
	<g>
		<g>
			<polygon class="st13" points="2020.7,876 2018.7,889.8 2014.8,889.8 2014.8,885.2 2008.9,889.8 2000.2,889.8 2008.2,884.5 
				2011.9,876 			"/>
		</g>
	</g>
	<g>
		<g>
			<path class="st5" d="M1998.7,751.3c0,0,1.8-5.3,1.5-6.8s-3.2-1.7-3.2-1.7s-3.9,0.4-4.9-0.1c-1.1-0.5-4.6-0.4-4.7,0.3
				s2.6,1.6,2.6,1.6l-8.5,11.1c-1.3,1.7,0.3,1.6,0.9,1.8s4.7-3.5,4.7-3.5s0.9,1.9,1.4,1.9s1.6,0,1.6,0s1.2,2,1.8,1.9
				c0.5-0.1,1.6-2.6,1.6-2.6s1.4,0.5,1.7,0.4C1995.4,755.6,1998.7,751.3,1998.7,751.3z"/>
		</g>
	</g>
	<g>
		<g>
			<path class="st14" d="M2018.3,705.2c-0.2,0-0.4-0.2-0.5-0.4l-1.9-9.8c-0.1-0.3,0.1-0.5,0.4-0.6s0.5,0.1,0.6,0.4l1.9,9.8
				C2018.9,704.8,2018.7,705.1,2018.3,705.2C2018.4,705.2,2018.3,705.2,2018.3,705.2z"/>
		</g>
	</g>
</g>
<g>
	<g>
		<g>
			<g>
				<path class="st5" d="M890.7,628.9l-3.2-12.4c0,0-4.7,1.3-6.7-0.7c-0.9-0.8-1.7-4.5-2-10.2c0-0.6-2.3,0.6-2.3,0
					c0-1.2,4.1-6.8,3.7-9.1c-1.3-8.3-0.6-10.5,1.8-12.9c5.3-5.2,24.1-6,26.6,3.1c2.6,9.1,1.7,13.5-2.9,26.4l2.8,12.9L890.7,628.9z"
					/>
			</g>
		</g>
	</g>
	<g>
		<g>
			<path d="M844.5,866.4l-4.8,14.4c0,0-14.8,0.9-15.2,1.9l21.2,5.8l5.5-20.3L844.5,866.4z"/>
		</g>
	</g>
	<g>
		<g>
			<polygon points="956.6,889.8 968.7,889.8 977.5,883 966.6,865 960.6,868.7 967.8,882.1 965.5,887.4 			"/>
		</g>
	</g>
	<g>
		<g>
			<polygon class="st14" points="875.6,733.3 838.8,876.5 851.1,879.7 880.6,803.5 901.4,763.4 924.6,823.1 963.4,879 972.5,872.5 
				940.9,799.6 930.7,733.3 			"/>
		</g>
	</g>
	<g>
		<g>
			<path class="st7" d="M908.8,615.6c0,0-11.3,3.5-17,10.1c-5.7,6.5-14.8,25.4-15,27.5s2.8,25.4,2.8,25.4l-10.2,61.7
				c0,0,43.5,6.7,65.3,0l-11.4-51c0,0,1.6-17.9,3.5-20.1c1.8-2.1-1.4-19.9-2.8-28.2c-1.4-8.3-7.9-17.7-10.2-19.6
				C911.6,619.5,908.8,615.6,908.8,615.6z"/>
		</g>
	</g>
	<g>
		<g>
			<path d="M976.2,731.4c-0.7,1.5,22.1,48.9,23.2,48.8s12.7-7.8,13.4-9.4c0.7-1.6-29-40-30.1-41.3
				C981.7,728.1,976.2,731.4,976.2,731.4z"/>
		</g>
	</g>
	<g>
		<g>
			<path d="M976.2,731.4l-33.4,19.7c0,0,9,29.9,16.7,44.8c0.6,1.1,39.9-15.7,39.9-15.7l-14.1-42.9L976.2,731.4z"/>
		</g>
	</g>
	<g>
		<g>
			<path d="M955.7,745.9c0,0-1.5-8,0-12.6s8.9-6.2,16,3.5c6.5,9,0.8-2,0.8-2l0.9-1.5c0,0-8.4-11-16.6-6.8
				c-8.2,4.2-3.6,21.5-3.6,21.5L955.7,745.9z"/>
		</g>
	</g>
	<g id="XMLID_102_">
		<g>
			<g>
				<path class="st5" d="M953,721.8c1.1-1.5-0.9-5.2-2.3-7.3c1.4-2,1.6-6.6,2.8-8.7c6,12.1,10.5,17.2,11,18.8c1,3.6,1.4,5.6-1.5,5.6
					c-2.9,0.1-1.5,4-3.9,3.7c-2.4-0.4-1.5,4.4-3.8,2.9c-2.3-1.4-1.7-7-1.7-7S948.9,727.6,953,721.8z"/>
			</g>
		</g>
	</g>
	<g>
		<g>
			<path class="st7" d="M916.1,628.4c7.1,4.3,44.6,85.8,44.6,85.8l-11.2,6.3c0,0-8.6-15.9-13.5-20s-6.5-5.9-6.6-13.4
				s-22.6-27.4-25.9-36C900.1,642.6,911.2,625.5,916.1,628.4z"/>
		</g>
	</g>
	<g>
		<g>
			<path class="st13" d="M925.1,673.8C925.1,673.8,925,673.8,925.1,673.8c-0.4,0-0.6-0.3-0.5-0.6c1.2-11.1,0.4-22.3-2.3-33.2
				c-0.1-0.3,0.1-0.6,0.4-0.7c0.3-0.1,0.6,0.1,0.7,0.4c2.7,11,3.5,22.3,2.4,33.6C925.6,673.6,925.4,673.8,925.1,673.8z"/>
		</g>
	</g>
	<g>
		<g>
			<path class="st16" d="M899.8,758c-0.2,0-0.4-0.1-0.5-0.2l-6.1-9.5c-0.2-0.3-0.1-0.6,0.2-0.8s0.6-0.1,0.8,0.2l6.1,9.5
				c0.2,0.3,0.1,0.6-0.2,0.8C900,757.9,899.9,758,899.8,758z"/>
		</g>
	</g>
	<g>
		<g>
			<polygon class="st14" points="835.7,658.9 828,640.7 819.6,643.5 832.7,665.9 			"/>
		</g>
	</g>
	<g>
		<g>
			<path class="st5" d="M847.5,667.3l-5.5-3.5c0,0-2.3-4.9-3.3-5.3c-1-0.4-13.7,1.7-14.1,2.3c-0.4,0.6,1,2.3,1,2.3l2.8,0.8v2.1
				l2.1,0.6c0,0,0.3,2.2,1.2,3.1c0.9,0.9,11.3,3.7,11.3,3.7L847.5,667.3z"/>
		</g>
	</g>
	<g>
		<g>
			<path class="st7" d="M895.7,633.3c-1.8-0.1-3.4,1.2-4.2,2.8s-0.9,3.4-1.1,5.2c-0.4,5-0.9,10-1.7,15c-0.8,4.9-2.1,9.6-3.5,14.4
				c-0.2,0.8-0.6,1.8-1.4,2c-0.6,0.2-1.3,0-1.7,0.4c-0.9,0.8,0.2,2.7-0.9,3.3c-0.9,0.5-1.8-0.8-2.8-0.5c-0.5,0.1-0.8,0.6-1.2,0.9
				c-0.7,0.6-2-0.5-2.7-0.8c-1.4-0.5-3.8-1.6-5.2-2.2c-2.7-1.2-21.5-11-21.5-11l-7.1,17.2c16.4,9.1,31.6,16.7,49.7,16.5
				c4.6-0.1,6.9-5.5,8.7-9.7c5-11.5,8.5-23.7,10.3-36.1"/>
		</g>
	</g>
	<g>
		<g>
			<path class="st13" d="M881.3,676.9c-0.2,0-0.4-0.1-0.5-0.3c-0.1-0.3,0-0.6,0.2-0.7c0.2-0.1,0.2-0.5,0.2-1.1
				c0-0.7-0.1-1.6,0.6-2.1c0.4-0.3,0.9-0.4,1.3-0.4c0.2,0,0.4,0,0.6-0.1c0.6-0.2,0.8-0.9,1.1-1.7c1.4-4.8,2.7-9.4,3.5-14.3
				c0.8-5.1,1.3-10.2,1.7-15c0.2-1.9,0.3-3.7,1.1-5.4c0.1-0.3,0.5-0.4,0.7-0.2c0.3,0.1,0.4,0.5,0.2,0.7c-0.7,1.5-0.9,3.2-1,4.9
				c-0.4,4.9-0.9,10-1.7,15.1c-0.8,5-2.1,9.6-3.5,14.4c-0.2,0.7-0.6,2-1.8,2.4c-0.3,0.1-0.6,0.1-0.9,0.1c-0.3,0-0.6,0-0.7,0.2
				c-0.2,0.2-0.2,0.7-0.2,1.2c0,0.7,0.1,1.7-0.8,2.1C881.5,676.8,881.4,676.9,881.3,676.9z"/>
		</g>
	</g>
	<g>
		<g>
			<path class="st13" d="M889.8,697c-3.3,0-6.7-0.2-10-0.7c-0.3,0-0.5-0.3-0.5-0.6s0.3-0.5,0.6-0.5c3.5,0.5,7.1,0.7,10.7,0.7
				c4.2,0,6.4-5.1,8.1-9.1l0.1-0.3c0.1-0.3,0.4-0.4,0.7-0.3c0.3,0.1,0.4,0.4,0.3,0.7l-0.1,0.3c-1.9,4.3-4.2,9.7-9.1,9.8
				C890.3,697,890,697,889.8,697z"/>
		</g>
	</g>
	<g>
		<g>
			<path class="st5" d="M839.9,659.8c-1.2-1.3-2.5-7.8-3.2-7.9c-0.7,0-2.1,6.9-0.2,9.2C838.4,663.4,839.9,659.8,839.9,659.8z"/>
		</g>
	</g>
	<g>
		<g>
			<path d="M879.1,590.1l14,1.5c0,0-1.1,4.1,4.9,9.6l-0.9,4.4l2.2,0.9c0,0-0.6-8.7,3.7-8s-0.9,10.5-0.9,10.5l3.5,4.1
				c0,0,4.6-11,6-13.9c1.5-2.9,3.1-13.7-1.7-17.6c-3.6-2.9-16.1-3.9-22-3.7C876.4,578.4,879.1,590.1,879.1,590.1z"/>
		</g>
	</g>
	<g>
		<g>
			<path class="st14" d="M1000.9,777c-0.2,0-0.4-0.1-0.5-0.2c-9-13.9-16-29-20.8-44.9c-0.1-0.3,0.1-0.6,0.4-0.7
				c0.3-0.1,0.6,0.1,0.7,0.4c4.8,15.8,11.8,30.8,20.7,44.6c0.2,0.3,0.1,0.6-0.2,0.8C1001.1,777,1001,777,1000.9,777z"/>
		</g>
	</g>
	<g>
		<g>
			<path class="st14" d="M1003.3,768.5c-0.2,0-0.3-0.1-0.4-0.2c-3.9-5.4-7.4-11.1-10.5-17c-0.1-0.3,0-0.6,0.2-0.7
				c0.3-0.1,0.6,0,0.7,0.2c3.1,5.8,6.6,11.5,10.4,16.9c0.2,0.2,0.1,0.6-0.1,0.8C1003.5,768.4,1003.4,768.5,1003.3,768.5z"/>
		</g>
	</g>
</g>
<g>
	<g>
		<g>
			<path class="st14" d="M1342.4,735.9l-29.9,5.1l-29.9-5.1l-0.3,145.1h6.9l22.9-129.8l2.1,129.8h6.9c0,0,12-54.6,12.5-59.6
				s-1.8-20.3-1.8-20.3L1342.4,735.9z"/>
		</g>
		<g>
			<path class="st8" d="M1289.2,630.5c0,0,2-19.7,4.7-29.6s13.3-13.5,19.8-12.9s18.8,3.2,18.9,18.4c0.2,15.2,2.1,25.1,2.1,25.1
				L1289.2,630.5z"/>
		</g>
		<g>
			<path class="st7" d="M1291.6,667.4l3.7,24.6c-9.8,14.4-15.1,36.1-17.8,52.7h71.3c-6.3-37.5-20.4-52.6-20.4-52.6l5.7-25
				c5.1-4.8,5.4-12.5,5.4-15.9s0-12.8,0-12.8s-22.7-11.1-27.9-11.1s-26.2,10-26.2,10v13.6C1283.9,660.9,1291.6,667.4,1291.6,667.4z"
				/>
		</g>
		<g>
			<path d="M1294.8,733.2l1.9-100.9c0,0-11.3,2.8-14.8,6.1s-9.9,86.8-9.9,86.8c-0.1,2.4-0.3,5.1-0.5,8L1294.8,733.2L1294.8,733.2z"
				/>
		</g>
		<g>
			<path class="st12" d="M1334.1,667.1c-0.1,0-0.2,0-0.3-0.1c-0.3-0.2-0.3-0.5-0.2-0.7c3.5-5.6,4.1-12.8,1.5-18.9
				c-0.1-0.1-0.1-0.3,0-0.5c0.4-0.8,0.8-1.6,1.2-2.5c0.4-0.9,0.8-1.8,1.2-2.6c0.1-0.3,0.5-0.4,0.7-0.2c0.3,0.1,0.4,0.5,0.2,0.7
				c-0.4,0.8-0.8,1.7-1.2,2.5c-0.4,0.8-0.7,1.6-1.1,2.3c2.6,6.3,2,13.8-1.6,19.6C1334.4,667,1334.2,667.1,1334.1,667.1z"/>
		</g>
		<g>
			<path class="st5" d="M1307.2,619.9v12.5c0,0,6.3,10.7,12.2,0.3l-0.5-12.8H1307.2z"/>
		</g>
		<g>
			<path class="st5" d="M1309.8,590.3c-10.8,1.4-12.5,13.9-9.9,23.7c1.9,7.4,6.3,14.8,13.3,14.6c6.9-0.2,11.1-9.6,12.3-15.4
				C1327.4,603.8,1327.1,588,1309.8,590.3z"/>
		</g>
		<g>
			<g>
				<path class="st17" d="M1301.1,611.3c0,0-0.4-4.1-3.7-2.8c-3.3,1.4,0.7,10.7,4.4,9.6C1305.5,617.1,1301.1,611.3,1301.1,611.3z"/>
			</g>
			<g>
				<path class="st17" d="M1323.3,611.1c0,0,0.1-4.1,3.5-3s0,10.7-3.7,9.9C1319.3,617.2,1323.3,611.1,1323.3,611.1z"/>
			</g>
		</g>
		<g>
			<path class="st8" d="M1324.4,593.4c-0.9-0.4-1.8-0.5-2.7-0.6c-0.2-0.7-0.6-1.2-1.3-1.6c-3.8-2-12.7-1.7-16.6,0s-8.5,8.9-9.5,13.1
				c-1.1,4.4,0,9.1,1.1,13.5c0.3,1.3,0.7,2.7,1.9,3.3c1,0.5,2.2,0.3,3.2,0c6-1.5,11.6-4.8,15.9-9.3c0.6-0.6,1.2-1.3,1.7-2.1l0,0
				c1.5,4.1,4.1,7.8,7.5,10.6c0.4,0.3,0.8,0.6,1.3,0.6c0.8,0,1.3-0.9,1.6-1.6c1.2-2.7,2.5-5.4,2.6-8.3
				C1331.3,608.2,1327.1,594.6,1324.4,593.4z"/>
		</g>
		<g>
			<path class="st15" d="M1313.2,629.1c-1.6,0-3.3-0.4-4.7-1.3c-0.3-0.1-0.3-0.5-0.2-0.7c0.2-0.3,0.5-0.3,0.7-0.2
				c2.6,1.6,6.3,1.4,8.8-0.3c0.2-0.2,0.6-0.1,0.7,0.1c0.2,0.2,0.1,0.6-0.1,0.7C1316.9,628.6,1315,629.1,1313.2,629.1z"/>
		</g>
		<g>
			<path d="M1350,733.2c-0.1-2.3-6.9-91.5-10.3-94.8c-3.5-3.3-13.4-6.1-13.4-6.1l1.2,100.9L1350,733.2L1350,733.2z"/>
		</g>
		<g>
			<g>
				<path d="M1339.7,638.4c3.6,2.4,5.8,9.1,7.4,14.6s12.2,31.7,14.3,38.4c2.1,6.7-10.6,8.1-15.7,6.7c-5.1-1.4-16.3-8.3-16.3-8.3
					l-0.4-10.7l5.5,0.8L1339.7,638.4z"/>
			</g>
		</g>
		<g>
			<g>
				<path d="M1282,638.4c-3.6,2.4-5.7,9.1-7.3,14.6c-1.6,5.5-12.2,31.7-14.3,38.4c-2.1,6.7,10.6,8.1,15.7,6.7
					c5.1-1.4,16.3-8.3,16.3-8.3l0.4-10.7l-5.5,0.8L1282,638.4z"/>
			</g>
		</g>
		<g>
			<polygon points="1289.4,881.1 1287.2,889.8 1275.2,889.8 1281.2,885.4 1282.5,881.1 			"/>
		</g>
		<g>
			<polygon points="1314.4,881.1 1314.4,889.8 1326.4,889.8 1320.4,885.4 1321.3,881.1 			"/>
		</g>
	</g>
	<g>
		<polygon class="st10" points="1280.6,681.1 1282.5,652 1334.1,652 1335.8,686 1280.6,686 		"/>
	</g>
	<g>
		<path class="st5" d="M1344.8,679.2c0,0-2.7-5.3-4.4-5.3l-2.1,4.9c0,0-8.9-1.6-9.1-1.1c-0.1,0.5-0.8,3-0.8,3l3.7,0.2
			c0,0-0.9,1.6-0.6,2.2c0.3,0.5,1,1,1,1s-0.1,1.6,0.3,3c0.4,1.5,0.1,2.7,1,3.8s9.2-0.3,10.4-0.6c0.1,0,0.2-0.1,0.3-0.1
			C1349.2,688.1,1349.3,681.6,1344.8,679.2L1344.8,679.2z"/>
	</g>
	<g>
		<g>
			<path class="st5" d="M1274.1,681.5c0,0,2.7-5.3,4.4-5.3l2.1,4.9c0,0,8.9-1.6,9.1-1.1c0.1,0.5,0.8,3,0.8,3l-3.7,0.2
				c0,0,0.9,1.6,0.6,2.2c-0.3,0.5-1,1-1,1s0.1,1.6-0.3,3s-0.1,2.7-1,3.8s-9.2-0.3-10.4-0.6c-0.1,0-0.2-0.1-0.3-0.1
				C1269.8,690.4,1269.7,683.9,1274.1,681.5L1274.1,681.5z"/>
		</g>
	</g>
	<g>
		<path class="st14" d="M1272.7,681.4c-0.2,0-0.4-0.1-0.5-0.3c-1-1.7-2.2-3.3-3.5-4.8c-0.2-0.2-0.2-0.6,0-0.8s0.6-0.2,0.8,0
			c1.4,1.5,2.6,3.2,3.6,5c0.1,0.3,0.1,0.6-0.2,0.7C1272.9,681.4,1272.8,681.4,1272.7,681.4z"/>
	</g>
	<g>
		<path class="st14" d="M1344.7,677.2c-0.1,0-0.1,0-0.2,0c-0.3-0.1-0.4-0.4-0.3-0.7c0.5-1.7,1.7-3.2,3.3-4.1
			c0.3-0.1,0.6-0.1,0.7,0.2c0.2,0.3,0.1,0.6-0.2,0.7c-1.3,0.8-2.3,2.1-2.8,3.5C1345.1,677.1,1344.9,677.2,1344.7,677.2z"/>
	</g>
	<g>
		<path class="st14" d="M1273.1,698.4c-0.3,0-0.5-0.2-0.5-0.5s0.2-0.5,0.5-0.6c1.6-0.1,3.2-1,4.1-2.4c0.2-0.3,0.5-0.3,0.7-0.2
			c0.3,0.2,0.3,0.5,0.2,0.7C1277,697.2,1275.1,698.3,1273.1,698.4L1273.1,698.4z"/>
	</g>
	<g>
		<path class="st14" d="M1348.1,697.3c-0.1,0-0.2,0-0.3-0.1c-2.3-1.3-4.3-3.1-5.8-5.2c-0.2-0.2-0.1-0.6,0.1-0.7
			c0.2-0.2,0.6-0.1,0.7,0.1c1.5,2,3.4,3.7,5.5,4.9c0.3,0.1,0.3,0.5,0.2,0.7C1348.5,697.2,1348.3,697.3,1348.1,697.3z"/>
	</g>
	<g>
		<path class="st14" d="M1349.8,689.5c-0.1,0-0.1,0-0.2,0c-0.3-0.1-0.4-0.4-0.3-0.7c1-2.8,0.5-6-1.3-8.4c-0.2-0.2-0.1-0.6,0.1-0.8
			s0.6-0.1,0.8,0.1c2,2.6,2.6,6.3,1.5,9.4C1350.2,689.3,1350,689.5,1349.8,689.5z"/>
	</g>
	<g>
		<path class="st14" d="M1269.9,690.9c-0.2,0-0.4-0.1-0.5-0.3c-1.6-2.6-1.3-6.2,0.5-8.6c0.2-0.2,0.5-0.3,0.8-0.1
			c0.2,0.2,0.3,0.5,0.1,0.8c-1.6,2.1-1.8,5.2-0.4,7.4c0.1,0.3,0.1,0.6-0.2,0.7C1270.1,690.9,1270,690.9,1269.9,690.9z"/>
	</g>
</g>
<g>
	<g>
		<g>
			<path d="M2303.1,869.1l-9.6,13.8c0,0-12.8,4.3-12.9,5.4l22.5,1.4l-0.2-6.1L2303.1,869.1z"/>
		</g>
	</g>
	<g>
		<g>
			<path d="M2484.9,801.4l14.5-6.3c0,0,12,6.3,12.9,5.5l-13.1-15.7l-18.5,11.4L2484.9,801.4z"/>
		</g>
	</g>
	<g>
		<g>
			<g>
				<path class="st5" d="M2347.5,640.9l-3.2-12.3c0,0-4.6,1.3-6.7-0.7c-0.9-0.8-1.6-4.4-2-10.1c0-0.6-2.3,0.6-2.3,0
					c0-1.2,4-6.7,3.7-9c-1.3-8.2-0.6-10.4,1.8-12.8c5.3-5.2,23.9-5.9,26.4,3.1s1.7,13.4-2.9,26.2l2.8,12.8L2347.5,640.9z"/>
			</g>
		</g>
	</g>
	<g>
		<g>
			<path class="st7" d="M2392.2,720.5c0,0,13.6,8.8,0.9,29.7c-11.9,19.6-48.1,58.9-48.1,58.9l-42.1,74.6l-9.5-0.8
				c0,0,27.5-74.3,30-81.1s37.9-74.2,37.9-74.2L2392.2,720.5z"/>
		</g>
	</g>
	<g>
		<g>
			<path class="st7" d="M2360.6,749.1c0,0,34,54.7,43.5,64.9s20,13.3,24.4,12.8s71-31.6,71-31.6l-6.1-6.5l-62.3,12.2l-31.1-52.1
				l-23.2-14.9L2360.6,749.1z"/>
		</g>
	</g>
	<g>
		<g>
			<path class="st17" d="M2292,665.8c0,0,31.3,33.7,34.5,33.7c1.5,0,8-5.2,14.3-10.6c6.7-5.7-11.2-15.5-11.2-15.5l-5.3,6.9
				l-23.8-17.3"/>
		</g>
	</g>
	<g id="XMLID_103_">
		<g>
			<g>
				<path class="st5" d="M2298.6,658.3c-0.7,2.2,3,6,5.5,8c-0.9,2.9,0.5,8.6-0.2,11.6c-11.8-12.4-19.1-16.9-20.2-18.6
					c-2.5-3.9-3.8-6.2-0.3-7.3s0.3-5.4,3.3-5.8c3-0.4,0.2-5.8,3.5-4.9c3.3,0.9,4.7,7.9,4.7,7.9S2301.4,649.8,2298.6,658.3z"/>
			</g>
		</g>
	</g>
	<g>
		<g>
			<path class="st4" d="M2338.9,657.8l-13.4,19.5l-21.1-15.6l-9.1,14.3c0,0,26.6,26.8,30.9,27.1c4.4,0.3,22.9-19.3,22.9-19.3
				L2338.9,657.8z"/>
		</g>
	</g>
	<g>
		<g>
			<path class="st14" d="M2361.8,637c1.4-0.4,10.8-1.6,15.4,0.1c4.6,1.7,16.5,66.8,16.5,66.8l-1.5,16.6l-37.8,16.6
				c0,0-16-41.2-18.2-49c-4.6-16.1,6.1-43.7,7.8-47.3C2348.6,631.2,2355,638.9,2361.8,637z"/>
		</g>
	</g>
	<g>
		<g>
			<path class="st18" d="M2362.9,646.4"/>
		</g>
	</g>
	<g>
		<g>
			<path class="st18" d="M2386.2,661.9"/>
		</g>
	</g>
	<g>
		<g>
			<polygon class="st4" points="2338.8,635.2 2366.6,626.5 2370.1,635.1 2344.3,643.8 			"/>
		</g>
	</g>
	<g>
		<g>
			<path class="st4" d="M2344.3,643.8c-0.2,32.9,57.6,147.1,57.6,147.1l36.6-32.1l-38.4-41.4l-16.9-64.7l-13.2-17.6L2344.3,643.8z"
				/>
		</g>
	</g>
	<g>
		<g>
			<path class="st5" d="M2404.6,644.8c12.5,4.4,24.4,8.8,25.4,9.7c1.8,1.7,0.2,17.8-0.8,27.6c-1.5,17.9-0.7,28.4-1.4,30.4
				c-1.6,4.4-2.6,6.7-5.6,4.7c-3-2.1-4.5,3.1-6.7,0.9c-2.2-2.2-4.7,3.4-6,0.2s3.4-8.5,3.4-8.5s-3.2-5.7,5.2-8.5
				c2-0.7,1.5-6.4,1.5-7.9c-0.1-8.7-2-17.2-3.4-25.7l-15-3.2C2401.1,664.4,2396.8,642,2404.6,644.8z"/>
		</g>
	</g>
	<g>
		<g>
			<path class="st4" d="M2366.6,633.4c0,0,62.3,15.6,65.8,18.4c3.6,2.7-4.2,45.1-4.2,45.1l-13-3.6v-15.4c0,0-4.1-4.2-1.7-7.2
				c2.4-3-30-6.2-30-6.2L2366.6,633.4z"/>
		</g>
	</g>
	<g>
		<g>
			<path class="st8" d="M2350,605.2c0,0-8.7,1.5-16.6-3.1s-5-13.7,3.4-9.9c0,0-2.2-7.6,11-1.1c0,0,15.2-2.6,19.3,3.8
				c4.1,6.4-4.8,30.4-4.8,30.4l-4.8-8.7c0,0,4-4.2,1.3-6.9s-4.4,5.4-4.4,5.4l-2.6-1.5L2350,605.2z"/>
		</g>
	</g>
	<g>
		<g>
			<path class="st19" d="M2377.4,664L2377.4,664c-5.8-0.8-11.1-4.6-13.6-9.8s-2.2-11.7,0.8-16.6c0.2-0.3,0.5-0.3,0.7-0.2
				c0.3,0.2,0.3,0.5,0.2,0.7c-2.8,4.6-3.1,10.7-0.7,15.6c2.3,4.9,7.3,8.5,12.7,9.2c0.3,0,0.5,0.3,0.5,0.6
				C2377.9,663.8,2377.7,664,2377.4,664z"/>
		</g>
	</g>
	<g>
		<g>
			<path class="st14" d="M2372.3,766.7c-0.2,0-0.4-0.1-0.5-0.3l-14.5-24.2c-0.2-0.3-0.1-0.6,0.2-0.7c0.3-0.1,0.6-0.1,0.7,0.2
				l14.5,24.2c0.2,0.3,0.1,0.6-0.2,0.7C2372.5,766.7,2372.4,766.7,2372.3,766.7z"/>
		</g>
	</g>
</g>
<path d="M990,529.1c-19.5,0-35.2,15.7-35.2,35.2l0,0c0,6.1,1.6,12.1,4.6,17.5l-5.8,17.3c-0.1,0.4,0,0.9,0.3,1.2
	c0.2,0.2,0.5,0.4,0.8,0.4h0.3l19-5c5,2.5,10.4,3.8,16,3.8c19.5,0,35.2-15.8,35.2-35.2C1025.1,544.9,1009.4,529.1,990,529.1
	L990,529.1z M1011.9,580.3l-2,2c-2.7,2.7-5.5,4-8.7,4l0,0c-4.3,0-8.9-2.4-13.7-7.3l-12.1-12.1c-3.8-3.8-6.2-7.5-6.9-11
	c-1.1-4.2,0.2-8.1,3.7-11.6l2-2c1.4-1.3,3.5-1.6,5.2-0.8c3.2,1.6,6.4,7.2,6.8,7.8c0.6,1.1,0.8,2.2,0.7,3.4c-0.2,0.8-0.7,1.5-1.5,1.9
	c-0.9,0.8-2,1.9-2.3,2c-1.2,1.8-1.1,3.2,0.6,4.7l9.4,9.4c1.5,1.5,2.8,1.8,4.7,0.6c0.2-0.2,1.2-1.3,2-2.3c0.6-1,1.6-1.6,2.8-1.5
	c0.8,0,1.7,0.2,2.4,0.7c0.7,0.4,6.2,3.7,7.8,6.8C1013.7,576.9,1013.3,578.9,1011.9,580.3L1011.9,580.3z"/>
<path d="M2505.2,640.8c-20.4,0-36.9,16.5-36.9,36.9l0,0c0,6.4,1.7,12.7,4.9,18.4l-6.1,18.1c-0.1,0.4,0,0.9,0.3,1.3
	c0.3,0.3,0.5,0.4,0.9,0.4h0.3l19.9-5.2c5.2,2.6,10.9,4,16.7,4c20.4,0,37-16.6,37-37C2542.1,657.3,2525.6,640.8,2505.2,640.8
	L2505.2,640.8z M2528.2,694.5l-2.1,2.1c-2.8,2.8-5.8,4.2-9.1,4.2l0,0c-4.5,0-9.3-2.6-14.4-7.7l-12.7-12.7c-4-4-6.5-7.9-7.3-11.5
	c-1.1-4.4,0.3-8.5,3.8-12.1l2.1-2.1c1.5-1.4,3.7-1.7,5.5-0.9c3.3,1.7,6.7,7.5,7.1,8.2c0.6,1.1,0.9,2.3,0.7,3.6
	c-0.2,0.9-0.8,1.5-1.5,2c-0.9,0.9-2.1,2-2.4,2.1c-1.3,1.9-1.1,3.3,0.6,5l9.9,9.9c1.6,1.6,3,1.9,5,0.6c0.3-0.3,1.3-1.4,2.1-2.4
	c0.6-1,1.7-1.7,2.9-1.6c0.9,0,1.8,0.3,2.5,0.8c0.7,0.4,6.5,3.8,8.2,7.1C2530,690.9,2529.7,693,2528.2,694.5L2528.2,694.5z"/>
<g>
	<path d="M1723.8,523.4v30.9c0,0-5.7-8.1-12.1-11.3c-10-5.2-30.7-4.2-30.7-4.2L1723.8,523.4z"/>
	<path d="M1719.8,473.3h-113.5c-2.2,0-3.9,1.7-3.9,3.9l0,0v57.7c0,2.2,1.7,3.9,3.9,3.9l0,0h113.5c2.2,0,3.9-1.7,3.9-3.9l0,0v-57.7
		C1723.8,475.1,1722,473.3,1719.8,473.3C1719.9,473.3,1719.9,473.3,1719.8,473.3z M1643,513.6c-0.6,0.9-1.3,1.7-2.2,2.3
		c-1,0.6-2.1,1-3.2,1.3c-1.2,0.3-2.5,0.4-3.8,0.4c-2,0-4-0.3-6-0.9c-1.9-0.5-3.6-1.3-5.2-2.3l2.5-4.7c0.4,0.4,0.9,0.7,1.3,1
		c0.6,0.3,1.3,0.8,2,1c0.8,0.4,1.7,0.6,2.6,0.8c1,0.2,1.9,0.3,2.9,0.3c2.8,0,4.1-0.8,4.1-2.2c0-0.4-0.1-0.8-0.4-1.2
		c-0.3-0.4-0.7-0.7-1.2-0.9c-0.6-0.3-1.2-0.5-1.9-0.7c-0.8-0.1-1.6-0.4-2.6-0.8c-1.5-0.4-2.8-0.8-3.8-1.2c-0.9-0.4-1.8-0.9-2.6-1.5
		c-0.6-0.5-1.1-1.1-1.4-1.9s-0.5-1.6-0.4-2.5c0-1.2,0.3-2.3,0.8-3.3s1.2-1.8,2-2.5c0.9-0.7,2-1.1,3-1.5c1.2-0.3,2.5-0.4,3.8-0.4
		c1.8,0,3.6,0.3,5.2,0.9c1.4,0.5,2.8,1.1,4.1,1.9l-2,4.2c-0.3-0.3-0.7-0.5-1-0.8c-0.5-0.3-1-0.6-1.6-0.8c-0.7-0.3-1.4-0.5-2.2-0.6
		c-0.8-0.2-1.6-0.3-2.5-0.3c-1-0.1-2,0.1-2.9,0.6c-0.6,0.3-1,1-1,1.7c0,0.4,0.1,0.8,0.4,1.2c0.4,0.3,0.7,0.6,1.2,0.9
		c0.6,0.3,1.2,0.5,1.9,0.6s1.6,0.4,2.5,0.6c1.2,0.2,2.4,0.6,3.5,1c1,0.4,1.9,0.9,2.8,1.5c1.6,1.1,2.5,3,2.3,4.9
		C1643.9,511.2,1643.6,512.5,1643,513.6L1643,513.6z M1675.9,517.4h-5.4V502l-7.1,11.3h-2.9l-7-11.3v15.3h-5.4v-24.7h5.8l8.1,13.4
		l8.1-13.4h5.7L1675.9,517.4z M1700.2,513.6c-0.6,0.9-1.3,1.7-2.2,2.3c-1,0.6-2.1,1-3.2,1.3c-1.2,0.3-2.5,0.4-3.8,0.4
		c-2,0-4-0.3-6-0.9c-1.9-0.5-3.6-1.3-5.2-2.3l2.5-4.7c0.4,0.4,0.9,0.7,1.3,1c0.6,0.3,1.3,0.8,2,1c0.8,0.4,1.7,0.6,2.6,0.8
		c1,0.2,1.9,0.3,2.9,0.3c2.8,0,4.1-0.8,4.1-2.2c0-0.4-0.1-0.8-0.4-1.2c-0.3-0.4-0.7-0.7-1.2-0.9c-0.6-0.3-1.2-0.5-1.9-0.7
		c-0.8-0.1-1.6-0.4-2.6-0.8c-1.5-0.4-2.8-0.8-3.8-1.2c-0.9-0.4-1.8-0.9-2.6-1.5c-0.6-0.5-1.1-1.1-1.5-1.9c-0.3-0.8-0.4-1.6-0.4-2.5
		c0-1.2,0.2-2.3,0.7-3.3s1.2-1.8,2-2.5c0.9-0.7,2-1.1,3-1.5c1.2-0.3,2.5-0.4,3.8-0.4c1.8,0,3.6,0.3,5.2,0.9c1.4,0.5,2.8,1.1,4.1,1.9
		l-2,4.2c-0.3-0.3-0.7-0.5-1-0.8c-0.5-0.3-1-0.6-1.6-0.8c-0.7-0.3-1.4-0.5-2.2-0.6c-0.8-0.2-1.6-0.3-2.5-0.3c-1-0.1-2,0.1-2.9,0.6
		c-0.6,0.3-1,1-1,1.7c0,0.4,0.1,0.8,0.4,1.2c0.4,0.3,0.7,0.6,1.2,0.9c0.6,0.3,1.2,0.5,1.9,0.6c0.8,0.1,1.6,0.4,2.5,0.6
		c1.2,0.2,2.4,0.6,3.5,1c1,0.4,1.9,0.9,2.8,1.5c1.6,1.1,2.4,3,2.3,4.9C1701.1,511.2,1700.8,512.5,1700.2,513.6L1700.2,513.6z"/>
</g>
<g>
	<path d="M543.6,515.9v30.9c0,0-5.7-8.1-12.1-11.3c-10-5.2-30.7-4.2-30.7-4.2L543.6,515.9z"/>
	<path d="M539.6,465.8H426.1c-2.2,0-3.9,1.7-3.9,3.9l0,0v57.7c0,2.2,1.7,3.9,3.9,3.9l0,0h113.5c2.2,0,3.9-1.7,3.9-3.9l0,0v-57.7
		C543.6,467.6,541.8,465.8,539.6,465.8C539.7,465.8,539.7,465.8,539.6,465.8z M462.8,506.1c-0.6,0.9-1.3,1.7-2.2,2.3
		c-1,0.6-2.1,1-3.2,1.3c-1.2,0.3-2.5,0.4-3.8,0.4c-2,0-4-0.3-6-0.9c-1.9-0.5-3.6-1.3-5.2-2.3l2.5-4.7c0.4,0.4,0.9,0.7,1.3,1
		c0.6,0.3,1.3,0.8,2,1c0.8,0.4,1.7,0.6,2.6,0.8c1,0.2,1.9,0.3,2.9,0.3c2.8,0,4.1-0.8,4.1-2.2c0-0.4-0.1-0.8-0.4-1.2
		c-0.3-0.4-0.7-0.7-1.2-0.9c-0.6-0.3-1.2-0.5-1.9-0.7c-0.8-0.1-1.6-0.4-2.6-0.8c-1.5-0.4-2.8-0.8-3.8-1.2c-0.9-0.4-1.8-0.9-2.6-1.5
		c-0.6-0.5-1.1-1.1-1.4-1.9s-0.5-1.6-0.4-2.5c0-1.2,0.3-2.3,0.8-3.3s1.2-1.8,2-2.5c0.9-0.7,2-1.1,3-1.5c1.2-0.3,2.5-0.4,3.8-0.4
		c1.8,0,3.6,0.3,5.2,0.9c1.4,0.5,2.8,1.1,4.1,1.9l-2,4.2c-0.3-0.3-0.7-0.5-1-0.8c-0.5-0.3-1-0.6-1.6-0.8c-0.7-0.3-1.4-0.5-2.2-0.6
		c-0.8-0.2-1.6-0.3-2.5-0.3c-1-0.1-2,0.1-2.9,0.6c-0.6,0.3-1,1-1,1.7c0,0.4,0.1,0.8,0.4,1.2c0.4,0.3,0.7,0.6,1.2,0.9
		c0.6,0.3,1.2,0.5,1.9,0.6s1.6,0.4,2.5,0.6c1.2,0.2,2.4,0.6,3.5,1c1,0.4,1.9,0.9,2.8,1.5c1.6,1.1,2.5,3,2.3,4.9
		C463.7,503.7,463.4,505,462.8,506.1L462.8,506.1z M495.7,509.9h-5.4v-15.4l-7.1,11.3h-2.9l-7-11.3v15.3h-5.4v-24.7h5.8l8.1,13.4
		l8.1-13.4h5.7L495.7,509.9z M520,506.1c-0.6,0.9-1.3,1.7-2.2,2.3c-1,0.6-2.1,1-3.2,1.3c-1.2,0.3-2.5,0.4-3.8,0.4c-2,0-4-0.3-6-0.9
		c-1.9-0.5-3.6-1.3-5.2-2.3l2.5-4.7c0.4,0.4,0.9,0.7,1.3,1c0.6,0.3,1.3,0.8,2,1c0.8,0.4,1.7,0.6,2.6,0.8c1,0.2,1.9,0.3,2.9,0.3
		c2.8,0,4.1-0.8,4.1-2.2c0-0.4-0.1-0.8-0.4-1.2c-0.3-0.4-0.7-0.7-1.2-0.9c-0.6-0.3-1.2-0.5-1.9-0.7c-0.8-0.1-1.6-0.4-2.6-0.8
		c-1.5-0.4-2.8-0.8-3.8-1.2c-0.9-0.4-1.8-0.9-2.6-1.5c-0.6-0.5-1.1-1.1-1.5-1.9c-0.3-0.8-0.4-1.6-0.4-2.5c0-1.2,0.2-2.3,0.7-3.3
		s1.2-1.8,2-2.5c0.9-0.7,2-1.1,3-1.5c1.2-0.3,2.5-0.4,3.8-0.4c1.8,0,3.6,0.3,5.2,0.9c1.4,0.5,2.8,1.1,4.1,1.9l-2,4.2
		c-0.3-0.3-0.7-0.5-1-0.8c-0.5-0.3-1-0.6-1.6-0.8c-0.7-0.3-1.4-0.5-2.2-0.6c-0.8-0.2-1.6-0.3-2.5-0.3c-1-0.1-2,0.1-2.9,0.6
		c-0.6,0.3-1,1-1,1.7c0,0.4,0.1,0.8,0.4,1.2c0.4,0.3,0.7,0.6,1.2,0.9c0.6,0.3,1.2,0.5,1.9,0.6c0.8,0.1,1.6,0.4,2.5,0.6
		c1.2,0.2,2.4,0.6,3.5,1c1,0.4,1.9,0.9,2.8,1.5c1.6,1.1,2.4,3,2.3,4.9C520.9,503.7,520.6,505,520,506.1L520,506.1z"/>
</g>
<g>
	<path d="M1311,551.7c0,0-20.5-1-30.5,4.2c-6.4,3.2-12,11.3-12,11.3v-30.7L1311,551.7z"/>
	<path d="M1321.1,523.1c1.8,0,3.3,1.5,3.3,3.3l0,0c0,1.8-1.5,3.3-3.3,3.3s-3.3-1.5-3.3-3.3S1319.3,523.1,1321.1,523.1L1321.1,523.1z
		"/>
	<path d="M1336.5,523.1c1.8,0,3.3,1.5,3.3,3.3l0,0c0,1.8-1.5,3.3-3.3,3.3s-3.3-1.5-3.3-3.3S1334.7,523.1,1336.5,523.1L1336.5,523.1z
		"/>
	<path d="M1389,491.1c0-2.1-1.7-3.9-3.9-3.8h-112.7l0,0c-2.2,0-3.9,1.8-3.9,3.9v57.3l0,0c0,2.2,1.8,3.9,3.9,3.9h112.7l0,0
		c2.2,0,3.9-1.8,3.9-3.9V491.1L1389,491.1z M1346.4,523.1l-0.1,6.6v2.2c0,3.6-3,6.6-6.6,6.6h-21.9c-3.6,0-6.6-3-6.6-6.6v-11
		c0-3.6,3-6.6,6.6-6.6h8.8v-5c-0.7-0.4-1.2-0.9-1.6-1.6c-1.2-2.1-0.5-4.8,1.6-6s4.8-0.5,6,1.6s0.5,4.8-1.6,6v5h8.8
		c3.6,0,6.6,3,6.6,6.6L1346.4,523.1z"/>
</g>
<g>
	<path d="M2045.6,548.4c0,0-20.5-1-30.5,4.2c-6.4,3.2-12,11.3-12,11.3v-30.7L2045.6,548.4z"/>
	<path d="M2055.7,519.8c1.8,0,3.3,1.5,3.3,3.3l0,0c0,1.8-1.5,3.3-3.3,3.3s-3.3-1.5-3.3-3.3S2053.9,519.8,2055.7,519.8L2055.7,519.8z
		"/>
	<path d="M2071.1,519.8c1.8,0,3.3,1.5,3.3,3.3l0,0c0,1.8-1.5,3.3-3.3,3.3s-3.3-1.5-3.3-3.3S2069.3,519.8,2071.1,519.8L2071.1,519.8z
		"/>
	<path d="M2123.6,487.8c0-2.1-1.7-3.9-3.9-3.8H2007l0,0c-2.2,0-3.9,1.8-3.9,3.9v57.3l0,0c0,2.2,1.8,3.9,3.9,3.9h112.7l0,0
		c2.2,0,3.9-1.8,3.9-3.9L2123.6,487.8L2123.6,487.8z M2081,519.8l-0.1,6.6v2.2c0,3.6-3,6.6-6.6,6.6h-21.9c-3.6,0-6.6-3-6.6-6.6v-11
		c0-3.6,3-6.6,6.6-6.6h8.8v-5c-0.7-0.4-1.2-0.9-1.6-1.6c-1.2-2.1-0.5-4.8,1.6-6s4.8-0.5,6,1.6s0.5,4.8-1.6,6v5h8.8
		c3.6,0,6.6,3,6.6,6.6V519.8z"/>
</g>
<path class="st20" d="M2431.5,735.3c0,0,4.7-0.5,8.3,3c3.1,3.1,2.4,7.6,2.4,7.6"/>
<path class="st20" d="M2432.5,727.9c0,0,7.5-0.9,13.2,4.9c5,5,3.8,12.1,3.8,12.2"/>
</svg>
