<?xml version="1.0" encoding="utf-8"?>
<!-- Generator: Adobe Illustrator 23.0.2, SVG Export Plug-In . SVG Version: 6.00 Build 0)  -->
<svg version="1.1" id="Capa_1" xmlns="http://www.w3.org/2000/svg" xmlns:xlink="http://www.w3.org/1999/xlink" x="0px" y="0px"
	 viewBox="0 0 155.9 145.3" style="enable-background:new 0 0 155.9 145.3;" xml:space="preserve">
<style type="text/css">
	.st0{fill:#1E3853;}
</style>
<title>Recurso 10svg</title>
<g>
	<g id="Layer_1">
		<path class="st0" d="M67.9,145.3C30.4,145.3,0,114.9,0,77.5S30.4,9.6,67.9,9.6C77,9.5,86,11.3,94.3,14.9l4,1.7L74.5,73.2h61.2v4.3
			C136.1,114.9,105.6,145.3,67.9,145.3z M67.9,18.2C35.3,18.3,9,44.7,9.1,77.3c0.1,32.5,26.5,58.8,59.1,58.8
			c30.8-0.1,56.4-23.9,58.6-54.6H61.2l25.5-60.6C80.6,19.1,74.2,18.2,67.9,18.2z"/>
		<path class="st0" d="M155.6,68.8H81.1L110.2,0l4,1.7c25.2,10.5,41.7,35.2,41.7,62.6L155.6,68.8L155.6,68.8z M94.3,59.9h52.3
			c-1.5-20.4-13.6-38.6-31.8-48L94.3,59.9z"/>
	</g>
</g>
</svg>
