<svg xmlns="http://www.w3.org/2000/svg" viewBox="0 0 512.19 327.39"><defs><style>.cls-1{fill:#c2d0de;}.cls-2{fill:#e6ecf1;}.cls-3{fill:#fff;}.cls-4{fill:#f57c00;}.cls-5{fill:#454f78;}.cls-6{fill:#bb4d00;}.cls-7{fill:#4e587f;}.cls-8{fill:#4f83cc;}.cls-9{fill:#002f6c;}.cls-10{fill:#01579b;}.cls-11{fill:#061d35;}.cls-12{fill:#ffad42;}.cls-13{fill:#393762;}.cls-14{fill:#e48868;}.cls-15{fill:#afafaf;}</style></defs><title>Recurso 1-1</title><g id="Capa_2" data-name="Capa 2"><g id="OBJECTS"><g id="Grupo_2068" data-name="Grupo 2068"><g id="Grupo_2064" data-name="Grupo 2064"><path id="Trazado_2839" data-name="Trazado 2839" class="cls-1" d="M415.32,88.56A1.6,1.6,0,1,0,414,87,1.45,1.45,0,0,0,415.32,88.56Z"/><path id="Trazado_2840" data-name="Trazado 2840" class="cls-1" d="M451.27,227.58H429.44V127h1.93v-4.9H427V115.7h-5v-2.38h0V99.75H416V88.65h-1.42v11.1h-3.26L409.33,106H396.06v9.67H361.49v6.38h-4.4V127h2.06v65.39h-29V299.66h29v0h70.29v0h21.82Z"/></g><polygon class="cls-2" points="376.17 263.08 376.17 327.39 278.61 327.39 278.61 263.08 284.07 263.08 284.07 178.78 298.28 178.78 298.28 156.26 303.36 156.26 303.36 123.08 331.19 98.79 358.11 122.07 359.27 123.08 359.27 178.78 368.39 178.78 368.39 263.08 376.17 263.08"/><polygon class="cls-1" points="512.2 273.75 493.34 273.75 493.34 105.67 501.82 105.67 501.82 78.33 511.77 78.33 512.2 273.75"/><g id="Grupo_2066" data-name="Grupo 2066"><rect class="cls-2" x="429.18" y="82.69" width="83.01" height="184.96"/><rect class="cls-2" x="426.56" y="79.53" width="85.63" height="5.18"/><rect class="cls-2" x="432.16" y="72.87" width="80.04" height="24.85"/><rect id="Rectángulo_2493" data-name="Rectángulo 2493" class="cls-2" x="438.44" y="62.74" width="32.74" height="27.14"/><path id="Trazado_2856" data-name="Trazado 2856" class="cls-2" d="M457.42,70.4h-19V56.05H452.1Z"/><rect id="Rectángulo_2494" data-name="Rectángulo 2494" class="cls-2" x="446.1" y="44.17" width="1.79" height="31.82"/><circle id="Elipse_157" data-name="Elipse 157" class="cls-2" cx="447.06" cy="42.57" r="1.65"/></g><rect class="cls-1" x="0.04" y="175.35" width="12.72" height="124.5"/><rect id="Rectángulo_2552" data-name="Rectángulo 2552" class="cls-1" x="2.16" y="276.46" width="74.28" height="23.2"/><rect class="cls-1" x="0.04" y="171.05" width="14.64" height="6.09"/><path id="Trazado_2860" data-name="Trazado 2860" class="cls-1" d="M29.26,222.17h-20v57H37.88Z"/><rect id="Rectángulo_2557" data-name="Rectángulo 2557" class="cls-1" x="447.88" y="172.65" width="38.7" height="123.06"/><rect class="cls-1" x="478.83" y="198.32" width="33.36" height="97.4"/><rect id="Rectángulo_2559" data-name="Rectángulo 2559" class="cls-1" x="461.82" y="167.79" width="17.15" height="14.72"/><g id="Grupo_2067" data-name="Grupo 2067"><rect id="Rectángulo_2560" data-name="Rectángulo 2560" class="cls-2" y="99.52" width="88.58" height="184.96"/><rect id="Rectángulo_2561" data-name="Rectángulo 2561" class="cls-2" y="96.36" width="91.02" height="5.18"/><rect id="Rectángulo_2562" data-name="Rectángulo 2562" class="cls-2" x="2.98" y="89.71" width="82.72" height="24.85"/><rect id="Rectángulo_2563" data-name="Rectángulo 2563" class="cls-2" x="9.27" y="79.57" width="32.74" height="27.14"/><path id="Trazado_2862" data-name="Trazado 2862" class="cls-2" d="M28.25,87.23h-19V72.88H22.92Z"/><rect id="Rectángulo_2564" data-name="Rectángulo 2564" class="cls-2" x="16.92" y="61" width="1.79" height="31.82"/><circle id="Elipse_159" data-name="Elipse 159" class="cls-2" cx="17.89" cy="59.4" r="1.65"/></g><rect id="Rectángulo_2565" data-name="Rectángulo 2565" class="cls-1" x="29.07" y="189.48" width="38.7" height="123.06"/><rect id="Rectángulo_2566" data-name="Rectángulo 2566" class="cls-1" x="60.02" y="215.16" width="42.18" height="97.39"/><rect id="Rectángulo_2567" data-name="Rectángulo 2567" class="cls-1" x="43.01" y="184.62" width="17.15" height="14.72"/><rect class="cls-1" x="481.81" y="196.77" width="30.39" height="3.61"/><rect id="Rectángulo_2572" data-name="Rectángulo 2572" class="cls-1" x="363.65" y="194.84" width="38.42" height="100.87"/><rect id="Rectángulo_2573" data-name="Rectángulo 2573" class="cls-1" x="330.27" y="245.14" width="50.57" height="50.57"/><path id="Trazado_2863" data-name="Trazado 2863" class="cls-1" d="M115.83,71.67H105.14V57.41h1.38v-2.2H96.8v-9H93.36V37.47H88.77V9.87H87.26v27.6H85.33V22.06H83.82V37.47H79.24v8.71H75.89v9H66.07v2.2h1.38V71.67H56.77V74h1.51V295.06h56V74h1.57Z"/><path id="Trazado_2864" data-name="Trazado 2864" class="cls-2" d="M185.66,171.13V325.24h97.57V171.13h-7.78V86.51h-9.12V30.6H248.67V0h-2.44V30.6h-5.46V6.22h-2.52V30.6H210.42V63.89h-5.09V86.51H191.12v84.62Z"/><path id="Trazado_2865" data-name="Trazado 2865" class="cls-2" d="M94.47,205.53v64.53h96.62V205.53h-7.77V120.9H174.2V65L146.11,40.61,118.29,65V98.28H113.2V120.9H99v84.62Z"/><rect id="Rectángulo_2575" data-name="Rectángulo 2575" class="cls-1" x="123.43" y="124.92" width="70.29" height="174.79"/><rect id="Rectángulo_2576" data-name="Rectángulo 2576" class="cls-1" x="121.37" y="122.07" width="74.28" height="4.91"/><rect id="Rectángulo_2577" data-name="Rectángulo 2577" class="cls-1" x="125.77" y="115.7" width="65.52" height="23.48"/><rect id="Rectángulo_2578" data-name="Rectángulo 2578" class="cls-1" x="160.35" y="106.03" width="25.91" height="25.68"/><path id="Trazado_2866" data-name="Trazado 2866" class="cls-1" d="M171.35,113.32h15V99.75H175.57Z"/><rect id="Rectángulo_2579" data-name="Rectángulo 2579" class="cls-1" x="178.82" y="88.65" width="1.42" height="30.03"/><ellipse id="Elipse_160" data-name="Elipse 160" class="cls-1" cx="179.6" cy="87" rx="1.28" ry="1.56"/><rect id="Rectángulo_2580" data-name="Rectángulo 2580" class="cls-1" x="88.7" y="192.37" width="41.61" height="107.29"/><rect id="Rectángulo_2581" data-name="Rectángulo 2581" class="cls-1" x="253.88" y="175.35" width="44.89" height="124.49"/><rect id="Rectángulo_2582" data-name="Rectángulo 2582" class="cls-1" x="251.54" y="173.02" width="49.15" height="4.13"/><rect id="Rectángulo_2583" data-name="Rectángulo 2583" class="cls-1" x="291.8" y="155.5" width="1.01" height="25.03"/><rect id="Rectángulo_2584" data-name="Rectángulo 2584" class="cls-1" x="285.25" y="158.71" width="1.01" height="20.13"/><rect id="Rectángulo_2585" data-name="Rectángulo 2585" class="cls-1" x="215.97" y="194.84" width="38.42" height="100.87"/><rect id="Rectángulo_2587" data-name="Rectángulo 2587" class="cls-1" x="274.57" y="236.89" width="31.59" height="58.83"/><rect id="Rectángulo_2588" data-name="Rectángulo 2588" class="cls-1" x="300.1" y="277.28" width="74.83" height="18.43"/><rect id="Rectángulo_2589" data-name="Rectángulo 2589" class="cls-1" x="245.91" y="271.32" width="38.33" height="24.39"/><rect id="Rectángulo_2590" data-name="Rectángulo 2590" class="cls-1" x="402.08" y="258.57" width="59.61" height="37.28"/><polygon class="cls-1" points="512.2 293.42 512.2 327.3 376.17 327.3 376.17 327.39 278.61 327.39 278.61 327.3 0.04 327.3 0.04 293.42 512.2 293.42"/></g><path class="cls-3" d="M360.77,214.46l-1.37-5.27s-2,.53-2.85-.31c-.37-.35-.7-1.89-.84-4.32,0-.26-1,.26-1,0,0-.52,1.73-2.89,1.58-3.85-.56-3.52-.26-4.46.76-5.46,2.26-2.21,10.21-2.54,11.29,1.32s.74,5.73-1.23,11.21l1.2,5.47Z"/><path class="cls-4" d="M368.46,208.84s-4.79,1.5-7.2,4.27-6.28,10.77-6.37,11.66,1.21,10.78,1.21,10.78l-4.32,26.17s18.46,2.86,27.69,0l-4.83-21.62s.69-7.61,1.46-8.51-.6-8.45-1.2-12a18.76,18.76,0,0,0-4.32-8.33A17.68,17.68,0,0,1,368.46,208.84Z"/><path class="cls-5" d="M364.65,269.2a.22.22,0,0,0,.13,0,.24.24,0,0,0,.06-.32l-2.58-4a.23.23,0,0,0-.32-.07.24.24,0,0,0-.07.32l2.59,4A.23.23,0,0,0,364.65,269.2Z"/><path d="M355.5,190.42a1.58,1.58,0,0,0,.52,1.26,1.46,1.46,0,0,1,1.44-1.69,2.29,2.29,0,0,1,1.94,1.21.63.63,0,0,0-1,.11,1,1,0,0,0,.4,1.12,2,2,0,0,0,1.24.29,12,12,0,0,0,3-.54,11.32,11.32,0,0,1,3-.53,4,4,0,0,1,2.79,1,2.7,2.7,0,0,1,.5,3c2.54,1,.78,5.47,0,7.43s-2.12,4.74-2.12,4.74l-2.6-2.54s2-2.31,1.12-3.35-1.78.58-1.78.58-.29,4.9-1,5.19-4.67,3.17-6.38,2.53-.78-5.63-.78-5.63l2.5-.29a4.45,4.45,0,0,0,3.93-4.57h0s-2.72.91-3.21-1.38c-1.89-.27-4.18-1.06-4.9-2.83A4.24,4.24,0,0,1,355.5,190.42Z"/><path class="cls-3" d="M389.68,251.83c.42-.65-6.21-9.62-6.88-10.47.53-.88,2.51-1.68,3-2.61,2.84,5,8.6,13.32,8.83,14,.51,1.48.73,2.31-.49,2.4s-.53,1.75-1.55,1.64-.52,1.88-1.53,1.32-.89-2.94-.89-2.94S388.09,254.36,389.68,251.83Z"/><path class="cls-4" d="M371.92,213.13c3.12,1.64,17,28.89,17,28.89l-5.55,2.85s-14.68-18.3-16.27-21.84S369.76,212,371.92,213.13Z"/><path class="cls-4" d="M352.06,232.14l3.73-.14s6.56-15.25,8.83-17.13,2.87,16-.88,21.31-5.92,4.23-13.12,1.38S352.06,232.14,352.06,232.14Z"/><path class="cls-3" d="M331.64,225.93c-.3-.68-.13-2.8.14-2.6s.5,1.37.5,1.37l.1.57s.43-.15.46,0,.17.88.17.88l.07,1.39Z"/><polygon points="334.97 228.64 333.35 222.65 332.01 217.88 330.3 218.53 333.47 228.79 334.97 228.64"/><path class="cls-3" d="M352,232.16l-1.37,5.41s-13.86-5.41-14.58-5.67l-2.56-2a21.47,21.47,0,0,1-1.87-4c-.11-.33,2.46-.49,2.46-.49a18.26,18.26,0,0,1,.21-2.1c.07-.28.66-1.53.92-.68l.58,2.46.81.81a13.41,13.41,0,0,1,.91,3Z"/><path class="cls-6" d="M357.82,240.33a4.91,4.91,0,0,0,2.88-1,11.82,11.82,0,0,0,2.58-2.9,68.24,68.24,0,0,0,5.6-9.74,18.87,18.87,0,0,0,2.09-7.18,7.07,7.07,0,0,0-1.79-5.46,4,4,0,0,0-3.38-.89.24.24,0,0,0-.19.27.23.23,0,0,0,.26.19,3.54,3.54,0,0,1,3,.77,6.57,6.57,0,0,1,1.64,5.1,18.46,18.46,0,0,1-2.05,7,65.91,65.91,0,0,1-5.56,9.68,11.49,11.49,0,0,1-2.47,2.79,4.18,4.18,0,0,1-3.4.83.24.24,0,0,0-.29.16.23.23,0,0,0,.17.28A3.5,3.5,0,0,0,357.82,240.33Z"/><path class="cls-7" d="M342.2,317.05l-2,6.07s-6.21.37-6.39.8l8.93,2.45,2.34-8.53Z"/><polygon class="cls-7" points="389.31 326.89 394.42 326.89 398.13 324.02 393.53 316.47 390.99 318.02 394.02 323.65 393.08 325.9 389.31 326.89"/><polygon class="cls-8" points="355.29 261.08 339.8 321.31 344.98 322.66 357.39 290.63 366.13 273.74 375.89 298.84 392.2 322.35 396.01 319.63 382.74 288.96 378.45 261.08 355.29 261.08"/><path class="cls-7" d="M365.45,271.47a.26.26,0,0,1-.2-.1l-2.56-4a.22.22,0,0,1,.07-.31.23.23,0,0,1,.32.07l2.56,4a.22.22,0,0,1-.07.31A.19.19,0,0,1,365.45,271.47Z"/><path class="cls-3" d="M151.5,208.77l1.47-5.64s2.12.57,3.05-.33c.39-.38.75-2,.9-4.63,0-.28,1.06.29,1.07,0,0-.55-1.85-3.08-1.69-4.11.6-3.77.28-4.78-.81-5.84-2.43-2.37-10.93-2.72-12.09,1.41s-.79,6.13,1.31,12l-1.28,5.85Z"/><path d="M172.44,316.54l2.17,6.55s6.7.4,6.89.86l-9.64,2.64-2.52-9.2Z"/><polygon points="121.6 327.16 116.08 327.16 112.08 324.06 117.04 315.92 119.78 317.58 116.51 323.66 117.53 326.09 121.6 327.16"/><polygon class="cls-9" points="158.31 256.14 175.03 321.14 169.44 322.59 156.04 288.03 146.61 269.8 136.08 296.89 118.48 322.26 114.36 319.32 128.69 286.23 133.32 256.14 158.31 256.14"/><path class="cls-8" d="M143.28,202.76s5.12,1.61,7.7,4.57,6.72,11.52,6.82,12.48-1.3,11.53-1.3,11.53l4.62,28s-19.75,3.06-29.63,0l5.17-23.14s-.74-8.14-1.57-9.11.65-9,1.3-12.79A19.83,19.83,0,0,1,141,205.4,19.74,19.74,0,0,0,143.28,202.76Z"/><path d="M112.67,255.29c.33.66-10,22.2-10.53,22.12s-5.75-3.55-6.08-4.28S109.22,255,109.71,254.4,112.67,255.29,112.67,255.29Z"/><path d="M112.67,255.29l15.14,8.92s-4.08,13.55-7.57,20.31c-.25.49-18.1-7.11-18.1-7.11L108.56,258Z"/><path d="M122,261.86s.65-3.62,0-5.72-4-2.83-7.24,1.61c-2.94,4.07-.39-.9-.39-.9l-.4-.71s3.83-5,7.53-3.08,1.65,9.75,1.65,9.75Z"/><path class="cls-3" d="M123.22,251c-.48-.68.41-2.38,1.07-3.32-.62-.9-.74-3-1.27-3.95-2.75,5.48-4.78,7.79-5,8.52-.46,1.61-.64,2.52.67,2.55s.66,1.83,1.74,1.65.67,2,1.71,1.32.79-3.19.79-3.19S125.08,253.57,123.22,251Z"/><path class="cls-8" d="M140,208.57c-3.24,1.94-20.21,39-20.21,39l5.06,2.85s3.9-7.23,6.14-9.09,3-2.67,3-6.09,10.27-12.44,11.77-16.32S142.2,207.23,140,208.57Z"/><path class="cls-10" d="M135.88,229.18h0a.25.25,0,0,0,.22-.27,43.15,43.15,0,0,1,1.07-15.06.25.25,0,0,0-.18-.3.24.24,0,0,0-.3.18A43.87,43.87,0,0,0,135.64,229,.24.24,0,0,0,135.88,229.18Z"/><path class="cls-11" d="M147.35,267.35a.26.26,0,0,0,.21-.11l2.76-4.3a.24.24,0,0,0-.07-.34.25.25,0,0,0-.34.07l-2.77,4.3a.24.24,0,0,0,.08.34A.2.2,0,0,0,147.35,267.35Z"/><polygon class="cls-9" points="176.45 222.41 179.94 214.16 183.76 215.39 177.78 225.57 176.45 222.41"/><path class="cls-3" d="M171.07,226.21l2.48-1.6s1.06-2.23,1.52-2.39a30.26,30.26,0,0,1,6.4,1c.16.25-.46,1-.46,1l-1.26.37,0,.94-1,.28a3.26,3.26,0,0,1-.53,1.4c-.39.42-5.14,1.66-5.14,1.66Z"/><path class="cls-8" d="M149.19,210.79a2.1,2.1,0,0,1,1.9,1.25,6.4,6.4,0,0,1,.49,2.34c.2,2.28.41,4.55.76,6.81a50.34,50.34,0,0,0,1.58,6.52c.11.37.27.8.65.93s.57,0,.79.16c.42.34-.08,1.24.4,1.5s.84-.35,1.26-.23c.23.05.36.27.54.41.34.25.91-.25,1.24-.38.62-.24,1.74-.72,2.36-1,1.24-.54,9.73-5,9.73-5l3.2,7.8c-7.46,4.14-14.33,7.59-22.56,7.5-2.09,0-3.12-2.5-4-4.42a65,65,0,0,1-4.68-16.4"/><path class="cls-10" d="M155.76,230.55a.25.25,0,0,0,.12-.46c-.11-.06-.11-.24-.09-.52a1.08,1.08,0,0,0-.28-1,1,1,0,0,0-.6-.17l-.27,0c-.25-.08-.38-.41-.48-.76a49.72,49.72,0,0,1-1.58-6.48c-.35-2.31-.57-4.63-.75-6.8a6.82,6.82,0,0,0-.52-2.43.26.26,0,0,0-.34-.11.25.25,0,0,0-.11.33,5.83,5.83,0,0,1,.47,2.21c.19,2.23.41,4.55.76,6.87a51.67,51.67,0,0,0,1.6,6.55c.08.29.26.91.8,1.09a1.85,1.85,0,0,0,.39.06c.14,0,.26,0,.32.07s.1.31.09.55,0,.76.35,1Z"/><path class="cls-10" d="M151.91,239.67a32.73,32.73,0,0,0,4.53-.31.23.23,0,0,0,.21-.27.25.25,0,0,0-.27-.22,34.24,34.24,0,0,1-4.85.3c-1.89,0-2.88-2.31-3.68-4.15l0-.12a.25.25,0,0,0-.32-.13.25.25,0,0,0-.13.33l.05.12c.85,2,1.92,4.42,4.13,4.45Z"/><path class="cls-3" d="M174.53,222.82c.54-.6,1.13-3.55,1.47-3.56s.94,3.15.08,4.17S174.53,222.82,174.53,222.82Z"/><path d="M156.74,191.21l-6.37.66s.49,1.88-2.22,4.34l.42,2-1,.41s.29-4-1.67-3.62.41,4.77.41,4.77l-1.6,1.86s-2.08-5-2.74-6.3-1.42-6.21.78-8c1.64-1.32,7.3-1.77,10-1.67C158,185.86,156.74,191.21,156.74,191.21Z"/><path class="cls-9" d="M101.5,276a.22.22,0,0,0,.2-.12,81.08,81.08,0,0,0,9.44-20.36.25.25,0,0,0-.47-.15,80.88,80.88,0,0,1-9.38,20.25.25.25,0,0,0,.07.34A.33.33,0,0,0,101.5,276Z"/><path class="cls-9" d="M100.39,272.11a.23.23,0,0,0,.2-.1,65.84,65.84,0,0,0,4.77-7.71.25.25,0,0,0-.1-.34.24.24,0,0,0-.33.1,65.51,65.51,0,0,1-4.74,7.66.25.25,0,0,0,.06.35A.23.23,0,0,0,100.39,272.11Z"/><path class="cls-9" d="M261.72,257.19l-13.55,2.29-13.54-2.29L234.51,323h3.13L248,264.15,249,323h3.12s5.44-24.78,5.68-27-.82-9.22-.82-9.22Z"/><path class="cls-12" d="M237.55,209.34a117.68,117.68,0,0,1,2.13-13.44c1.22-4.5,6-6.14,9-5.86s8.51,1.47,8.59,8.34a67.71,67.71,0,0,0,1,11.39Z"/><path class="cls-8" d="M238.66,226.1l1.7,11.15c-4.47,6.52-6.84,16.37-8.06,23.92h32.36c-2.84-17-9.23-23.85-9.23-23.85L258,226c2.32-2.2,2.45-5.68,2.45-7.23v-5.8s-10.32-5-12.64-5S236,212.42,236,212.42v6.19A8.56,8.56,0,0,0,238.66,226.1Z"/><path d="M240.11,256l.88-45.78s-5.13,1.29-6.71,2.77-4.47,39.37-4.47,39.37c-.06,1.09-.14,2.32-.21,3.64Z"/><path class="cls-13" d="M257.92,225.93a.33.33,0,0,1-.13,0,.25.25,0,0,1-.08-.34,9.36,9.36,0,0,0,.67-8.56.26.26,0,0,1,0-.21c.19-.36.36-.74.53-1.13s.36-.79.55-1.16a.25.25,0,0,1,.33-.11.24.24,0,0,1,.1.33c-.18.36-.36.75-.53,1.14s-.33.72-.5,1.05a9.88,9.88,0,0,1-.74,8.91A.25.25,0,0,1,257.92,225.93Z"/><path class="cls-3" d="M245.74,204.55v5.68s2.88,4.86,5.52.11l-.23-5.79Z"/><path class="cls-3" d="M246.9,191.1c-4.9.64-5.68,6.29-4.5,10.76.88,3.34,2.87,6.71,6,6.63s5-4.38,5.6-7C254.91,197.24,254.75,190.07,246.9,191.1Z"/><path class="cls-14" d="M243,200.63s-.19-1.88-1.7-1.25.33,4.85,2,4.36S243,200.63,243,200.63Z"/><path class="cls-14" d="M253,200.53s.05-1.88,1.6-1.37,0,4.86-1.69,4.5S253,200.53,253,200.53Z"/><path class="cls-12" d="M253.55,192.49a3.26,3.26,0,0,0-1.23-.25,1.26,1.26,0,0,0-.58-.72c-1.71-.92-5.76-.78-7.54,0s-3.84,4.06-4.31,5.95,0,4.11.49,6.11a2.25,2.25,0,0,0,.86,1.51,2.06,2.06,0,0,0,1.47,0,15.28,15.28,0,0,0,7.22-4.22,10.28,10.28,0,0,0,.8-.93h0a11.1,11.1,0,0,0,3.42,4.82,1,1,0,0,0,.6.27c.36,0,.58-.39.72-.71a9.94,9.94,0,0,0,1.16-3.79C256.68,199.23,254.76,193,253.55,192.49Z"/><path class="cls-15" d="M248.44,208.73a4.23,4.23,0,0,1-2.14-.57.25.25,0,0,1-.08-.34.24.24,0,0,1,.33-.08,3.87,3.87,0,0,0,4-.13.24.24,0,0,1,.34.06.25.25,0,0,1-.07.34A4.21,4.21,0,0,1,248.44,208.73Z"/><path d="M265.15,256c-.07-1.06-3.12-41.54-4.69-43s-6.08-2.79-6.08-2.79l.54,45.8Z"/><path d="M260.46,212.94c1.61,1.1,2.65,4.12,3.38,6.61s5.53,14.39,6.5,17.43-4.8,3.69-7.11,3.06-7.39-3.75-7.39-3.75l-.2-4.84,2.5.35Z"/><path d="M234.28,212.94c-1.61,1.1-2.57,4.12-3.29,6.61s-5.54,14.39-6.51,17.43,4.8,3.69,7.11,3.06,7.39-3.75,7.39-3.75l.21-4.84-2.51.35Z"/><polygon points="237.63 323.03 236.66 326.98 231.22 326.98 233.94 325.01 234.51 323.03 237.63 323.03"/><polygon points="248.99 323.03 248.99 326.98 254.43 326.98 251.71 325.01 252.11 323.03 248.99 323.03"/><polygon class="cls-6" points="233.68 232.3 234.51 219.11 257.92 219.11 258.71 234.54 233.68 234.54 233.68 232.3"/><path class="cls-3" d="M262.81,231.45s-1.24-2.42-2-2.4l-1,2.21s-4.05-.74-4.12-.49-.36,1.37-.36,1.37l1.68.09s-.39.74-.26,1a1.88,1.88,0,0,0,.48.47,5,5,0,0,0,.14,1.38c.18.66,0,1.22.44,1.73s4.19-.14,4.7-.28l.15-.07a2.8,2.8,0,0,0,.1-5Z"/><path class="cls-3" d="M230.74,232.49s1.24-2.42,2-2.4l1,2.21s4.06-.74,4.12-.5.36,1.38.36,1.38l-1.68.09s.4.74.26,1a2.13,2.13,0,0,1-.47.47,5.39,5.39,0,0,1-.14,1.37c-.18.67,0,1.23-.45,1.74s-4.18-.14-4.7-.29l-.15-.06a2.8,2.8,0,0,1-.09-5Z"/><path class="cls-9" d="M230.08,232.43a.25.25,0,0,1-.21-.12,12.1,12.1,0,0,0-1.59-2.17.24.24,0,0,1,.36-.33,12.58,12.58,0,0,1,1.65,2.26.24.24,0,0,1-.09.33Z"/><path class="cls-9" d="M262.74,230.55l-.07,0a.24.24,0,0,1-.16-.3,3.45,3.45,0,0,1,1.48-1.88.24.24,0,0,1,.25.42,2.94,2.94,0,0,0-1.27,1.61A.25.25,0,0,1,262.74,230.55Z"/><path class="cls-9" d="M230.25,240.14a.24.24,0,0,1-.24-.24.24.24,0,0,1,.23-.25,2.36,2.36,0,0,0,1.86-1.09.24.24,0,1,1,.41.26,2.84,2.84,0,0,1-2.25,1.32Z"/><path class="cls-9" d="M264.29,239.66a.19.19,0,0,1-.12,0,8.6,8.6,0,0,1-2.64-2.35.25.25,0,0,1,.05-.34.24.24,0,0,1,.34,0,8.06,8.06,0,0,0,2.5,2.22.26.26,0,0,1,.09.33A.26.26,0,0,1,264.29,239.66Z"/><path class="cls-9" d="M265.05,236.1l-.09,0a.24.24,0,0,1-.14-.31,4.09,4.09,0,0,0-.6-3.79.23.23,0,0,1,0-.34.25.25,0,0,1,.34,0,4.59,4.59,0,0,1,.68,4.25A.26.26,0,0,1,265.05,236.1Z"/><path class="cls-9" d="M228.81,236.74a.25.25,0,0,1-.21-.11,3.62,3.62,0,0,1,.23-3.93.25.25,0,0,1,.39.3,3.1,3.1,0,0,0-.2,3.38.25.25,0,0,1-.09.33Z"/><path d="M106.44,163a16,16,0,1,0,0,31.94,15.9,15.9,0,0,0,7.24-1.74l8.6,2.25h.15a.51.51,0,0,0,.37-.18.63.63,0,0,0,.15-.55l-2.62-7.83a16.33,16.33,0,0,0,2.1-7.94h0a15.93,15.93,0,0,0-16-15.95Zm-10,23.22a2.05,2.05,0,0,1-.37-2.4c.74-1.4,3.25-2.88,3.54-3.06a1.89,1.89,0,0,1,1.07-.34,1.38,1.38,0,0,1,1.26.71c.37.44.81.92.92,1a1.47,1.47,0,0,0,2.14-.26l4.29-4.28a1.44,1.44,0,0,0,.26-2.14c-.11-.08-.63-.56-1-.93a1.26,1.26,0,0,1-.66-.85,2.52,2.52,0,0,1,.29-1.55c.15-.29,1.63-2.8,3.07-3.54a2.14,2.14,0,0,1,2.36.37l.93.92a5.3,5.3,0,0,1,1.66,5.24,10.65,10.65,0,0,1-3.14,5l-5.5,5.5q-3.27,3.33-6.21,3.33h0a5.49,5.49,0,0,1-4-1.81l-.92-.93Z"/><path d="M396.11,160.42v14s-2.58-3.68-5.49-5.13c-4.53-2.36-13.93-1.91-13.93-1.91Z"/><path d="M394.3,137.69H342.8a1.74,1.74,0,0,0-1.77,1.77h0v26.18a1.74,1.74,0,0,0,1.77,1.76h51.5a1.74,1.74,0,0,0,1.77-1.76h0V139.46a1.74,1.74,0,0,0-1.77-1.77ZM359.45,156a3.54,3.54,0,0,1-1,1,5.21,5.21,0,0,1-1.45.59,6.93,6.93,0,0,1-1.72.19,9.56,9.56,0,0,1-2.73-.41,8.32,8.32,0,0,1-2.35-1l1.13-2.13a4.35,4.35,0,0,0,1.5.91,5.06,5.06,0,0,0,1.18.36,6.48,6.48,0,0,0,1.31.14c1.27,0,1.86-.37,1.86-1a.84.84,0,0,0-.18-.54,1.17,1.17,0,0,0-.54-.41,4.91,4.91,0,0,0-.86-.32,5,5,0,0,1-1.18-.36,17.24,17.24,0,0,1-1.73-.55,6,6,0,0,1-1.18-.68,2,2,0,0,1-.63-.86,2.43,2.43,0,0,1-.19-1.14,3.25,3.25,0,0,1,.37-1.49,3.51,3.51,0,0,1,.91-1.14,5.41,5.41,0,0,1,1.36-.68,7.44,7.44,0,0,1,1.72-.18,6.85,6.85,0,0,1,2.36.41,10.1,10.1,0,0,1,1.86.86l-.91,1.91c-.13-.14-.31-.23-.45-.37a3.82,3.82,0,0,0-.73-.36,3.51,3.51,0,0,0-1-.27,4.54,4.54,0,0,0-1.13-.14,2.28,2.28,0,0,0-1.32.28.87.87,0,0,0-.45.77.9.9,0,0,0,.18.54,5.24,5.24,0,0,0,.55.41,2.47,2.47,0,0,0,.86.27c.32.05.73.18,1.13.27a9.12,9.12,0,0,1,1.59.46,6.74,6.74,0,0,1,1.27.68,2.41,2.41,0,0,1,1.05,2.22,4.36,4.36,0,0,1-.46,1.77Zm14.93,1.73h-2.45v-7l-3.22,5.12h-1.32l-3.17-5.12v6.94h-2.45V146.44h2.63l3.67,6.08,3.68-6.08h2.58Zm11-1.73a3.51,3.51,0,0,1-1,1,5.39,5.39,0,0,1-1.46.59,6.93,6.93,0,0,1-1.72.19,9.5,9.5,0,0,1-2.72-.41,8.38,8.38,0,0,1-2.36-1l1.13-2.13a5.92,5.92,0,0,0,.59.46,6.42,6.42,0,0,0,.91.45,5.06,5.06,0,0,0,1.18.36,6.5,6.5,0,0,0,1.32.14c1.27,0,1.86-.37,1.86-1a.85.85,0,0,0-.19-.54,1.12,1.12,0,0,0-.54-.41,4.37,4.37,0,0,0-.86-.32,5.16,5.16,0,0,1-1.18-.36c-.68-.19-1.27-.37-1.73-.55a6.67,6.67,0,0,1-1.18-.68,2.82,2.82,0,0,1-.68-.86,3.28,3.28,0,0,1-.18-1.14,3.22,3.22,0,0,1,.32-1.49,3.64,3.64,0,0,1,.91-1.14,5.77,5.77,0,0,1,1.36-.68,7.44,7.44,0,0,1,1.72-.18,6.81,6.81,0,0,1,2.36.41,10.1,10.1,0,0,1,1.86.86l-.9,1.91c-.14-.14-.32-.23-.46-.37a4,4,0,0,0-.72-.36,3.69,3.69,0,0,0-1-.27,4.68,4.68,0,0,0-1.14-.14,2.25,2.25,0,0,0-1.31.28.88.88,0,0,0-.46.77.85.85,0,0,0,.19.54,5.06,5.06,0,0,0,.54.41,2.47,2.47,0,0,0,.86.27c.36.05.73.18,1.14.27a9.27,9.27,0,0,1,1.58.46,6.45,6.45,0,0,1,1.27.68,2.52,2.52,0,0,1,1,2.22,3.17,3.17,0,0,1-.37,1.77Z"/><path d="M247.45,173.28s-9.3-.45-13.84,1.91c-2.91,1.45-5.45,5.12-5.45,5.12V166.38Z"/><path d="M252,160.3a1.51,1.51,0,0,1,1.5,1.5h0a1.5,1.5,0,1,1-1.5-1.5Z"/><path d="M259,160.3a1.52,1.52,0,0,1,1.5,1.5h0a1.5,1.5,0,1,1-1.5-1.5Z"/><path d="M282.84,145.78a1.7,1.7,0,0,0-1.77-1.72H229.93a1.78,1.78,0,0,0-1.77,1.77v26h0a1.77,1.77,0,0,0,1.77,1.77h51.14a1.77,1.77,0,0,0,1.77-1.77V145.78ZM263.51,160.3l-.05,3v1a3,3,0,0,1-3,3h-9.94a3,3,0,0,1-3-3v-5a3,3,0,0,1,3-3h4V154a1.87,1.87,0,0,1-.73-.72,2,2,0,1,1,2.72.72v2.27h4a3,3,0,0,1,3,3Z"/></g></g></svg>