<?xml version="1.0" encoding="utf-8"?>
<!-- Generator: Adobe Illustrator 23.0.2, SVG Export Plug-In . SVG Version: 6.00 Build 0)  -->
<svg version="1.1" id="Capa_1" xmlns="http://www.w3.org/2000/svg" xmlns:xlink="http://www.w3.org/1999/xlink" x="0px" y="0px"
	 viewBox="0 0 139.6 139.7" style="enable-background:new 0 0 139.6 139.7;" xml:space="preserve">
<style type="text/css">
	.st0{fill:#406E9D;}
</style>
<title>Recurso 16svg</title>
<g>
	<g id="Layer_1">
		<path class="st0" d="M70.9,0C33,0,2.3,30.7,2.3,68.6c0,0,0,0,0,0.1c0,12,3.1,23.7,9,34.1L0.1,136.5c-0.2,0.9,0,1.7,0.6,2.4
			c0.4,0.5,1,0.7,1.6,0.8h0.6l36.9-9.6c9.7,4.9,20.3,7.4,31.1,7.4c38,0,68.7-30.8,68.7-68.8C139.6,30.8,108.9,0,70.9,0z M113.9,100
			l-4,4c-5.2,5.2-10.8,7.8-17.1,7.8l0,0c-8.4,0-17.3-4.8-26.7-14.2L42.4,73.9C35,66.4,30.4,59.2,29,52.4c-2-8.2,0.4-15.9,7.2-22.5
			l4-4c2.7-2.6,6.8-3.2,10.2-1.6c6.2,3.2,12.6,14,13.2,15.3c1.1,2,1.6,4.3,1.2,6.6c-0.4,1.5-1.4,2.9-2.8,3.6c-1.8,1.6-4,3.6-4.4,4
			c-2.4,3.4-2,6.2,1,9.2l18.5,18.5c3,3,5.6,3.4,9.2,1c0.4-0.4,2.4-2.6,4-4.4c1.1-1.9,3.2-3.1,5.4-3c1.7,0,3.3,0.5,4.6,1.4
			c1.2,0.8,12,7.2,15.2,13.2C117.1,93.2,116.4,97.2,113.9,100L113.9,100z"/>
	</g>
</g>
</svg>
