<?xml version="1.0" encoding="utf-8"?>
<!-- Generator: Adobe Illustrator 23.0.2, SVG Export Plug-In . SVG Version: 6.00 Build 0)  -->
<svg version="1.1" id="Capa_1" xmlns="http://www.w3.org/2000/svg" xmlns:xlink="http://www.w3.org/1999/xlink" x="0px" y="0px"
	 viewBox="0 0 144.3 145" style="enable-background:new 0 0 144.3 145;" xml:space="preserve">
<style type="text/css">
	.st0{fill:#1E3853;}
</style>
<title>Recurso 11svg</title>
<g>
	<g id="Layer_1">
		<path class="st0" d="M58.3,116.5C26.1,116.5,0,90.4,0,58.3S26.1,0,58.3,0s58.3,26.1,58.3,58.3C116.5,90.4,90.4,116.5,58.3,116.5z
			 M58.3,9.3C31,9.3,8.9,31.4,8.9,58.6s22.1,49.3,49.3,49.3s49.3-22.1,49.3-49.3C107.5,31.4,85.5,9.3,58.3,9.3z"/>
		
			<rect x="113.5" y="87.4" transform="matrix(0.7129 -0.7013 0.7013 0.7129 -49.1326 116.733)" class="st0" width="8.9" height="61.9"/>
		<circle class="st0" cx="140" cy="140.7" r="4.3"/>
		<circle class="st0" cx="83.1" cy="38.1" r="4.3"/>
		<circle class="st0" cx="29.1" cy="62.2" r="4.3"/>
		<polygon class="st0" points="44,81.8 25.8,65.2 31.8,58.6 44,69.8 79.8,35.1 86.1,41.4 		"/>
	</g>
</g>
</svg>
