<?xml version="1.0" encoding="utf-8"?>
<!-- Generator: Adobe Illustrator 23.0.2, SVG Export Plug-In . SVG Version: 6.00 Build 0)  -->
<svg version="1.1" id="Capa_1" xmlns="http://www.w3.org/2000/svg" xmlns:xlink="http://www.w3.org/1999/xlink" x="0px" y="0px"
	 viewBox="0 0 417.5 385.2" style="enable-background:new 0 0 417.5 385.2;" xml:space="preserve">
<style type="text/css">
	.st0{fill:#C7CFD1;}
	.st1{fill:#F0FBFF;}
	.st2{fill:#FAFFFF;}
	.st3{fill:#C8D4EA;}
	.st4{fill:#FFFFFF;}
	.st5{fill:#868688;}
	.st6{fill:#858587;}
	.st7{fill:#848486;}
	.st8{fill:#838385;}
	.st9{fill:#828284;}
	.st10{fill:#818183;}
	.st11{fill:#818182;}
	.st12{fill:#808081;}
	.st13{fill:#7F7F80;}
	.st14{fill:#7E7E7F;}
	.st15{fill:#7D7D7E;}
	.st16{fill:#7C7C7D;}
	.st17{fill:#7B7B7C;}
	.st18{fill:#7A7A7B;}
	.st19{fill:#79797A;}
	.st20{fill:#787879;}
	.st21{fill:#777778;}
	.st22{fill:#767677;}
	.st23{fill:#757576;}
	.st24{fill:#747475;}
	.st25{fill:#737374;}
	.st26{fill:#727273;}
	.st27{fill:#717172;}
	.st28{fill:#707071;}
	.st29{fill:#6F6F70;}
	.st30{fill:#6E6E6F;}
	.st31{fill:#6D6D6E;}
	.st32{fill:#6C6C6D;}
	.st33{fill:#6B6B6C;}
	.st34{fill:#6B6B6B;}
	.st35{fill:#6A6A6A;}
	.st36{fill:#696969;}
	.st37{fill:#686868;}
	.st38{fill:#676767;}
	.st39{fill:#666666;}
	.st40{fill:#FF8800;}
	.st41{enable-background:new    ;}
	.st42{font-family:'Raleway-Medium';}
	.st43{font-size:22.2779px;}
</style>
<title>Recurso 23svg</title>
<g id="XMLID_10_">
	<g id="XMLID_11_">
		<g id="XMLID_28_">
			<g id="XMLID_30_">
				<g id="XMLID_32_">
					<path id="XMLID_36_" class="st0" d="M385.4,268.3l0.1,5.7c0.2,2.3-1.5,4.2-3.4,5.4l-88.8,52.3c-11.5,6.5-12.6,6.7-24.6,0.1
						l-30.6-18.3c-1.8-1.1-2.9-3-2.9-5.1l0.1-6.1l39.8,24.6c4.6,2.7,8,1.9,12.1-0.5L385.4,268.3z"/>
					<path id="XMLID_35_" class="st1" d="M237.2,306.8l32.7,19.3c10.2,5.7,13.2,4.4,22.2-0.9l91.3-53.2c2.6-1.5,2.6-5.3,0-6.8
						l-35.8-20.5c-4.6-2.7-10.5-2.7-15.5,0.2l-94.9,54.8C234.4,301.2,234.4,305.2,237.2,306.8z"/>
					<path id="XMLID_34_" class="st2" d="M238.2,306.2l32.1,18.6c10.7,5.6,11,5.4,22.6-1.1l0,0l89.3-52.1c2.1-1.4,2.6-4.7,0.1-6.1
						l-34.9-19.9c-4.5-2.6-10.2-2.6-15.1,0.2l-92.6,53.1C235.5,300.9,235.1,304,238.2,306.2L238.2,306.2z"/>
					<polygon id="XMLID_33_" class="st3" points="368.3,276.3 325.9,251.7 250.1,295.3 292,319.6 					"/>
				</g>
				<g id="XMLID_31_">
					<path class="st2" d="M267.9,317.2l3.1-1.8c0.4-0.2,0.4-0.7,0-0.9l-14.5-8.4c-0.4-0.2-0.8-0.2-1.1,0l-3,1.8
						c-0.4,0.2-0.4,0.7,0,1l14.5,8.5C267.3,317.4,267.6,317.4,267.9,317.2z"/>
					<path class="st4" d="M266.9,317.2l-14.5-8.5c-0.2-0.1-0.3-0.3-0.3-0.5c0-0.2,0.1-0.4,0.3-0.5l3-1.8c0.4-0.2,0.8-0.2,1.2,0
						l14.5,8.4c0.2,0.1,0.3,0.3,0.3,0.5c0,0.2-0.1,0.4-0.3,0.5l-3.1,1.8c-0.2,0.1-0.3,0.1-0.5,0.1
						C267.3,317.3,267.1,317.3,266.9,317.2z M255.4,306l-3,1.8c-0.2,0.1-0.3,0.3-0.3,0.5c0,0.2,0.1,0.4,0.3,0.5l14.5,8.5
						c0.3,0.2,0.7,0.2,1,0l3.1-1.8c0.2-0.1,0.3-0.3,0.3-0.5c0-0.2-0.1-0.4-0.3-0.5l-14.5-8.4c-0.2-0.1-0.4-0.2-0.6-0.2
						C255.8,305.9,255.6,305.9,255.4,306z"/>
				</g>
			</g>
			<path id="XMLID_29_" class="st2" d="M268,317.1l3.1-1.8c0.4-0.2,0.4-0.7,0-0.9l-14.3-8.3c-0.4-0.2-0.8-0.2-1.1,0l-3,1.8
				c-0.4,0.3-0.3,0.8,0.1,1.1l14.2,8.3C267.3,317.3,267.6,317.3,268,317.1z"/>
		</g>
		<g id="XMLID_21_">
			<path id="XMLID_2_" class="st5" d="M349.7,254.2l5.5,3.3l5.5,3.3c0.3,0.2,0.4,0.5,0.2,0.8l0,0c-0.2,0.3-0.5,0.4-0.8,0.2l-5.5-3.3
				l-5.5-3.3c-0.3-0.2-0.4-0.5-0.2-0.8v0C349.1,254.1,349.5,254,349.7,254.2z"/>
			<path class="st6" d="M348.9,254.4c0.2-0.3,0.5-0.4,0.8-0.2l5.4,3.2l0.1,0.1l5.3,3.1c0,0,0.2,0.1,0.2,0.1c0.2,0.1,0.3,0.3,0.3,0.5
				c0,0,0,0,0,0c0,0.1,0,0.2,0,0.2c0,0,0,0,0,0.1l0,0c-0.2,0.3-0.5,0.3-0.8,0.2l-5.5-3.3l-5.5-3.3c-0.1,0-0.1-0.1-0.2-0.1
				C348.9,254.9,348.8,254.6,348.9,254.4z"/>
			<path class="st7" d="M348.9,254.4c0.2-0.3,0.5-0.4,0.8-0.2l5.4,3.2l0.1,0.1l5.3,3.1c0,0,0.2,0.1,0.2,0.1c0.2,0.1,0.3,0.3,0.3,0.5
				c0,0,0,0,0,0c0,0.1,0,0.2-0.1,0.2c0,0,0,0,0,0.1l0,0c-0.1,0.2-0.5,0.3-0.8,0.1l-5.5-3.3l-5.5-3.3c-0.1,0-0.1-0.1-0.2-0.1
				C348.9,254.8,348.8,254.6,348.9,254.4z"/>
			<path class="st8" d="M348.9,254.4c0.2-0.3,0.5-0.4,0.8-0.2l5.4,3.2l0.1,0.1l5.3,3.2c0,0,0.2,0.1,0.2,0.1c0.2,0.1,0.3,0.3,0.3,0.5
				c0,0,0,0,0,0c0,0.1,0,0.2-0.1,0.2c0,0,0,0,0,0.1l0,0c-0.1,0.2-0.5,0.3-0.7,0.1l-5.5-3.3l-5.5-3.3c-0.1,0-0.1-0.1-0.2-0.1
				C348.9,254.8,348.8,254.6,348.9,254.4z"/>
			<path class="st9" d="M349,254.4c0.2-0.3,0.5-0.4,0.8-0.2l5.4,3.2l0.1,0.1l5.3,3.2c0,0,0.2,0.1,0.2,0.1c0.2,0.1,0.3,0.3,0.3,0.5
				c0,0,0,0,0,0c0,0.1,0,0.2-0.1,0.2c0,0,0,0,0,0.1l0,0c-0.1,0.2-0.5,0.3-0.7,0.1l-5.5-3.3l-5.5-3.3c-0.1,0-0.1-0.1-0.2-0.1
				C348.9,254.8,348.9,254.6,349,254.4z"/>
			<path class="st10" d="M349,254.4c0.2-0.3,0.5-0.4,0.8-0.2l5.4,3.2l0.1,0.1l5.3,3.2c0,0,0.2,0.1,0.2,0.2c0.2,0.1,0.3,0.3,0.2,0.5
				c0,0,0,0,0,0c0,0.1,0,0.2-0.1,0.2c0,0,0,0,0,0.1l0,0c-0.1,0.2-0.4,0.2-0.7,0.1l-5.5-3.3l-5.5-3.3c-0.1,0-0.1-0.1-0.2-0.1
				C348.9,254.8,348.9,254.6,349,254.4z"/>
			<path class="st11" d="M349,254.4c0.2-0.3,0.5-0.4,0.8-0.2l5.4,3.2l0.1,0.1l5.3,3.2c0,0,0.2,0.1,0.2,0.2c0.2,0.1,0.2,0.3,0.2,0.5
				c0,0,0,0,0,0c0,0.1,0,0.2-0.1,0.2c0,0,0,0,0,0.1l0,0c-0.1,0.2-0.4,0.2-0.7,0l-5.5-3.3l-5.5-3.3c-0.1,0-0.1-0.1-0.2-0.1
				C348.9,254.8,348.9,254.6,349,254.4z"/>
			<path class="st12" d="M349,254.4c0.2-0.3,0.5-0.4,0.8-0.2l5.5,3.2l0.1,0.1l5.3,3.2c0,0,0.2,0.1,0.2,0.2c0.2,0.1,0.2,0.3,0.2,0.5
				c0,0,0,0,0,0c0,0.1,0,0.2-0.1,0.2c0,0,0,0,0,0l0,0c-0.1,0.2-0.4,0.2-0.7,0l-5.5-3.3l-5.5-3.3c0,0-0.1-0.1-0.2-0.1
				C349,254.8,348.9,254.5,349,254.4z"/>
			<path class="st13" d="M349,254.4c0.2-0.3,0.5-0.3,0.8-0.2l5.5,3.2l0.1,0.1l5.3,3.2c0,0,0.2,0.1,0.2,0.2c0.2,0.1,0.2,0.3,0.2,0.5
				c0,0,0,0,0,0c0,0.1,0,0.2-0.1,0.2c0,0,0,0,0,0l0,0c-0.1,0.2-0.4,0.1-0.7,0l-5.5-3.3l-5.5-3.3c0,0-0.1-0.1-0.2-0.1
				C349,254.7,348.9,254.5,349,254.4z"/>
			<path class="st14" d="M349,254.4c0.2-0.3,0.5-0.3,0.8-0.2l5.5,3.2l0.1,0.1l5.3,3.2c0,0,0.2,0.1,0.2,0.2c0.2,0.1,0.2,0.3,0.2,0.5
				c0,0,0,0,0,0c0,0.1,0,0.2-0.1,0.2c0,0,0,0,0,0l0,0c-0.1,0.1-0.4,0.1-0.6-0.1l-5.5-3.3l-5.5-3.3c0,0-0.1-0.1-0.2-0.1
				C349,254.7,348.9,254.5,349,254.4z"/>
			<path class="st15" d="M349,254.4c0.2-0.3,0.5-0.3,0.8-0.2l5.5,3.2l0.1,0.1l5.3,3.2c0,0,0.2,0.1,0.2,0.2c0.2,0.1,0.2,0.3,0.2,0.5
				c0,0,0,0,0,0c0,0.1,0,0.2-0.1,0.2c0,0,0,0,0,0l0,0c-0.1,0.1-0.4,0.1-0.6-0.1l-5.5-3.3l-5.5-3.3c0,0-0.1-0.1-0.2-0.1
				C349,254.7,348.9,254.5,349,254.4z"/>
			<path class="st16" d="M349,254.4c0.2-0.3,0.5-0.3,0.8-0.2l5.5,3.2l0.1,0.1l5.4,3.2c0,0,0.2,0.1,0.2,0.2c0.2,0.1,0.2,0.3,0.2,0.5
				c0,0,0,0,0,0c0,0.1,0,0.2-0.1,0.2c0,0,0,0,0,0l0,0c-0.1,0.1-0.3,0.1-0.6-0.1l-5.5-3.3l-5.5-3.3c0,0-0.1-0.1-0.2-0.1
				C349,254.7,348.9,254.5,349,254.4z"/>
			<path class="st17" d="M349,254.4c0.2-0.3,0.5-0.3,0.8-0.2l5.5,3.2l0.1,0.1l5.4,3.2c0,0,0.2,0.1,0.2,0.2c0.1,0.2,0.2,0.3,0.2,0.5
				c0,0,0,0,0,0c0,0.1,0,0.2-0.1,0.2c0,0,0,0,0,0l0,0c-0.1,0.1-0.3,0-0.6-0.1l-5.5-3.3l-5.5-3.3c0,0-0.1-0.1-0.2-0.1
				C349,254.7,348.9,254.5,349,254.4z"/>
			<path class="st18" d="M349,254.4c0.2-0.3,0.5-0.3,0.8-0.2l5.5,3.2l0.1,0.1l5.4,3.2c0,0,0.2,0.1,0.2,0.2c0.1,0.2,0.2,0.3,0.2,0.5
				c0,0,0,0,0,0c0,0.1,0,0.2-0.1,0.2c0,0,0,0,0,0l0,0c0,0.1-0.3,0-0.6-0.2l-5.5-3.3l-5.5-3.3c0,0-0.1-0.1-0.2-0.1
				C349.1,254.6,349,254.5,349,254.4z"/>
			<path class="st19" d="M349,254.4c0.2-0.3,0.5-0.3,0.8-0.2l5.5,3.2l0.1,0.1l5.4,3.2c0,0,0.2,0.1,0.2,0.2c0.1,0.2,0.2,0.3,0.2,0.5
				c0,0,0,0,0,0c0,0.1-0.1,0.2-0.1,0.2c0,0,0,0,0,0l0,0c0,0.1-0.3,0-0.6-0.2l-5.5-3.3l-5.5-3.2c0,0-0.1-0.1-0.2-0.1
				C349.1,254.6,349,254.5,349,254.4z"/>
			<path class="st20" d="M349,254.4c0.2-0.3,0.5-0.3,0.8-0.2l5.5,3.2l0.1,0.1l5.4,3.2c0,0,0.2,0.1,0.2,0.2c0.1,0.2,0.2,0.3,0.2,0.5
				c0,0,0,0,0,0c0,0.1-0.1,0.2-0.1,0.2c0,0,0,0,0,0l0,0c0,0-0.3-0.1-0.5-0.2l-5.5-3.3l-5.5-3.2c0,0-0.1-0.1-0.2-0.1
				C349.1,254.6,349,254.4,349,254.4z"/>
			<path class="st21" d="M349,254.4c0.2-0.3,0.5-0.3,0.8-0.2l5.5,3.2l0.1,0.1l5.4,3.2c0,0,0.2,0.1,0.2,0.2c0.1,0.2,0.2,0.3,0.2,0.5
				c0,0,0,0,0,0c0,0.1-0.1,0.2-0.1,0.2c0,0,0,0,0,0l0,0c0,0-0.3-0.1-0.5-0.3l-5.5-3.3l-5.5-3.2c0,0-0.1-0.1-0.2-0.1
				C349.1,254.6,349,254.4,349,254.4z"/>
			<path class="st22" d="M349,254.4c0.2-0.2,0.5-0.3,0.8-0.2l5.5,3.3l0.1,0.1l5.4,3.2c0,0,0.2,0.1,0.2,0.2c0.1,0.2,0.2,0.3,0.1,0.5
				c0,0,0,0,0,0c0,0.1-0.1,0.2-0.1,0.2c0,0,0,0,0,0l0,0c0,0-0.2-0.1-0.5-0.3l-5.5-3.3l-5.5-3.2c0,0-0.1-0.1-0.2-0.1
				C349.1,254.6,349,254.4,349,254.4z"/>
			<path class="st22" d="M349,254.4c0.2-0.2,0.5-0.3,0.8-0.2l5.5,3.3l0.1,0.1l5.4,3.2c0,0,0.2,0.1,0.2,0.2c0.1,0.2,0.2,0.3,0.1,0.5
				c0,0,0,0,0,0c0,0.1-0.1,0.2-0.1,0.2c0,0,0,0,0,0l0,0c0,0-0.2-0.1-0.5-0.3l-5.5-3.3l-5.5-3.2c0,0-0.1-0.1-0.2-0.1
				C349.1,254.5,349,254.4,349,254.4z"/>
			<path class="st23" d="M349,254.4c0.2-0.2,0.5-0.3,0.8-0.2l5.5,3.3l0.1,0.1l5.4,3.2c0,0,0.2,0.1,0.2,0.2c0.1,0.2,0.2,0.3,0.1,0.5
				c0,0,0,0,0,0c0,0.1-0.1,0.2-0.1,0.2c0,0,0,0,0,0l0,0c0,0-0.2-0.2-0.5-0.3l-5.5-3.3l-5.5-3.2c0,0-0.1-0.1-0.2-0.1
				C349.2,254.5,349,254.4,349,254.4z"/>
			<path class="st24" d="M349,254.4c0.2-0.2,0.5-0.3,0.8-0.2l5.5,3.3l0.1,0.1l5.4,3.2c0.1,0,0.2,0.1,0.2,0.2
				c0.1,0.2,0.2,0.4,0.1,0.5c0,0,0,0,0,0c0,0.1-0.1,0.2-0.1,0.2c0,0,0,0,0,0l0,0c0,0-0.2-0.2-0.5-0.4L355,258l-5.5-3.2
				c0,0-0.1-0.1-0.2-0.1C349.2,254.5,349,254.4,349,254.4z"/>
			<path class="st25" d="M349,254.4c0.2-0.2,0.5-0.3,0.8-0.2l5.5,3.3l0.1,0.1l5.4,3.2c0.1,0,0.2,0.1,0.2,0.2
				c0.1,0.2,0.2,0.4,0.1,0.5c0,0,0,0,0,0c0,0.1-0.1,0.2-0.1,0.2c0,0,0,0,0,0l0,0c0-0.1-0.2-0.2-0.4-0.4L355,258l-5.4-3.2
				c0,0-0.1-0.1-0.2-0.1C349.2,254.5,349,254.4,349,254.4z"/>
			<path class="st26" d="M349,254.4c0.2-0.2,0.5-0.3,0.8-0.2l5.5,3.3l0.1,0.1l5.4,3.2c0.1,0,0.2,0.1,0.2,0.2
				c0.1,0.2,0.2,0.4,0.1,0.5c0,0,0,0,0,0c0,0.1-0.1,0.2-0.1,0.2c0,0,0,0,0,0l0,0c0-0.1-0.1-0.3-0.4-0.4l-5.5-3.3l-5.4-3.2
				c0,0-0.1-0.1-0.2-0.1C349.2,254.5,349,254.4,349,254.4z"/>
			<path class="st27" d="M349,254.4c0.2-0.2,0.5-0.3,0.8-0.2l5.5,3.3l0.1,0.1l5.4,3.2c0.1,0,0.2,0.1,0.2,0.2
				c0.1,0.2,0.2,0.4,0.1,0.6c0,0,0,0,0,0c0,0.1-0.1,0.2-0.1,0.2c0,0,0,0,0,0l0,0c0.1-0.1-0.1-0.3-0.4-0.5l-5.5-3.3l-5.4-3.2
				c0,0-0.1-0.1-0.2-0.1C349.2,254.4,349.1,254.4,349,254.4z"/>
			<path class="st28" d="M349,254.4c0.2-0.2,0.5-0.3,0.8-0.2l5.5,3.3l0.1,0.1l5.4,3.2c0.1,0,0.2,0.1,0.2,0.2
				c0.1,0.2,0.2,0.4,0.1,0.6c0,0,0,0,0,0c0,0.1-0.1,0.1-0.1,0.2c0,0,0,0,0,0l0,0c0.1-0.1-0.1-0.3-0.4-0.5l-5.5-3.3l-5.4-3.2
				c0,0-0.1-0.1-0.2-0.1C349.2,254.4,349.1,254.3,349,254.4z"/>
			<path class="st29" d="M349,254.4c0.2-0.2,0.5-0.3,0.8-0.2l5.5,3.3l0.1,0.1l5.4,3.2c0.1,0,0.2,0.1,0.2,0.2
				c0.1,0.2,0.2,0.4,0.1,0.6c0,0,0,0,0,0c0,0.1-0.1,0.1-0.1,0.2c0,0,0,0,0,0l0,0c0.1-0.1-0.1-0.3-0.4-0.5l-5.5-3.3l-5.4-3.2
				c0,0-0.1-0.1-0.2-0.1C349.3,254.4,349.1,254.3,349,254.4z"/>
			<path class="st30" d="M349,254.4c0.2-0.2,0.5-0.3,0.8-0.2l5.5,3.3l0.1,0.1l5.4,3.2c0.1,0,0.2,0.1,0.2,0.2
				c0.1,0.2,0.2,0.4,0.1,0.6c0,0,0,0,0,0c0,0.1-0.1,0.1-0.1,0.2c0,0,0,0,0,0l0,0c0.1-0.1-0.1-0.4-0.4-0.5l-5.5-3.3l-5.4-3.2
				c0,0-0.1-0.1-0.2-0.1C349.3,254.4,349.1,254.3,349,254.4z"/>
			<path class="st31" d="M349,254.4c0.2-0.2,0.5-0.3,0.8-0.1l5.5,3.3l0.1,0.1l5.4,3.2c0.1,0,0.2,0.1,0.2,0.2
				c0.1,0.2,0.1,0.4,0.1,0.6c0,0,0,0,0,0c0,0.1-0.1,0.1-0.2,0.2c0,0,0,0,0,0l0,0c0.1-0.2-0.1-0.4-0.3-0.6l-5.5-3.3l-5.4-3.2
				c0,0-0.2-0.1-0.2-0.1C349.3,254.4,349.1,254.3,349,254.4z"/>
			<path class="st32" d="M349,254.3c0.2-0.2,0.5-0.3,0.8-0.1l5.5,3.3l0.1,0.1l5.4,3.2c0.1,0,0.2,0.1,0.2,0.2
				c0.1,0.2,0.1,0.4,0.1,0.6c0,0,0,0,0,0c0,0.1-0.1,0.1-0.2,0.2c0,0,0,0,0,0l0,0c0.1-0.2,0-0.4-0.3-0.6l-5.5-3.3l-5.4-3.2
				c0,0-0.2-0.1-0.2-0.1C349.3,254.3,349.1,254.3,349,254.3z"/>
			<path class="st33" d="M349,254.3c0.2-0.2,0.5-0.3,0.8-0.1l5.5,3.3l0.1,0.1l5.4,3.2c0.1,0,0.2,0.1,0.2,0.2c0.1,0.2,0.1,0.4,0,0.6
				c0,0,0,0,0,0c0,0.1-0.1,0.1-0.2,0.2c0,0,0,0,0,0l0,0c0.1-0.2,0-0.5-0.3-0.6l-5.5-3.3l-5.4-3.2c0,0-0.2-0.1-0.2-0.1
				C349.3,254.3,349.1,254.3,349,254.3z"/>
			<path class="st34" d="M349,254.3c0.2-0.2,0.5-0.3,0.8-0.1l5.5,3.3l0.1,0.1l5.4,3.2c0.1,0,0.2,0.1,0.2,0.2c0.1,0.2,0.1,0.4,0,0.6
				c0,0,0,0,0,0c0,0.1-0.1,0.1-0.2,0.2c0,0,0,0,0-0.1l0,0c0.1-0.2,0-0.5-0.3-0.7l-5.5-3.3l-5.4-3.2c0,0-0.2-0.1-0.2-0.1
				C349.3,254.3,349.1,254.3,349,254.3z"/>
			<path class="st35" d="M349,254.3c0.2-0.2,0.5-0.3,0.8-0.1l5.5,3.3l0.1,0.1l5.4,3.2c0.1,0,0.2,0.1,0.2,0.2c0.1,0.2,0.1,0.4,0,0.6
				c0,0,0,0,0,0c0,0.1-0.1,0.1-0.2,0.2c0,0,0,0,0-0.1l0,0c0.1-0.2,0-0.5-0.3-0.7l-5.5-3.3l-5.4-3.2c0,0-0.2-0.1-0.2-0.1
				C349.4,254.3,349.1,254.3,349,254.3z"/>
			<path class="st36" d="M349,254.3c0.2-0.2,0.5-0.3,0.8-0.1l5.5,3.3l0.1,0.1l5.4,3.2c0.1,0,0.2,0.1,0.2,0.2c0.1,0.2,0.1,0.4,0,0.6
				c0,0,0,0,0,0c0,0.1-0.1,0.1-0.2,0.2c0,0,0,0,0-0.1l0,0c0.1-0.2,0-0.5-0.3-0.7l-5.5-3.3l-5.4-3.2c0,0-0.2-0.1-0.2-0.1
				C349.4,254.3,349.1,254.3,349,254.3z"/>
			<path class="st37" d="M349,254.3c0.2-0.2,0.5-0.3,0.8-0.1l5.5,3.3l0.1,0.1l5.4,3.2c0.1,0,0.2,0.1,0.2,0.2c0.1,0.2,0.1,0.4,0,0.6
				c0,0,0,0,0,0c0,0.1-0.1,0.1-0.2,0.2c0,0,0,0,0-0.1l0,0c0.1-0.2,0-0.6-0.2-0.7l-5.5-3.3l-5.4-3.2c0,0-0.2-0.1-0.2-0.1
				C349.4,254.2,349.2,254.2,349,254.3z"/>
			<path class="st38" d="M349,254.3c0.2-0.2,0.5-0.3,0.8-0.1l5.5,3.3l0.1,0.1l5.5,3.2c0.1,0.1,0.2,0.1,0.2,0.2
				c0.1,0.2,0.1,0.4,0,0.6c0,0,0,0,0,0c0,0.1-0.1,0.1-0.2,0.2c0,0,0,0,0-0.1l0,0c0.2-0.3,0.1-0.6-0.2-0.8l-5.5-3.3l-5.4-3.2
				c0,0-0.2-0.1-0.2-0.1C349.4,254.2,349.2,254.2,349,254.3z"/>
			<path id="XMLID_1_" class="st39" d="M360.9,261.7c0.2-0.3,0.1-0.6-0.2-0.8l-5.5-3.3l-5.5-3.3c-0.2-0.1-0.4-0.1-0.6,0
				c0.2-0.2,0.5-0.3,0.7-0.1l5.5,3.3l5.5,3.3c0.3,0.2,0.4,0.5,0.2,0.8v0C361,261.7,360.9,261.7,360.9,261.7
				C360.9,261.7,360.9,261.7,360.9,261.7z"/>
		</g>
	</g>
</g>
<path class="st40" d="M305.3,238.6H42.5c-10.5,0-18.9-8.5-18.9-18.9V54.3c0-10.5,8.5-18.9,18.9-18.9h262.9
	c10.5,0,18.9,8.5,18.9,18.9v165.4C324.3,230.2,315.8,238.6,305.3,238.6z"/>
<path class="st40" d="M324.3,197.5c0,0,0,43,0,72.2c0,2.8-5.6,5.1-8.4-0.5c-8.5-17.1-32.7-30.6-69.6-30.6
	C196.2,238.6,324.3,197.5,324.3,197.5z"/>
<text transform="matrix(1 0 0 1 58.3389 78.5166)" class="st41"><tspan x="0" y="0" class="st4 st42 st43">¡Gracias por tu compra</tspan><tspan x="0" y="26.7" class="st4 st42 st43">el 28/02/19 por $1000</tspan><tspan x="0" y="53.5" class="st4 st42 st43">en TIENDA DE ROPA</tspan><tspan x="0" y="80.2" class="st4 st42 st43">con tu tarjeta 9876. </tspan><tspan x="0" y="106.9" class="st4 st42 st43">Aclaraciones</tspan><tspan x="0" y="133.7" class="st4 st42 st43"> 01800765245</tspan></text>
</svg>
